<svg width="110" height="110" viewBox="0 0 110 110" fill="none" xmlns="http://www.w3.org/2000/svg">
<path d="M45.8327 68.75H27.4993C22.637 68.75 17.9739 70.6815 14.5357 74.1197C11.0976 77.5579 9.16602 82.221 9.16602 87.0833V96.25M99.4568 75.1671L95.3318 73.7921M69.6651 63.7088L65.5401 62.3338M76.0831 85.7086L77.4581 81.5836M87.5415 55.9169L88.9165 51.7919M89.8336 85.7081L88.0002 81.1248M76.9989 56.3752L75.1656 51.7919M65.5401 76.0831L70.1235 74.2498M94.8752 63.2496L99.4586 61.4162M96.2494 68.75C96.2494 76.3439 90.0933 82.5 82.4994 82.5C74.9054 82.5 68.7494 76.3439 68.7494 68.75C68.7494 61.1561 74.9054 55 82.4994 55C90.0933 55 96.2494 61.1561 96.2494 68.75ZM59.5827 32.0833C59.5827 42.2086 51.3746 50.4167 41.2494 50.4167C31.1241 50.4167 22.916 42.2086 22.916 32.0833C22.916 21.9581 31.1241 13.75 41.2494 13.75C51.3746 13.75 59.5827 21.9581 59.5827 32.0833Z" stroke="url(#paint0_radial_241_901)" stroke-width="3" stroke-linecap="round" stroke-linejoin="round"/>
<defs>
<radialGradient id="paint0_radial_241_901" cx="0" cy="0" r="1" gradientUnits="userSpaceOnUse" gradientTransform="translate(99.4586 96.25) rotate(-121.161) scale(77.5302 123.077)">
<stop offset="0.164182" stop-color="#BEB2DF"/>
<stop offset="0.35" stop-color="#FF7346"/>
<stop offset="0.545777" stop-color="#FF7346"/>
<stop offset="0.730834" stop-color="#BEB2DF"/>
<stop offset="1" stop-color="#42365A"/>
</radialGradient>
</defs>
</svg>
