<svg width="36" height="36" viewBox="0 0 36 36" fill="none" xmlns="http://www.w3.org/2000/svg">
<path d="M1.55911 11.2889H8.60725V33.9992H1.55911V11.2889ZM5.08337 0C7.33604 0 9.16674 1.83393 9.16674 4.09436C9.16674 6.35252 7.33604 8.18644 5.08337 8.18644C2.82541 8.18644 1 6.35252 1 4.09436C1 1.83393 2.82541 0 5.08337 0Z" fill="url(#paint0_radial_241_1348)"/>
<path d="M13.0273 11.2899H19.7857V14.3954H19.8821C20.8227 12.6092 23.1219 10.7275 26.5487 10.7275C33.6837 10.7275 35.0006 15.4297 35.0006 21.5445V34.0002H27.9578V22.9561C27.9578 20.3218 27.912 16.9344 24.2964 16.9344C20.6297 16.9344 20.0702 19.8056 20.0702 22.7669V34.0002H13.0273V11.2899Z" fill="url(#paint1_radial_241_1348)"/>
<defs>
<radialGradient id="paint0_radial_241_1348" cx="0" cy="0" r="1" gradientUnits="userSpaceOnUse" gradientTransform="translate(9.16674 33.9992) rotate(-97.5597) scale(27.5809 12.8958)">
<stop offset="0.164182" stop-color="#BEB2DF"/>
<stop offset="0.35" stop-color="#FF7346"/>
<stop offset="0.545777" stop-color="#FF7346"/>
<stop offset="0.730834" stop-color="#BEB2DF"/>
<stop offset="1" stop-color="#9788B5"/>
</radialGradient>
<radialGradient id="paint1_radial_241_1348" cx="0" cy="0" r="1" gradientUnits="userSpaceOnUse" gradientTransform="translate(35.0006 34.0002) rotate(-117.549) scale(21.1085 31.0329)">
<stop offset="0.164182" stop-color="#BEB2DF"/>
<stop offset="0.35" stop-color="#FF7346"/>
<stop offset="0.545777" stop-color="#FF7346"/>
<stop offset="0.730834" stop-color="#BEB2DF"/>
<stop offset="1" stop-color="#9788B5"/>
</radialGradient>
</defs>
</svg>
