<svg width="36" height="36" viewBox="0 0 36 36" fill="none" xmlns="http://www.w3.org/2000/svg">
<path d="M23.5392 1C27.6024 1.00706 27.7608 1.04143 28.5549 1.15625C30.1938 1.39273 31.5689 2.04664 32.6935 3.12109C33.3237 3.72765 33.7577 4.32088 34.1486 5.11523C34.625 6.08559 34.8598 7.00383 34.967 8.36914C34.99 8.6659 35.0002 13.3261 35.0002 17.9893C35.0002 22.6537 34.99 27.3242 34.967 27.6172C34.8611 28.9608 34.6277 29.8868 34.1662 30.8389C33.2484 32.7326 31.5616 34.1139 29.5246 34.6396C28.7859 34.8306 28.1175 34.9205 26.967 34.9746C26.5551 34.9955 22.2618 35 17.9689 35C13.6766 35 9.3871 34.987 8.96405 34.9688C7.9704 34.9217 7.19609 34.8221 6.4953 34.6416C4.47145 34.1185 2.75324 32.7171 1.8537 30.8496C1.38306 29.8741 1.16083 28.9819 1.04315 27.5645C1.00916 27.1616 1.00116 25.0868 1.00116 17.9932C1.00116 15.6034 0.998547 13.8216 1.00116 12.4678C1.00796 8.40667 1.0414 8.24423 1.15644 7.44922C1.39308 5.81131 2.04752 4.43349 3.12616 3.31348C3.71839 2.69939 4.31841 2.26074 5.07929 1.88281C6.06647 1.39122 6.97275 1.16211 8.4289 1.04102C8.83237 1.00754 10.9087 1 18.006 1H23.5392ZM17.9963 5.44727C14.5891 5.44727 14.161 5.46153 12.8225 5.52246C11.4864 5.58367 10.5746 5.796 9.77655 6.10645C8.95107 6.42711 8.25054 6.85565 7.55292 7.55371C6.85477 8.25154 6.42533 8.95188 6.1037 9.77734C5.79253 10.5759 5.58084 11.4891 5.52069 12.8252C5.46083 14.1641 5.4455 14.5925 5.4455 18.002C5.4455 21.4117 5.461 21.8385 5.52167 23.1777C5.58313 24.5142 5.79458 25.4264 6.10468 26.2246C6.42552 27.0504 6.85403 27.7514 7.55194 28.4492C8.24922 29.1474 8.94976 29.5768 9.7746 29.8975C10.5732 30.2079 11.4856 30.4202 12.8215 30.4814C14.1603 30.5424 14.5879 30.5566 17.9963 30.5566C21.4053 30.5566 21.8323 30.5424 23.1711 30.4814C24.5071 30.4202 25.4204 30.2079 26.2189 29.8975C27.044 29.5768 27.7434 29.1474 28.4406 28.4492C29.1388 27.7514 29.5672 27.0501 29.8889 26.2246C30.1974 25.4261 30.4091 24.5137 30.4719 23.1777C30.532 21.8385 30.548 21.4117 30.548 18.002C30.548 14.5923 30.532 14.1643 30.4719 12.8252C30.4091 11.4888 30.1974 10.5765 29.8889 9.77832C29.5672 8.95256 29.1388 8.25156 28.4406 7.55371C27.7425 6.8554 27.0442 6.42685 26.218 6.10645C25.4178 5.79598 24.5053 5.58368 23.1691 5.52246C21.8306 5.46153 21.4041 5.44727 17.9963 5.44727ZM16.8723 7.70898C17.2064 7.70846 17.5794 7.70898 17.9982 7.70898C21.349 7.70898 21.7464 7.72111 23.0695 7.78125C24.2933 7.83722 24.9581 8.04202 25.4006 8.21387C25.9862 8.44141 26.404 8.71396 26.843 9.15332C27.282 9.59255 27.5535 10.0111 27.7814 10.5967C27.9532 11.0387 28.1584 11.7036 28.2141 12.9277C28.2742 14.2509 28.2873 14.6488 28.2873 17.999C28.2873 21.3492 28.2742 21.7472 28.2141 23.0703C28.1581 24.2944 27.9532 24.9593 27.7814 25.4014C27.554 25.9871 27.2822 26.4047 26.843 26.8438C26.4038 27.2831 25.9864 27.5547 25.4006 27.7822C24.9587 27.9549 24.2933 28.1589 23.0695 28.2148C21.7467 28.275 21.349 28.2881 17.9982 28.2881C14.6467 28.2881 14.2491 28.275 12.926 28.2148C11.7026 28.1583 11.0386 27.954 10.5959 27.7822C10.0103 27.5547 9.59167 27.2829 9.15253 26.8438C8.71327 26.4044 8.44108 25.9865 8.21308 25.4004C8.04128 24.9583 7.83616 24.2935 7.78046 23.0693C7.72033 21.7462 7.70819 21.3483 7.70819 17.9961C7.70819 14.6434 7.72032 14.2473 7.78046 12.9238C7.83644 11.7 8.0413 11.0353 8.21308 10.5928C8.44054 10.0071 8.71334 9.58873 9.15253 9.14941C9.59177 8.71009 10.0102 8.43801 10.5959 8.20996C11.0383 8.03736 11.7026 7.83358 12.926 7.77734C14.0838 7.72503 14.533 7.70867 16.8723 7.70605V7.70898ZM17.9982 11.5547C14.4386 11.5547 11.5519 14.4413 11.5519 18.002C11.5519 21.5626 14.4386 24.4482 17.9982 24.4482C21.5578 24.4481 24.4426 21.5625 24.4426 18.002C24.4426 14.4414 21.5578 11.5548 17.9982 11.5547ZM17.9982 13.8174C20.3086 13.8175 22.1818 15.6906 22.1818 18.002C22.1818 20.3131 20.3086 22.1864 17.9982 22.1865C15.6875 22.1865 13.8146 20.3131 13.8146 18.002C13.8146 15.6905 15.6875 13.8174 17.9982 13.8174ZM24.5441 9.80176C23.7849 9.87875 23.1918 10.5199 23.1916 11.2998C23.1916 12.1314 23.8661 12.8064 24.6975 12.8066C25.529 12.8066 26.2043 12.1316 26.2043 11.2998C26.2041 10.4682 25.5289 9.79395 24.6975 9.79395L24.5441 9.80176Z" fill="url(#paint0_radial_311_5352)"/>
<defs>
<radialGradient id="paint0_radial_311_5352" cx="0" cy="0" r="1" gradientUnits="userSpaceOnUse" gradientTransform="translate(35 35) rotate(-118.921) scale(31.2374 47.4049)">
<stop offset="0.164182" stop-color="#BEB2DF"/>
<stop offset="0.35" stop-color="#FF7346"/>
<stop offset="0.545777" stop-color="#FF7346"/>
<stop offset="0.730834" stop-color="#BEB2DF"/>
<stop offset="1" stop-color="#9788B5"/>
</radialGradient>
</defs>
</svg>
