<svg width="77" height="77" viewBox="0 0 77 77" fill="none" xmlns="http://www.w3.org/2000/svg">
<path d="M51.3327 25.6667V16.0417C51.3327 12.5125 54.2202 9.62498 57.7494 9.62498M38.4994 41.7083H51.3327M38.4994 57.75H57.7494C59.4512 57.75 61.0833 58.426 62.2866 59.6294C63.49 60.8327 64.166 62.4648 64.166 64.1667V67.375M38.4994 25.6667H64.166M38.4996 14.4377C38.5115 12.4305 37.7704 10.4918 36.4226 9.00434C35.0748 7.51692 33.2183 6.58891 31.2196 6.40355C29.221 6.21819 27.2255 6.78896 25.6271 8.00314C24.0287 9.21733 22.9437 10.9867 22.5863 12.9618C21.5287 13.16 20.5217 13.5689 19.6254 14.1643C18.7291 14.7596 17.9618 15.5292 17.3691 16.4273C16.7763 17.3253 16.3704 18.3335 16.1754 19.3917C15.9803 20.4499 16.0002 21.5365 16.2338 22.5868C14.7858 22.8439 13.4363 23.4941 12.3329 24.4665C11.2295 25.4388 10.4146 26.6958 9.97749 28.1C9.54033 29.5042 9.49766 31.0016 9.85415 32.4284C10.2106 33.8552 10.9526 35.1566 11.9988 36.1902C10.2391 37.0026 8.76571 38.3273 7.77139 39.9909C6.77706 41.6546 6.30815 43.5797 6.42603 45.5142C6.5439 47.4488 7.24307 49.3027 8.43203 50.8333C9.62099 52.3639 11.2443 53.4999 13.0896 54.0927C12.7373 55.4237 12.7335 56.8229 13.0787 58.1558C13.4238 59.4887 14.1062 60.7102 15.0603 61.703C16.0143 62.6957 17.2078 63.4261 18.5259 63.8239C19.844 64.2217 21.2424 64.2735 22.5863 63.9743C22.9194 65.8091 23.8813 67.4705 25.3067 68.6728C26.7321 69.8751 28.5318 70.5432 30.3965 70.5622C32.2611 70.5812 34.0741 69.9499 35.5237 68.7768C36.9733 67.6038 37.9689 65.9624 38.3392 64.1348L38.4996 64.1668V14.4377ZM65.7702 25.6667C65.7702 26.0921 65.6012 26.5001 65.3004 26.801C64.9995 27.1018 64.5915 27.2708 64.166 27.2708C63.7406 27.2708 63.3326 27.1018 63.0317 26.801C62.7309 26.5001 62.5619 26.0921 62.5619 25.6667C62.5619 25.2412 62.7309 24.8332 63.0317 24.5323C63.3326 24.2315 63.7406 24.0625 64.166 24.0625C64.5915 24.0625 64.9995 24.2315 65.3004 24.5323C65.6012 24.8332 65.7702 25.2412 65.7702 25.6667ZM52.9369 41.7083C52.9369 42.1338 52.7679 42.5418 52.467 42.8426C52.1662 43.1435 51.7582 43.3125 51.3327 43.3125C50.9073 43.3125 50.4992 43.1435 50.1984 42.8426C49.8975 42.5418 49.7285 42.1338 49.7285 41.7083C49.7285 41.2829 49.8975 40.8748 50.1984 40.574C50.4992 40.2732 50.9073 40.1042 51.3327 40.1042C51.7582 40.1042 52.1662 40.2732 52.467 40.574C52.7679 40.8748 52.9369 41.2829 52.9369 41.7083ZM65.7702 67.375C65.7702 67.8004 65.6012 68.2085 65.3004 68.5093C64.9995 68.8101 64.5915 68.9792 64.166 68.9792C63.7406 68.9792 63.3326 68.8101 63.0317 68.5093C62.7309 68.2085 62.5619 67.8004 62.5619 67.375C62.5619 66.9495 62.7309 66.5415 63.0317 66.2407C63.3326 65.9398 63.7406 65.7708 64.166 65.7708C64.5915 65.7708 64.9995 65.9398 65.3004 66.2407C65.6012 66.5415 65.7702 66.9495 65.7702 67.375ZM59.3535 9.62498C59.3535 10.0504 59.1845 10.4585 58.8837 10.7593C58.5829 11.0601 58.1748 11.2292 57.7494 11.2292C57.3239 11.2292 56.9159 11.0601 56.6151 10.7593C56.3142 10.4585 56.1452 10.0504 56.1452 9.62498C56.1452 9.19953 56.3142 8.79151 56.6151 8.49067C56.9159 8.18983 57.3239 8.02082 57.7494 8.02082C58.1748 8.02082 58.5829 8.18983 58.8837 8.49067C59.1845 8.79151 59.3535 9.19953 59.3535 9.62498Z" stroke="white" stroke-width="3" stroke-linecap="round" stroke-linejoin="round"/>
</svg>
