<svg width="36" height="36" viewBox="0 0 36 36" fill="none" xmlns="http://www.w3.org/2000/svg">
<g clip-path="url(#clip0_241_1342)">
<path fill-rule="evenodd" clip-rule="evenodd" d="M27.5766 34.1687C28.0596 34.5107 28.6821 34.5962 29.2371 34.3862C29.7921 34.1747 30.2001 33.7007 30.3231 33.1262C31.6266 27.0002 34.7886 11.4947 35.9751 5.92222C36.0651 5.50222 35.9151 5.06572 35.5851 4.78522C35.2551 4.50472 34.7976 4.42372 34.3896 4.57522C28.1001 6.90322 8.7306 14.1707 0.813597 17.1002C0.311097 17.2862 -0.0159032 17.7692 0.000596781 18.2987C0.0185968 18.8297 0.375597 19.2902 0.890097 19.4447C4.4406 20.5067 9.1011 21.9842 9.1011 21.9842C9.1011 21.9842 11.2791 28.5617 12.4146 31.9067C12.5571 32.3267 12.8856 32.6567 13.3191 32.7707C13.7511 32.8832 14.2131 32.7647 14.5356 32.4602C16.3596 30.7382 19.1796 28.0757 19.1796 28.0757C19.1796 28.0757 24.5376 32.0042 27.5766 34.1687ZM11.0616 21.1532L13.5801 29.4602L14.1396 24.1997C14.1396 24.1997 23.8701 15.4232 29.4171 10.4207C29.5791 10.2737 29.6016 10.0277 29.4666 9.85522C29.3331 9.68272 29.0871 9.64222 28.9026 9.75922C22.4736 13.8647 11.0616 21.1532 11.0616 21.1532Z" fill="url(#paint0_radial_241_1342)"/>
</g>
<defs>
<radialGradient id="paint0_radial_241_1342" cx="0" cy="0" r="1" gradientUnits="userSpaceOnUse" gradientTransform="translate(36.0008 34.5) rotate(-123.545) scale(28.946 47.7953)">
<stop offset="0.164182" stop-color="#BEB2DF"/>
<stop offset="0.35" stop-color="#FF7346"/>
<stop offset="0.545777" stop-color="#FF7346"/>
<stop offset="0.730834" stop-color="#BEB2DF"/>
<stop offset="1" stop-color="#9788B5"/>
</radialGradient>
<clipPath id="clip0_241_1342">
<rect width="36" height="36" fill="white"/>
</clipPath>
</defs>
</svg>
