<svg width="36" height="36" viewBox="0 0 36 36" fill="none" xmlns="http://www.w3.org/2000/svg">
<path d="M18 5C18.033 5 29.2623 5.00132 32.0645 5.75293C33.6143 6.16783 34.8323 7.38568 35.2471 8.93555C35.9968 11.7419 36 17.6006 36 17.6006C36 17.6078 35.9993 23.4609 35.2471 26.2656C34.8323 27.8155 33.6143 29.0334 32.0645 29.4482C29.2623 30.1999 18.033 30.2012 18 30.2012C18 30.2012 6.74202 30.201 3.93555 29.4482C2.38568 29.0334 1.16781 27.8155 0.75293 26.2656C0.000694126 23.4609 2.8608e-07 17.6078 0 17.6006C0 17.6006 0.000220731 11.7419 0.75293 8.93555C1.16781 7.38566 2.38568 6.16781 3.93555 5.75293C6.742 5.00022 18 5 18 5ZM14.3965 23L23.749 17.6006L14.3965 12.2012V23Z" fill="url(#paint0_radial_311_5376)"/>
<defs>
<radialGradient id="paint0_radial_311_5376" cx="0" cy="0" r="1" gradientUnits="userSpaceOnUse" gradientTransform="translate(36 30.2012) rotate(-128.282) scale(25.8176 45.014)">
<stop offset="0.164182" stop-color="#BEB2DF"/>
<stop offset="0.35" stop-color="#FF7346"/>
<stop offset="0.545777" stop-color="#FF7346"/>
<stop offset="0.730834" stop-color="#BEB2DF"/>
<stop offset="1" stop-color="#9788B5"/>
</radialGradient>
</defs>
</svg>
