<svg width="77" height="77" viewBox="0 0 77 77" fill="none" xmlns="http://www.w3.org/2000/svg">
<path d="M51.3327 67.375V60.9583C51.3327 57.5547 49.9806 54.2905 47.5739 51.8838C45.1672 49.4771 41.903 48.125 38.4994 48.125H19.2493C15.8457 48.125 12.5815 49.4771 10.1748 51.8838C7.7681 54.2905 6.41602 57.5547 6.41602 60.9583V67.375M70.5827 67.3746V60.958C70.5806 58.1145 69.6342 55.3523 67.8921 53.105C66.15 50.8577 63.7109 49.2526 60.9577 48.5417M51.3327 10.0417C54.0932 10.7485 56.5399 12.354 58.2872 14.605C60.0345 16.8559 60.9828 19.6245 60.9828 22.474C60.9828 25.3235 60.0345 28.092 58.2872 30.343C56.5399 32.594 54.0932 34.1995 51.3327 34.9063M41.7077 22.4583C41.7077 29.546 35.962 35.2917 28.8744 35.2917C21.7867 35.2917 16.041 29.546 16.041 22.4583C16.041 15.3707 21.7867 9.625 28.8744 9.625C35.962 9.625 41.7077 15.3707 41.7077 22.4583Z" stroke="white" stroke-width="3" stroke-linecap="round" stroke-linejoin="round"/>
</svg>
