<svg width="36" height="36" viewBox="0 0 36 36" fill="none" xmlns="http://www.w3.org/2000/svg">
<path d="M5.97861 5.97959C12.6181 -0.659865 23.3821 -0.659863 30.0206 5.97959C36.6601 12.6181 36.6601 23.3821 30.0206 30.0216C24.3342 35.708 15.6208 36.523 9.06552 32.4679L2.17294 33.8272L3.53232 26.9347C-0.522883 20.3794 0.292212 11.666 5.97861 5.97959ZM12.2208 8.50889C11.6854 7.9739 10.8176 7.97373 10.2823 8.50889L9.67001 9.12217C7.58744 11.2047 7.58744 14.5816 9.67001 16.6642L19.336 26.3302C21.4186 28.4128 24.7954 28.4128 26.878 26.3302L27.4903 25.7179C28.0258 25.1825 28.0258 24.3138 27.4903 23.7784L24.1407 20.4288C23.4165 20.9376 22.6527 21.265 21.9395 21.3917C21.0108 21.5567 20.1669 21.3807 19.6075 20.8214L15.1788 16.3927C14.6194 15.8334 14.4434 14.9894 14.6085 14.0606C14.735 13.3474 15.0626 12.5838 15.5714 11.8595L12.2208 8.50889Z" fill="url(#paint0_radial_241_1344)"/>
<defs>
<radialGradient id="paint0_radial_241_1344" cx="0" cy="0" r="1" gradientUnits="userSpaceOnUse" gradientTransform="translate(35 35) rotate(-118.921) scale(31.2374 47.4049)">
<stop offset="0.164182" stop-color="#BEB2DF"/>
<stop offset="0.35" stop-color="#FF7346"/>
<stop offset="0.545777" stop-color="#FF7346"/>
<stop offset="0.730834" stop-color="#BEB2DF"/>
<stop offset="1" stop-color="#9788B5"/>
</radialGradient>
</defs>
</svg>
