<svg width="110" height="110" viewBox="0 0 110 110" fill="none" xmlns="http://www.w3.org/2000/svg">
<path d="M55.0007 68.75L41.2507 55M55.0007 68.75C61.4029 66.3151 67.5447 63.2442 73.334 59.5834M55.0007 68.75V91.6667C55.0007 91.6667 68.8882 89.1458 73.334 82.5C78.284 75.075 73.334 59.5834 73.334 59.5834M41.2507 55C43.6896 48.6724 46.7608 42.607 50.4173 36.8959C55.7577 28.357 63.1939 21.3265 72.0186 16.4729C80.8432 11.6194 90.7629 9.10423 100.834 9.16669C100.834 21.6334 97.259 43.5417 73.334 59.5834M41.2507 55L18.334 55.0001C18.334 55.0001 20.8548 41.1126 27.5007 36.6668C34.9257 31.7168 50.4173 36.6668 50.4173 36.6668M20.6257 75.6254C13.7507 81.4004 11.459 98.542 11.459 98.542C11.459 98.542 28.6007 96.2504 34.3757 89.3754C37.6298 85.5254 37.584 79.6129 33.9632 76.0379C32.1816 74.3375 29.8349 73.3549 27.3734 73.2788C24.9118 73.2027 22.5088 74.0383 20.6257 75.6254Z" stroke="url(#paint0_radial_241_715)" stroke-width="3" stroke-linecap="round" stroke-linejoin="round"/>
<defs>
<radialGradient id="paint0_radial_241_715" cx="0" cy="0" r="1" gradientUnits="userSpaceOnUse" gradientTransform="translate(100.834 98.542) rotate(-118.92) scale(82.114 124.613)">
<stop offset="0.164182" stop-color="#BEB2DF"/>
<stop offset="0.35" stop-color="#FF7346"/>
<stop offset="0.545777" stop-color="#FF7346"/>
<stop offset="0.730834" stop-color="#BEB2DF"/>
<stop offset="1" stop-color="#42365A"/>
</radialGradient>
</defs>
</svg>
