<svg width="110" height="110" viewBox="0 0 110 110" fill="none" xmlns="http://www.w3.org/2000/svg">
<path d="M73.3327 96.25V87.0833C73.3327 82.221 71.4011 77.5579 67.963 74.1197C64.5248 70.6815 59.8617 68.75 54.9994 68.75H27.4993C22.637 68.75 17.9739 70.6815 14.5357 74.1197C11.0976 77.5579 9.16602 82.221 9.16602 87.0833V96.25M100.833 96.2495V87.0828C100.83 83.0207 99.4776 79.0747 96.9889 75.8642C94.5002 72.6538 91.0158 70.3608 87.0827 69.3453M73.3327 14.3453C77.2763 15.355 80.7716 17.6485 83.2677 20.8642C85.7638 24.0799 87.1186 28.0349 87.1186 32.1057C87.1186 36.1765 85.7638 40.1315 83.2677 43.3472C80.7716 46.5629 77.2763 48.8564 73.3327 49.8661M59.5827 32.0833C59.5827 42.2086 51.3746 50.4167 41.2494 50.4167C31.1241 50.4167 22.916 42.2086 22.916 32.0833C22.916 21.9581 31.1241 13.75 41.2494 13.75C51.3746 13.75 59.5827 21.9581 59.5827 32.0833Z" stroke="url(#paint0_radial_241_724)" stroke-width="3" stroke-linecap="round" stroke-linejoin="round"/>
<defs>
<radialGradient id="paint0_radial_241_724" cx="0" cy="0" r="1" gradientUnits="userSpaceOnUse" gradientTransform="translate(100.833 96.25) rotate(-121.545) scale(77.8479 124.44)">
<stop offset="0.164182" stop-color="#BEB2DF"/>
<stop offset="0.35" stop-color="#FF7346"/>
<stop offset="0.545777" stop-color="#FF7346"/>
<stop offset="0.730834" stop-color="#BEB2DF"/>
<stop offset="1" stop-color="#42365A"/>
</radialGradient>
</defs>
</svg>
