<svg width="110" height="110" viewBox="0 0 110 110" fill="none" xmlns="http://www.w3.org/2000/svg">
<path d="M41.2494 77.9167L69.2077 49.9583C70.9292 48.271 73.2461 47.3298 75.6567 47.3383C78.0672 47.3469 80.3773 48.3047 82.0869 50.0042L100.833 68.75M100.833 68.75V22.9167C100.833 20.4855 99.8669 18.1539 98.1478 16.4349C96.4287 14.7158 94.0972 13.75 91.666 13.75H18.3327C15.9015 13.75 13.57 14.7158 11.8509 16.4349C10.1318 18.1539 9.16602 20.4855 9.16602 22.9167V68.75C9.16602 71.1812 10.1318 73.5127 11.8509 75.2318C13.57 76.9509 15.9015 77.9167 18.3327 77.9167H91.666C94.0972 77.9167 96.4287 76.9509 98.1478 75.2318C99.8669 73.5127 100.833 71.1812 100.833 68.75ZM36.666 96.25H73.3327M54.9994 77.9167V96.25M45.8327 41.25C45.8327 46.3126 41.7286 50.4167 36.666 50.4167C31.6034 50.4167 27.4993 46.3126 27.4993 41.25C27.4993 36.1874 31.6034 32.0833 36.666 32.0833C41.7286 32.0833 45.8327 36.1874 45.8327 41.25Z" stroke="url(#paint0_radial_241_933)" stroke-width="3" stroke-linecap="round" stroke-linejoin="round"/>
<defs>
<radialGradient id="paint0_radial_241_933" cx="0" cy="0" r="1" gradientUnits="userSpaceOnUse" gradientTransform="translate(100.833 96.25) rotate(-121.545) scale(77.8479 124.44)">
<stop offset="0.164182" stop-color="#BEB2DF"/>
<stop offset="0.35" stop-color="#FF7346"/>
<stop offset="0.545777" stop-color="#FF7346"/>
<stop offset="0.730834" stop-color="#BEB2DF"/>
<stop offset="1" stop-color="#42365A"/>
</radialGradient>
</defs>
</svg>
