<svg width="194" height="61" viewBox="0 0 194 61" fill="none" xmlns="http://www.w3.org/2000/svg">
<path d="M34.9353 48.2527C34.317 47.9435 33.8533 47.4798 33.3895 46.8614C33.0804 46.2431 32.9258 45.6248 32.9258 44.8519C32.9258 44.0789 33.0804 43.4606 33.3895 42.8423C33.6987 42.224 34.1624 41.7602 34.9353 41.4511C35.5537 41.1419 36.3266 40.9873 37.0995 40.9873C37.7178 40.9873 38.3362 41.1419 38.9545 41.2965C39.4182 41.6056 39.882 41.9148 40.3457 42.224L39.2636 43.306C38.7999 42.6877 38.1816 42.3785 37.4087 42.3785C36.9449 42.3785 36.4812 42.5331 36.172 42.6877C35.8628 42.8423 35.5537 43.1515 35.2445 43.6152C35.0899 43.9244 34.9353 44.3881 34.9353 44.8519C34.9353 45.3156 35.0899 45.7794 35.2445 46.0885C35.3991 46.3977 35.7083 46.7069 36.172 47.016C36.4812 47.1706 36.9449 47.3252 37.4087 47.3252C38.1816 47.3252 38.7999 47.016 39.2636 46.3977L40.3457 47.4798C40.0366 47.9435 39.5728 48.2527 38.9545 48.5618C38.4907 48.7164 37.8724 48.871 37.0995 48.871C36.172 48.871 35.5537 48.7164 34.9353 48.2527Z" fill="black"/>
<path d="M43.5916 48.2527C42.9733 47.9435 42.5095 47.4798 42.0458 46.8614C41.7366 46.2431 41.582 45.6248 41.582 44.8519C41.582 44.0789 41.7366 43.4606 42.0458 42.8423C42.3549 42.224 42.8187 41.7602 43.5916 41.4511C44.2099 41.1419 44.9828 40.9873 45.7557 40.9873C46.5287 40.9873 47.3016 41.1419 47.9199 41.4511C48.5382 41.7602 49.002 42.224 49.4657 42.8423C49.7749 43.4606 50.0841 44.0789 50.0841 44.8519C50.0841 45.6248 49.9295 46.2431 49.4657 46.8614C49.1566 47.4798 48.5382 47.9435 47.9199 48.2527C47.3016 48.7164 46.5287 48.871 45.7557 48.871C44.9828 48.871 44.2099 48.7164 43.5916 48.2527ZM46.9924 47.016C47.3016 46.8614 47.6107 46.5523 47.7653 46.0885C48.0745 45.7794 48.0745 45.3156 48.0745 44.8519C48.0745 44.3881 47.9199 43.9244 47.7653 43.6152C47.6107 43.306 47.3016 42.9969 46.9924 42.6877C46.6832 42.5331 46.2195 42.3785 45.7557 42.3785C45.292 42.3785 44.8283 42.5331 44.5191 42.6877C44.2099 42.8423 43.9008 43.1515 43.7462 43.6152C43.437 44.0789 43.437 44.3881 43.437 44.8519C43.437 45.3156 43.5916 45.7794 43.7462 46.0885C43.9008 46.3977 44.2099 46.7069 44.5191 47.016C44.8283 47.1706 45.292 47.3252 45.7557 47.3252C46.2195 47.3252 46.5287 47.1706 46.9924 47.016Z" fill="black"/>
<path d="M54.103 42.5338V44.5434H57.5038V45.9346H54.103V48.7171H52.248V41.1426H57.9676V42.5338H54.103Z" fill="black"/>
<path d="M61.9875 42.5338V44.5434H65.5429V45.9346H61.9875V48.7171H60.2871V41.1426H66.0066V42.5338H61.9875Z" fill="black"/>
<path d="M74.1983 47.3259V48.7171H68.3242V41.1426H74.0438V42.5338H70.0246V44.2342H73.58V45.4709H70.0246V47.3259H74.1983Z" fill="black"/>
<path d="M82.546 47.3259V48.7171H76.6719V41.1426H82.3914V42.5338H78.3723V44.2342H81.9277V45.4709H78.3723V47.3259H82.546Z" fill="black"/>
<path d="M98.1592 48.7171L96.768 46.553H96.6134H95.0676V48.7171H93.3672V41.1426H96.6134C97.2317 41.1426 97.8501 41.2972 98.3138 41.4517C98.7776 41.6063 99.2413 42.0701 99.3959 42.3792C99.705 42.843 99.8596 43.3067 99.8596 43.7705C99.8596 44.2342 99.705 44.8526 99.3959 45.1617C99.0867 45.6255 98.7776 45.9346 98.3138 46.0892L100.014 48.5625H98.1592V48.7171ZM97.6955 42.843C97.3863 42.6884 97.0772 42.5338 96.4588 42.5338H95.0676V45.1617H96.4588C96.9226 45.1617 97.3863 45.0071 97.6955 44.8526C98.0046 44.5434 98.1592 44.2342 98.1592 43.9251C98.0047 43.4613 97.8501 43.1521 97.6955 42.843Z" fill="black"/>
<path d="M103.881 48.2527C103.262 47.9435 102.799 47.4798 102.335 46.8614C102.026 46.2431 101.871 45.6248 101.871 44.8519C101.871 44.0789 102.026 43.4606 102.335 42.8423C102.644 42.224 103.262 41.7602 103.881 41.4511C104.499 41.1419 105.272 40.9873 106.045 40.9873C106.818 40.9873 107.591 41.1419 108.209 41.4511C108.827 41.7602 109.291 42.224 109.755 42.8423C110.064 43.4606 110.219 44.0789 110.219 44.8519C110.219 45.6248 110.064 46.2431 109.755 46.8614C109.446 47.4798 108.827 47.9435 108.209 48.2527C107.436 48.7164 106.818 48.871 105.89 48.871C104.963 48.871 104.499 48.7164 103.881 48.2527ZM107.127 47.016C107.436 46.8614 107.745 46.5523 107.9 46.0885C108.054 45.7794 108.209 45.3156 108.209 44.8519C108.209 44.3881 108.054 43.9244 107.9 43.6152C107.745 43.306 107.436 42.9969 107.127 42.6877C106.818 42.5331 106.354 42.3785 105.89 42.3785C105.426 42.3785 104.963 42.5331 104.654 42.6877C104.344 42.8423 104.035 43.1515 103.881 43.6152C103.726 43.9244 103.571 44.3881 103.571 44.8519C103.571 45.3156 103.726 45.7794 103.881 46.0885C104.035 46.3977 104.344 46.7069 104.654 47.016C104.963 47.1706 105.426 47.3252 105.89 47.3252C106.354 47.3252 106.818 47.1706 107.127 47.016Z" fill="black"/>
<path d="M117.327 47.0167H113.772L113.154 48.7171H111.453L114.854 41.1426H116.554L119.955 48.7171H118.1L117.327 47.0167ZM116.864 45.7801L115.627 42.843L114.39 45.7801H116.864Z" fill="black"/>
<path d="M122.583 48.5624C121.964 48.4078 121.501 48.2532 121.191 47.9441L121.81 46.5528C122.119 46.862 122.583 47.0166 122.892 47.1712C123.356 47.3257 123.819 47.3257 124.283 47.3257C124.747 47.3257 125.211 47.3257 125.365 47.1712C125.674 47.0166 125.674 46.862 125.674 46.5528C125.674 46.3983 125.674 46.2437 125.52 46.0891C125.365 45.9345 125.211 45.9345 125.056 45.7799C124.901 45.7799 124.592 45.6253 124.128 45.4708C123.51 45.3162 123.046 45.1616 122.737 45.007C122.428 44.8524 122.119 44.6979 121.81 44.3887C121.501 44.0795 121.346 43.6158 121.346 43.152C121.346 42.6883 121.501 42.3791 121.655 41.9154C121.964 41.6062 122.273 41.297 122.737 40.9879C123.201 40.8333 123.819 40.6787 124.438 40.6787C124.901 40.6787 125.365 40.6787 125.829 40.8333C126.293 40.9879 126.756 41.1425 127.066 41.297L126.602 42.6883C125.829 42.2245 125.211 42.0699 124.438 42.0699C123.974 42.0699 123.51 42.2245 123.356 42.3791C123.046 42.5337 123.046 42.6883 123.046 42.9974C123.046 43.3066 123.201 43.4612 123.51 43.6158C123.819 43.7704 124.128 43.9249 124.747 43.9249C125.365 44.0795 125.829 44.2341 126.138 44.3887C126.447 44.5433 126.756 44.6978 127.066 45.007C127.375 45.3162 127.529 45.7799 127.529 46.2437C127.529 46.7074 127.375 47.0166 127.22 47.4803C126.911 47.7895 126.602 48.0987 126.138 48.2532C125.674 48.4078 125.056 48.5624 124.438 48.5624C123.665 48.8716 123.046 48.717 122.583 48.5624Z" fill="black"/>
<path d="M131.241 42.5338H128.768V41.1426H135.415V42.5338H132.941V48.7171H131.241V42.5338Z" fill="black"/>
<path d="M143.296 47.3259V48.7171H137.422V41.1426H143.141V42.5338H139.122V44.2342H142.678V45.4709H139.122V47.3259H143.296Z" fill="black"/>
<path d="M150.562 48.7171L149.17 46.553H149.016H147.47V48.7171H145.77V41.1426H149.016C149.634 41.1426 150.252 41.2972 150.716 41.4517C151.18 41.6063 151.644 42.0701 151.798 42.3792C152.107 42.843 152.262 43.3067 152.262 43.7705C152.262 44.2342 152.107 44.8526 151.798 45.1617C151.489 45.6255 151.18 45.9346 150.716 46.0892L152.417 48.5625H150.562V48.7171ZM150.098 42.843C149.789 42.6884 149.479 42.5338 148.861 42.5338H147.47V45.1617H148.861C149.325 45.1617 149.789 45.0071 150.098 44.8526C150.407 44.5434 150.562 44.2342 150.562 43.9251C150.562 43.4613 150.407 43.1521 150.098 42.843Z" fill="black"/>
<path d="M155.508 48.5624C154.89 48.4078 154.426 48.2532 154.117 47.9441L154.736 46.5528C155.045 46.862 155.508 47.0166 155.818 47.1712C156.281 47.3257 156.745 47.3257 157.209 47.3257C157.673 47.3257 158.136 47.3257 158.291 47.1712C158.6 47.0166 158.6 46.862 158.6 46.5528C158.6 46.3983 158.6 46.2437 158.445 46.0891C158.291 45.9345 158.136 45.9345 157.982 45.7799C157.827 45.7799 157.518 45.6253 157.054 45.4708C156.436 45.3162 155.972 45.1616 155.663 45.007C155.354 44.8524 155.045 44.6979 154.736 44.3887C154.426 44.0795 154.272 43.6158 154.272 43.152C154.272 42.6883 154.426 42.3791 154.581 41.9154C154.89 41.6062 155.199 41.297 155.663 40.9879C156.127 40.8333 156.745 40.6787 157.363 40.6787C157.827 40.6787 158.291 40.6787 158.755 40.8333C159.218 40.9879 159.682 41.1425 159.991 41.297L159.528 42.6883C158.755 42.2245 158.136 42.0699 157.363 42.0699C156.9 42.0699 156.436 42.2245 156.281 42.3791C155.972 42.5337 155.972 42.6883 155.972 42.9974C155.972 43.3066 156.127 43.4612 156.436 43.6158C156.745 43.7704 157.054 43.9249 157.673 43.9249C158.291 44.0795 158.755 44.2341 159.064 44.3887C159.373 44.5433 159.682 44.6978 159.991 45.007C160.3 45.3162 160.455 45.7799 160.455 46.2437C160.455 46.7074 160.3 47.0166 160.146 47.4803C159.837 47.7895 159.528 48.0987 159.064 48.2532C158.6 48.4078 157.982 48.5624 157.363 48.5624C156.745 48.8716 156.127 48.717 155.508 48.5624Z" fill="black"/>
<path d="M44.9835 1.26003C44.9835 1.10544 44.6743 0.950862 44.5197 0.950862H33.0806C32.7715 0.950862 32.4622 1.26003 32.4622 1.56919V31.7128C32.4622 32.0219 32.7715 32.3311 33.0806 32.3311H36.3268H44.5197C44.6743 32.3311 44.8288 32.1764 44.9835 32.1764L48.6934 27.6935C48.8479 27.539 48.8479 27.3844 48.8479 27.2299V18.7278C48.8479 18.4187 48.6934 17.9549 48.5388 17.8004L46.8384 16.4091C46.5292 16.1 46.5292 15.6362 46.8384 15.4816L48.5388 14.0903C48.6934 13.7812 48.8479 13.472 48.8479 13.1628V6.05207C48.8479 5.89749 48.8479 5.74292 48.6934 5.58832L44.9835 1.26003ZM43.9014 25.2203C43.9014 25.5294 43.7467 25.684 43.5922 25.8386L42.8193 26.7661C42.6646 26.9207 42.3555 27.0752 42.0463 27.0752H38.3363C38.0272 27.0752 37.718 26.7661 37.718 26.4569V18.8823C37.718 18.5732 38.0272 18.264 38.3363 18.264H42.0463C42.3555 18.264 42.6646 18.4187 42.8193 18.5732L43.5922 19.5008C43.7467 19.6553 43.9014 19.9644 43.9014 20.1191V25.2203ZM43.9014 11.3079C43.9014 11.617 43.7467 11.7716 43.5922 11.9262L42.8193 12.8537C42.6646 13.1628 42.3555 13.3174 42.0463 13.3174H38.3363C38.0272 13.3174 37.718 13.0083 37.718 12.6991V6.6704C37.718 6.36123 38.0272 6.05207 38.3363 6.05207H42.0463C42.3555 6.05207 42.6646 6.20666 42.8193 6.36123L43.5922 7.28873C43.7467 7.44332 43.9014 7.75247 43.9014 7.90706V11.3079ZM26.1244 0.641698C26.4335 0.487116 26.7427 0.641698 26.7427 0.950862V32.3311C26.7427 32.6402 26.4335 32.7947 26.279 32.6402H22.2598C21.9506 32.7947 21.7961 32.4856 21.7961 32.3311V0.950862C21.7961 0.641698 22.1053 0.487116 22.2598 0.641698H26.1244ZM16.3857 5.58832C16.5402 5.74292 16.5402 5.89749 16.5402 6.05207V12.2354C16.5402 12.5445 16.2311 12.6991 16.0766 12.5445H12.0574C11.7482 12.6991 11.5937 12.3899 11.5937 12.2354V7.90706C11.5937 7.75247 11.5937 7.5979 11.4391 7.44332L10.357 6.20666C10.2024 6.05207 10.0478 6.05207 9.89326 6.05207H6.95619C6.80162 6.05207 6.64703 6.20666 6.49245 6.20666L5.25579 7.44332C5.25579 7.5979 5.10121 7.75247 5.10121 7.90706V10.535C5.10121 10.8441 5.25579 10.9987 5.41038 11.1533L16.2311 19.3461C16.3857 19.5008 16.3857 19.6553 16.3857 19.8099V27.2299C16.3857 27.3844 16.3857 27.539 16.2311 27.6935L12.5211 32.0219C12.3666 32.1764 12.212 32.1764 12.0574 32.1764H4.32831C4.17372 32.1764 4.01914 32.0219 3.86455 32.0219L0.154583 27.6935C0.154583 27.539 0 27.3844 0 27.2299V20.1191C0 19.8099 0.309164 19.6553 0.463746 19.8099H4.48288C4.79205 19.6553 4.94662 19.9644 4.94662 20.1191V25.3748C4.94662 25.5294 4.94662 25.684 5.10121 25.8386L6.18329 27.0752C6.33786 27.2299 6.49245 27.2299 6.64703 27.2299H9.5841C9.73867 27.2299 9.89326 27.0752 10.0478 27.0752L11.1299 25.8386C11.2845 25.684 11.2845 25.5294 11.2845 25.3748V22.1286C11.2845 21.974 11.1299 21.6648 10.9753 21.6648L0.154583 13.472C0.154583 13.3174 0 13.1628 0 13.0083V6.05207C0.154583 5.89749 0.154583 5.74292 0.154583 5.58832L3.86455 1.10544C4.01914 1.10544 4.17372 0.950862 4.48288 0.950862H12.212C12.3666 0.950862 12.5211 1.10544 12.5211 1.26003L16.3857 5.58832ZM113.309 32.3311C113.154 32.3311 112.999 32.1764 112.845 32.1764L109.135 27.6935C108.98 27.539 108.98 27.3844 108.98 27.2299V20.1191C108.98 19.8099 109.29 19.6553 109.444 19.8099H113.463C113.772 19.6553 113.927 19.9644 113.927 20.1191V25.3748C113.927 25.5294 113.927 25.684 114.082 25.8386L115.164 27.0752C115.318 27.2299 115.473 27.2299 115.627 27.2299H118.565C118.719 27.2299 118.874 27.0752 119.028 27.0752L120.11 25.8386C120.265 25.684 120.265 25.5294 120.265 25.3748V22.1286C120.265 21.974 120.11 21.6648 119.956 21.6648L109.135 13.472C108.98 13.3174 108.98 13.1628 108.98 13.0083V6.05207C108.98 5.89749 109.135 5.74292 109.135 5.58832L112.845 1.10544C112.999 1.10544 113.154 0.950862 113.309 0.950862H121.038C121.192 0.950862 121.347 1.10544 121.502 1.10544L125.211 5.58832C125.366 5.74292 125.366 5.89749 125.366 6.05207V12.2354C125.366 12.5445 125.057 12.6991 124.902 12.5445H120.883C120.574 12.6991 120.42 12.3899 120.42 12.2354V7.90706C120.42 7.75247 120.42 7.5979 120.265 7.44332L119.183 6.36123C119.028 6.20666 118.874 6.20666 118.719 6.20666H115.782C115.628 6.20666 115.473 6.36123 115.318 6.36123L114.236 7.5979C114.082 7.75247 114.082 7.90706 114.082 8.06164V10.6895C114.082 10.9987 114.236 11.1533 114.391 11.3079L125.211 19.5008C125.366 19.5008 125.366 19.6553 125.366 19.8099V27.2299C125.366 27.3844 125.366 27.539 125.211 27.6935L121.502 32.1764C121.347 32.3311 121.192 32.3311 121.038 32.3311H113.309ZM172.824 5.58832C172.978 5.74292 172.978 5.89749 172.978 6.05207V12.2354C172.978 12.5445 172.668 12.6991 172.514 12.5445H168.494C168.186 12.6991 168.031 12.3899 168.031 12.2354V7.90706C168.031 7.75247 168.031 7.5979 167.876 7.44332L166.795 6.20666C166.639 6.05207 166.485 6.05207 166.331 6.05207H163.703C163.548 6.05207 163.393 6.20666 163.239 6.20666L162.157 7.44332C162.003 7.5979 162.003 7.75247 162.003 7.90706V22.5923V24.1382V25.3748C162.003 25.5294 162.003 25.684 162.157 25.8386L163.083 27.0752C163.239 27.2299 163.393 27.2299 163.548 27.2299H166.176C166.331 27.2299 166.485 27.0752 166.639 27.0752L167.721 25.8386C167.876 25.684 167.876 25.5294 167.876 25.3748V20.1191C167.876 19.8099 168.186 19.6553 168.34 19.8099H172.359C172.668 19.6553 172.824 19.9644 172.824 20.1191V27.2299C172.824 27.3844 172.824 27.539 172.668 27.6935L168.958 32.1764C168.804 32.3311 168.65 32.3311 168.494 32.3311H161.229C161.074 32.3311 160.92 32.1764 160.766 32.1764L157.056 27.6935C156.9 27.539 156.9 27.3844 156.9 27.2299V24.1382V22.5923V6.05207C156.9 5.89749 157.056 5.74292 157.056 5.58832L160.766 1.10544C160.92 0.950862 161.074 0.950862 161.229 0.950862H168.494C168.65 0.950862 168.804 1.10544 168.958 1.10544L172.824 5.58832ZM70.3349 32.3311V6.05207C70.3349 5.89749 70.3349 5.74292 70.1802 5.58832L66.4703 1.10544C66.3158 1.10544 66.1611 0.950862 66.0066 0.950862H58.7412C58.5867 0.950862 58.432 1.10544 58.2774 1.10544L54.5674 5.58832C54.4129 5.74292 54.4129 5.89749 54.4129 6.05207V32.3311C54.4129 32.6402 54.7221 32.7947 54.8766 32.6402H58.8959C59.205 32.7947 59.3595 32.4856 59.3595 32.3311V24.602C59.3595 24.2927 59.6687 23.9835 59.9778 23.9835H64.6154C64.9245 23.9835 65.2337 24.2927 65.2337 24.602V32.3311C65.2337 32.6402 65.5428 32.7947 65.6975 32.6402H69.7166C70.1802 32.7947 70.3349 32.6402 70.3349 32.3311ZM65.2337 18.264C65.2337 18.5732 64.9245 18.8823 64.6154 18.8823H59.9778C59.6687 18.8823 59.3595 18.5732 59.3595 18.264V8.06164C59.3595 7.75247 59.5142 7.5979 59.6687 7.44332L60.4416 6.51582C60.5963 6.36123 60.9054 6.20666 61.2146 6.20666H63.5333C63.8424 6.20666 64.1516 6.36123 64.3062 6.51582L65.079 7.44332C65.2337 7.5979 65.3883 7.90706 65.3883 8.06164V18.264H65.2337ZM80.6918 32.7947C81.0011 32.9494 81.1556 32.6402 81.1556 32.4856V19.1915C81.1556 18.8823 81.4648 18.5732 81.7739 18.5732H85.793C85.9477 18.5732 86.1023 18.7278 86.2568 18.7278L87.3389 19.9644C87.4934 20.1191 87.4934 20.2736 87.4934 20.4282V32.4856C87.4934 32.7947 87.8027 32.9494 87.9572 32.7947H91.9763C92.2855 32.9494 92.4401 32.6402 92.4401 32.4856V18.5732C92.4401 18.4187 92.2855 18.264 92.2855 18.1095L90.4306 16.4091C90.1214 16.1 90.1214 15.7907 90.4306 15.4816L92.2855 13.7812C92.4401 13.6266 92.4401 13.472 92.4401 13.3174V6.05207C92.4401 5.89749 92.4401 5.74292 92.2855 5.58832L88.5755 1.10544C88.5755 1.10544 88.421 0.950862 88.2664 0.950862H76.8274C76.5182 0.950862 76.209 1.26003 76.209 1.56919V32.3311C76.209 32.6402 76.5182 32.7947 76.6727 32.6402L80.6918 32.7947ZM81.3103 6.6704C81.3103 6.36123 81.6194 6.05207 81.9286 6.05207H85.9477C86.1023 6.05207 86.2568 6.20666 86.4115 6.20666L87.4934 7.44332C87.6481 7.5979 87.6481 7.75247 87.6481 7.90706V11.4624C87.6481 11.617 87.6481 11.7716 87.4934 11.9262L86.4115 13.1628C86.2568 13.3174 86.1023 13.3174 85.793 13.3174H81.7739C81.4648 13.3174 81.1556 13.0083 81.1556 12.6991V6.6704H81.3103ZM98.9326 32.7947C98.6235 32.9494 98.4688 32.6402 98.4688 32.4856V0.950862C98.4688 0.641698 98.778 0.487116 98.9326 0.641698H102.952C103.261 0.487116 103.416 0.79628 103.416 0.950862V32.3311C103.416 32.6402 103.106 32.7947 102.952 32.6402L98.9326 32.7947ZM147.008 32.7947C146.698 32.9494 146.544 32.6402 146.544 32.4856V0.950862C146.544 0.641698 146.853 0.487116 147.008 0.641698H151.027C151.336 0.487116 151.49 0.79628 151.49 0.950862V32.3311C151.49 32.6402 151.181 32.7947 151.027 32.6402H147.008V32.7947ZM143.607 5.58832C143.761 5.89749 143.452 6.20666 143.143 6.20666H141.288H138.66C138.351 6.20666 138.042 6.51582 138.042 6.82499V32.4856C138.042 32.7947 137.733 32.9494 137.578 32.7947H133.559C133.25 32.9494 133.095 32.6402 133.095 32.4856V6.6704C133.095 6.36123 132.786 6.05207 132.477 6.05207H130.004H128.149C127.839 6.05207 127.685 5.74292 127.685 5.43375V1.56919C127.685 1.26003 127.839 0.950862 128.149 0.950862H130.004H141.443H143.298C143.607 0.950862 143.761 1.26003 143.761 1.56919V5.58832H143.607ZM190.29 1.26003C190.136 1.10544 189.982 1.10544 189.828 1.10544H182.562C182.406 1.10544 182.252 1.26003 182.098 1.26003L178.388 5.58832C178.388 5.74292 178.233 5.89749 178.233 6.05207V32.3311C178.233 32.6402 178.542 32.7947 178.697 32.6402H182.716C183.025 32.7947 183.18 32.4856 183.18 32.3311V24.602C183.18 24.2927 183.489 23.9835 183.799 23.9835H188.435C188.745 23.9835 189.054 24.2927 189.054 24.602V32.3311C189.054 32.6402 189.363 32.7947 189.518 32.6402H193.537C193.846 32.7947 194 32.4856 194 32.3311V6.05207C194 5.89749 193.846 5.74292 193.846 5.58832L190.29 1.26003ZM189.054 18.264C189.054 18.5732 188.745 18.8823 188.435 18.8823H183.799C183.489 18.8823 183.18 18.5732 183.18 18.264V8.06164C183.18 7.90706 183.335 7.5979 183.335 7.44332L184.261 6.36123C184.417 6.20666 184.571 6.20666 184.725 6.20666H187.353C187.509 6.20666 187.663 6.36123 187.817 6.36123L188.745 7.44332C188.899 7.5979 188.899 7.90706 188.899 8.06164V18.264H189.054Z" fill="black"/>
<path d="M81.4655 59.0727V60.0002H77.9102V55.6719H81.311V56.5994H79.1468V57.3723H81.1564V58.2998H79.1468V59.0727H81.4655Z" fill="black"/>
<path d="M83.1655 60.0018C82.8563 59.8473 82.5472 59.8473 82.3926 59.6927L82.8563 58.7652C83.0109 58.9198 83.3201 59.0743 83.4747 59.0743C83.7838 59.0743 83.9384 59.2289 84.2476 59.2289C84.7113 59.2289 85.0205 59.0743 85.0205 58.9198C85.0205 58.7652 85.0205 58.7652 84.8659 58.6106C84.7113 58.6106 84.5567 58.456 84.2476 58.456C83.9384 58.456 83.6292 58.3014 83.4747 58.3014C83.3201 58.1469 83.0109 58.1469 82.8563 57.9923C82.7017 57.8377 82.5472 57.5285 82.5472 57.2194C82.5472 56.9102 82.5472 56.7556 82.7017 56.4465C82.8563 56.2919 83.0109 56.1373 83.3201 55.9827C83.6292 55.8281 83.9384 55.8281 84.4021 55.8281C84.7113 55.8281 85.0205 55.8281 85.1751 55.9827C85.3296 56.1373 85.6388 56.1373 85.948 56.2919L85.6388 57.2194C85.1751 57.0648 84.8659 56.9102 84.4021 56.9102C84.093 56.9102 83.9384 56.9102 83.9384 57.0648C83.7838 57.0648 83.7838 57.2194 83.7838 57.374C83.7838 57.5285 83.7838 57.5285 83.9384 57.6831C84.093 57.6831 84.2476 57.8377 84.5567 57.8377C84.8659 57.8377 85.1751 57.9923 85.3296 57.9923C85.4842 58.1469 85.7934 58.1469 85.948 58.3014C86.1026 58.456 86.2571 58.7652 86.2571 59.0743C86.2571 59.3835 86.2571 59.5381 86.1026 59.8473C85.948 60.0018 85.7934 60.1564 85.4842 60.311C85.1751 60.4656 84.8659 60.4656 84.4021 60.4656C83.9384 60.0018 83.6292 60.0018 83.1655 60.0018Z" fill="black"/>
<path d="M88.2662 56.5994H86.875V55.6719H90.7396V56.5994H89.5029V60.0002H88.2662V56.5994Z" fill="black"/>
<path d="M91.8223 55.6719H93.8318C94.2956 55.6719 94.7593 55.8265 95.0685 55.981C95.3777 56.1356 95.6868 56.4448 95.996 56.7539C96.1506 57.0631 96.3051 57.5269 96.3051 57.836C96.3051 58.2998 96.1506 58.6089 95.996 58.9181C95.8414 59.2273 95.5322 59.5364 95.0685 59.691C94.7593 59.8456 94.2956 60.0002 93.8318 60.0002H91.8223V55.6719ZM93.8318 59.0727C94.141 59.0727 94.4501 58.9181 94.7593 58.7635C94.9139 58.6089 95.0685 58.2998 95.0685 57.836C95.0685 57.5269 94.9139 57.2177 94.7593 56.9085C94.4501 56.7539 94.141 56.5994 93.8318 56.5994H93.0589V58.9181H93.8318V59.0727Z" fill="black"/>
<path d="M103.106 59.0727V60.0002H99.7057V59.2273L101.251 57.6814C101.406 57.5269 101.561 57.3723 101.561 57.3723C101.561 57.2177 101.715 57.2177 101.715 57.0631C101.715 56.9085 101.715 56.7539 101.561 56.7539C101.406 56.7539 101.251 56.5994 101.097 56.5994C100.942 56.5994 100.788 56.5994 100.633 56.7539C100.479 56.7539 100.324 56.9085 100.324 57.0631L99.3965 56.5994C99.5511 56.2902 99.8602 56.1356 100.169 55.981C100.479 55.8265 100.788 55.6719 101.251 55.6719C101.561 55.6719 101.87 55.6719 102.179 55.8265C102.488 55.981 102.643 56.1356 102.797 56.2902C102.952 56.4448 102.952 56.7539 102.952 57.0631C102.952 57.3723 102.952 57.5269 102.797 57.6814C102.643 57.836 102.488 58.1452 102.179 58.4543L101.406 59.2273H103.106V59.0727Z" fill="black"/>
<path d="M104.963 59.8468C104.653 59.6923 104.499 59.3831 104.344 59.0739C104.19 58.7648 104.035 58.301 104.035 57.8373C104.035 57.3735 104.19 56.9098 104.344 56.6006C104.499 56.2915 104.808 55.9823 104.963 55.8277C105.272 55.6731 105.581 55.5186 105.89 55.5186C106.199 55.5186 106.508 55.6731 106.818 55.8277C107.127 55.9823 107.281 56.2915 107.436 56.6006C107.591 56.9098 107.745 57.3735 107.745 57.8373C107.745 58.301 107.591 58.7648 107.436 59.0739C107.281 59.3831 106.972 59.6923 106.818 59.8468C106.508 60.0014 106.199 60.156 105.89 60.156C105.581 60.0014 105.272 60.0014 104.963 59.8468ZM106.508 58.7648C106.663 58.6102 106.663 58.301 106.663 57.8373C106.663 57.3735 106.663 57.0644 106.508 56.9098C106.354 56.6006 106.199 56.6006 106.045 56.6006C105.89 56.6006 105.736 56.7552 105.581 56.9098C105.426 57.0644 105.426 57.3735 105.426 57.8373C105.426 58.301 105.426 58.6102 105.581 58.7648C105.736 58.9194 105.89 59.0739 106.045 59.0739C106.199 59.0739 106.354 58.9194 106.508 58.7648Z" fill="black"/>
<path d="M110.679 55.6719V60.0002H109.443V56.5994H108.67V55.6719H110.679Z" fill="black"/>
<path d="M116.092 59.0727H115.473V60.0002H114.237V59.0727H111.918V58.2998L113.928 55.6719H115.164L113.464 58.1452H114.237V57.3723H115.473V58.1452H116.092V59.0727Z" fill="black"/>
</svg>
