<svg width="120" height="113" viewBox="0 0 120 113" fill="none" xmlns="http://www.w3.org/2000/svg">
<mask id="mask0_241_1185" style="mask-type:luminance" maskUnits="userSpaceOnUse" x="0" y="0" width="120" height="113">
<path d="M119.579 0H0.527344V112.793H119.579V0Z" fill="white"/>
</mask>
<g mask="url(#mask0_241_1185)">
<path d="M119.373 107.946C119.357 105.376 119.237 102.636 118.681 100.105C118.441 99.0384 118.291 97.76 118.084 96.683C117.98 96.1299 117.924 95.5831 117.844 95.0355C117.774 94.4888 117.687 93.9439 117.54 93.3917C117.258 92.3248 116.783 91.3649 116.498 90.2733C116.429 89.9859 116.342 89.7039 116.264 89.4192C116.18 89.1233 116.127 88.9055 115.979 88.4394C115.845 88.0262 115.711 87.6103 115.577 87.1944C115.508 86.985 115.44 86.7756 115.373 86.5635L115.323 86.4043L115.314 86.3848C115.312 86.3792 115.317 86.3681 115.292 86.3736L115.194 86.3764L114.999 86.382L114.209 86.4043C113.226 86.4295 112.246 86.4546 111.279 86.4797C110.784 86.4909 110.296 86.502 109.807 86.5132C109.684 86.5161 109.559 86.5161 109.425 86.5188L109.234 86.5216H109.115L108.629 86.5244C107.398 86.5272 105.812 86.5691 104.685 86.5495C103.532 86.5244 102.482 86.5132 101.229 86.5216C99.3532 86.53 98.4237 86.5439 100.497 86.6081C99.1407 86.6612 97.7139 86.6695 96.2734 86.6668C94.8338 86.6668 93.3731 86.6584 91.9498 86.678C90.2191 86.6975 88.4771 86.7058 86.7464 86.7058C85.0157 86.7058 83.2934 86.6975 81.5933 86.6724C80.1474 86.6528 79.3238 86.583 77.6824 86.5886C75.9434 86.597 74.2712 86.6109 72.5322 86.597C70.6172 86.583 68.7273 86.5606 66.8347 86.5411C64.9421 86.5216 63.0438 86.4993 61.1121 86.4965C57.9298 86.4909 55.0294 86.396 51.8583 86.382C50.4765 86.3764 49.0417 86.3681 47.8524 86.301C46.828 86.2397 44.3715 86.2788 43.0958 86.2536C41.5297 86.2229 40.0782 86.1503 38.5205 86.1224C36.72 86.0917 34.9334 86.0583 33.144 86.0275C31.017 85.9884 28.8982 85.9354 26.7739 85.8908C25.7131 85.8684 24.6523 85.8432 23.5888 85.8209C22.528 85.7958 21.4673 85.7707 20.4037 85.7428C19.5243 85.7177 17.8886 85.673 15.94 85.6171C14.0055 85.5529 11.7416 85.4887 9.62289 85.433C8.5705 85.3994 7.54601 85.3715 6.60529 85.3548C6.13352 85.3464 5.68409 85.338 5.25978 85.3352C4.8606 85.3241 4.48654 85.3185 4.14318 85.3129C2.76697 85.2989 1.87927 85.3464 1.89602 85.4831C1.90719 85.6004 2.56878 85.7484 2.93446 85.8767C3.3169 86.0136 2.8898 86.1391 3.33923 86.2676C3.54301 86.3262 4.05943 86.3904 4.64844 86.4546C4.93876 86.4881 5.25978 86.5132 5.56684 86.5383C5.87391 86.5635 6.16981 86.5886 6.41825 86.6109C8.06803 86.7561 9.77645 86.9124 11.683 87.0213C12.9475 87.0967 14.1395 87.1636 14.7341 87.2837C14.8374 87.3033 14.963 87.3228 15.0998 87.3423C8.85802 87.2306 4.01198 87.0967 1.3461 86.9347L1.96581 87.0771C2.03001 87.3199 2.09142 87.5628 2.15842 87.8085C2.02164 87.5963 1.88486 87.3897 1.79273 87.1385C1.97419 87.7275 2.09422 88.3891 2.43478 88.872C3.021 91.2113 3.49834 93.5538 3.86961 95.8954C3.81658 96.1271 3.78308 96.3982 3.82215 96.7856C3.88636 97.3973 3.68817 97.3304 3.64629 97.7654C3.58488 98.2847 3.78308 99.2756 3.83611 99.8397C3.99802 101.208 4.34975 102.76 4.27717 104.092C4.05106 102.425 3.7747 100.761 3.4453 99.0997C3.34481 98.5832 3.20244 97.3359 2.92329 97.2856C2.68043 97.2407 2.6609 97.3634 2.50178 96.8469C2.43199 96.6152 2.3287 96.0383 2.18634 96.074C2.63298 99.1785 3.06008 102.185 3.27502 105.28C3.30852 105.802 3.34481 106.327 3.37831 106.855C3.40622 107.382 3.43414 107.91 3.46484 108.441C3.47322 108.705 3.48159 108.971 3.49276 109.236L3.50951 110.233L3.50671 111.249L3.50393 111.751L3.50114 112.002V112.128V112.159V112.175L3.52346 112.178L3.61 112.195L4.8606 112.055L5.4831 111.988L6.11677 111.927L7.37573 111.807C7.5851 111.788 7.79725 111.765 8.00103 111.749L8.58724 111.706L9.75969 111.623L10.3459 111.584C10.5413 111.57 10.7478 111.555 10.8931 111.547C11.5379 111.514 12.1799 111.48 12.8191 111.447C12.1938 111.494 11.5658 111.539 10.9321 111.586L10.6836 111.603L10.3906 111.629L9.7988 111.679C9.39957 111.712 8.9976 111.746 8.59841 111.782L7.98987 111.835C7.78329 111.852 7.5516 111.88 7.33386 111.905C6.88722 111.952 6.43779 111.999 5.98836 112.05C5.07275 112.145 4.18505 112.26 3.25827 112.369L3.16057 112.34C3.14662 112.321 3.15499 112.293 3.15219 112.268L3.14382 112.114L3.13265 111.807C3.12428 111.6 3.1187 111.391 3.11033 111.182C3.09637 110.755 3.08241 110.325 3.07124 109.895C3.05171 109.53 3.03496 109.161 3.01821 108.792L2.95959 107.845C2.89538 106.584 2.82 105.325 2.79488 104.094C2.75022 102.294 2.34545 100.633 2.05793 98.8735C1.71736 96.878 1.29027 94.8853 0.771048 92.8999C0.659387 92.9145 0.852001 93.9219 1.06416 95.008C1.27352 96.0932 1.48288 97.2608 1.50521 97.5896C1.53313 97.9779 1.58058 98.3689 1.65037 98.76C1.72016 99.1501 1.79273 99.5384 1.84577 99.9267C1.92394 100.46 1.98814 100.998 2.0356 101.537C2.08863 102.076 2.13051 102.617 2.16401 103.153C2.27288 104.561 2.33707 105.97 2.37337 107.379L2.3957 108.438L2.3985 109.585L2.37057 111.213L2.35104 112.022L2.34266 112.427L2.33987 112.628L2.33707 112.728C2.35104 112.753 2.38453 112.77 2.40687 112.79L3.86403 112.63L4.59261 112.553L5.33515 112.477L6.82023 112.326L7.56276 112.251C7.69117 112.237 7.79446 112.231 7.90612 112.223L8.23831 112.198L10.8791 111.999L12.7354 111.89C13.9218 111.818 15.1277 111.765 16.3225 111.704C17.5284 111.653 18.7288 111.597 19.9347 111.55C22.3493 111.458 24.7696 111.377 27.1898 111.304C32.0359 111.162 36.8987 111.053 41.7837 110.961C45.7003 110.889 49.6055 110.805 53.5387 110.752C55.3644 110.729 56.9304 110.749 58.7616 110.713C60.9362 110.668 63.63 110.612 65.7906 110.623C70.0393 110.651 74.8127 110.562 79.1033 110.534C83.7651 110.506 88.4436 110.489 93.1085 110.509C97.1168 110.526 101.125 110.553 105.125 110.607C107.125 110.632 109.12 110.668 111.108 110.71L112.682 110.749C113.417 110.766 114.148 110.791 114.89 110.825L117.112 110.92L119.317 111.025C119.332 111.014 119.357 111.009 119.359 110.992V110.942L119.362 110.844L119.365 110.643L119.37 110.244L119.382 109.445L119.393 108.65L119.373 107.946ZM55.3672 87.5712C56.1628 87.5824 56.9751 87.5936 57.7707 87.5824C59.6884 87.56 59.2641 87.5209 58.6695 87.4037C61.8965 87.3479 65.5032 87.4456 68.8138 87.4567C70.5669 87.4623 72.32 87.4707 74.0787 87.4763C75.466 87.4818 76.5155 87.3758 78.1402 87.3814C81.6547 87.3897 83.8545 87.2753 86.6404 87.0994C88.0166 87.0129 89.8646 86.9961 91.7516 87.0017C93.6359 87.0017 95.5618 87.024 97.1031 87.0269C96.0838 87.1748 93.5379 87.1441 91.8242 87.158C87.4638 87.1776 90.9086 87.2501 92.9912 87.2948C91.2994 87.3395 89.7472 87.3702 88.3962 87.4679C91.2519 87.4623 93.9903 87.4428 96.8018 87.4623C98.0436 87.4791 102.504 87.4456 103.758 87.4623C104.121 87.4679 104.776 87.4791 105.455 87.493C102.351 87.5433 98.6608 87.5851 94.5517 87.6187C93.3237 87.6187 91.9247 87.6326 91.023 87.6437C87.9775 87.6633 84.745 87.6801 81.3839 87.6913C81.6212 87.6745 81.6771 87.6493 81.4286 87.6214C80.9568 87.5684 79.7147 87.641 78.425 87.6549C78.6762 87.6745 78.961 87.6884 79.2513 87.6996C70.3687 87.7247 60.7017 87.7164 51.2497 87.6829C51.0348 87.6326 50.8282 87.5851 50.6133 87.535C52.1877 87.5014 53.8124 87.546 55.3672 87.5712ZM33.2724 87.5182C34.7101 87.4317 36.7563 87.5042 38.6126 87.5321L44.9576 87.6158C46.4931 87.6354 48.0255 87.6549 49.5608 87.6717C43.7015 87.6466 37.9538 87.6103 32.5551 87.5628C32.7728 87.5489 33.0073 87.535 33.2724 87.5182Z" fill="white"/>
<path d="M119.373 107.946C119.357 105.376 119.237 102.636 118.681 100.105C118.441 99.0384 118.291 97.76 118.084 96.683C117.98 96.1299 117.924 95.5831 117.844 95.0355C117.774 94.4888 117.687 93.9439 117.54 93.3917C117.258 92.3248 116.783 91.3649 116.498 90.2733C116.429 89.9859 116.342 89.7039 116.264 89.4192C116.18 89.1233 116.127 88.9055 115.979 88.4394C115.845 88.0262 115.711 87.6103 115.577 87.1944C115.508 86.985 115.44 86.7756 115.373 86.5635L115.323 86.4043L115.314 86.3848C115.312 86.3792 115.317 86.3681 115.292 86.3736L115.194 86.3764L114.999 86.382L114.209 86.4043C113.226 86.4295 112.246 86.4546 111.279 86.4797C110.784 86.4909 110.296 86.502 109.807 86.5132C109.684 86.5161 109.559 86.5161 109.425 86.5188L109.234 86.5216H109.115L108.629 86.5244C107.398 86.5272 105.812 86.5691 104.685 86.5495C103.532 86.5244 102.482 86.5132 101.229 86.5216C99.3532 86.53 98.4237 86.5439 100.497 86.6081C99.1407 86.6612 97.7139 86.6695 96.2734 86.6668C94.8338 86.6668 93.3731 86.6584 91.9498 86.678C90.2191 86.6975 88.4771 86.7058 86.7464 86.7058C85.0157 86.7058 83.2934 86.6975 81.5933 86.6724C80.1474 86.6528 79.3238 86.583 77.6824 86.5886C75.9434 86.597 74.2712 86.6109 72.5322 86.597C70.6172 86.583 68.7273 86.5606 66.8347 86.5411C64.9421 86.5216 63.0438 86.4993 61.1121 86.4965C57.9298 86.4909 55.0294 86.396 51.8583 86.382C50.4765 86.3764 49.0417 86.3681 47.8524 86.301C46.828 86.2397 44.3715 86.2788 43.0958 86.2536C41.5297 86.2229 40.0782 86.1503 38.5205 86.1224C36.72 86.0917 34.9334 86.0583 33.144 86.0275C31.017 85.9884 28.8982 85.9354 26.7739 85.8908C25.7131 85.8684 24.6523 85.8432 23.5888 85.8209C22.528 85.7958 21.4673 85.7707 20.4037 85.7428C19.5243 85.7177 17.8886 85.673 15.94 85.6171C14.0055 85.5529 11.7416 85.4887 9.62289 85.433C8.5705 85.3994 7.54601 85.3715 6.60529 85.3548C6.13352 85.3464 5.68409 85.338 5.25978 85.3352C4.8606 85.3241 4.48654 85.3185 4.14318 85.3129C2.76697 85.2989 1.87927 85.3464 1.89602 85.4831C1.90719 85.6004 2.56878 85.7484 2.93446 85.8767C3.3169 86.0136 2.8898 86.1391 3.33923 86.2676C3.54301 86.3262 4.05943 86.3904 4.64844 86.4546C4.93876 86.4881 5.25978 86.5132 5.56684 86.5383C5.87391 86.5635 6.16981 86.5886 6.41825 86.6109C8.06803 86.7561 9.77645 86.9124 11.683 87.0213C12.9475 87.0967 14.1395 87.1636 14.7341 87.2837C14.8374 87.3033 14.963 87.3228 15.0998 87.3423C8.85802 87.2306 4.01198 87.0967 1.3461 86.9347L1.96581 87.0771C2.03001 87.3199 2.09142 87.5628 2.15842 87.8085C2.02164 87.5963 1.88486 87.3897 1.79273 87.1385C1.97419 87.7275 2.09422 88.3891 2.43478 88.872C3.021 91.2113 3.49834 93.5538 3.86961 95.8954C3.81658 96.1271 3.78308 96.3982 3.82215 96.7856C3.88636 97.3973 3.68817 97.3304 3.64629 97.7654C3.58488 98.2847 3.78308 99.2756 3.83611 99.8397C3.99802 101.208 4.34975 102.76 4.27717 104.092C4.05106 102.425 3.7747 100.761 3.4453 99.0997C3.34481 98.5832 3.20244 97.3359 2.92329 97.2856C2.68043 97.2407 2.6609 97.3634 2.50178 96.8469C2.43199 96.6152 2.3287 96.0383 2.18634 96.074C2.63298 99.1785 3.06008 102.185 3.27502 105.28C3.30852 105.802 3.34481 106.327 3.37831 106.855C3.40622 107.382 3.43414 107.91 3.46484 108.441C3.47322 108.705 3.48159 108.971 3.49276 109.236L3.50951 110.233L3.50671 111.249L3.50393 111.751L3.50114 112.002V112.128V112.159V112.175L3.52346 112.178L3.61 112.195L4.8606 112.055L5.4831 111.988L6.11677 111.927L7.37573 111.807C7.5851 111.788 7.79725 111.765 8.00103 111.749L8.58724 111.706L9.75969 111.623L10.3459 111.584C10.5413 111.57 10.7478 111.555 10.8931 111.547C11.5379 111.514 12.1799 111.48 12.8191 111.447C12.1938 111.494 11.5658 111.539 10.9321 111.586L10.6836 111.603L10.3906 111.629L9.7988 111.679C9.39957 111.712 8.9976 111.746 8.59841 111.782L7.98987 111.835C7.78329 111.852 7.5516 111.88 7.33386 111.905C6.88722 111.952 6.43779 111.999 5.98836 112.05C5.07275 112.145 4.18505 112.26 3.25827 112.369L3.16057 112.34C3.14662 112.321 3.15499 112.293 3.15219 112.268L3.14382 112.114L3.13265 111.807C3.12428 111.6 3.1187 111.391 3.11033 111.182C3.09637 110.755 3.08241 110.325 3.07124 109.895C3.05171 109.53 3.03496 109.161 3.01821 108.792L2.95959 107.845C2.89538 106.584 2.82 105.325 2.79488 104.094C2.75022 102.294 2.34545 100.633 2.05793 98.8735C1.71736 96.878 1.29027 94.8853 0.771048 92.8999C0.659387 92.9145 0.852001 93.9219 1.06416 95.008C1.27352 96.0932 1.48288 97.2608 1.50521 97.5896C1.53313 97.9779 1.58058 98.3689 1.65037 98.76C1.72016 99.1501 1.79273 99.5384 1.84577 99.9267C1.92394 100.46 1.98814 100.998 2.0356 101.537C2.08863 102.076 2.13051 102.617 2.16401 103.153C2.27288 104.561 2.33707 105.97 2.37337 107.379L2.3957 108.438L2.3985 109.585L2.37057 111.213L2.35104 112.022L2.34266 112.427L2.33987 112.628L2.33707 112.728C2.35104 112.753 2.38453 112.77 2.40687 112.79L3.86403 112.63L4.59261 112.553L5.33515 112.477L6.82023 112.326L7.56276 112.251C7.69117 112.237 7.79446 112.231 7.90612 112.223L8.23831 112.198L10.8791 111.999L12.7354 111.89C13.9218 111.818 15.1277 111.765 16.3225 111.704C17.5284 111.653 18.7288 111.597 19.9347 111.55C22.3493 111.458 24.7696 111.377 27.1898 111.304C32.0359 111.162 36.8987 111.053 41.7837 110.961C45.7003 110.889 49.6055 110.805 53.5387 110.752C55.3644 110.729 56.9304 110.749 58.7616 110.713C60.9362 110.668 63.63 110.612 65.7906 110.623C70.0393 110.651 74.8127 110.562 79.1033 110.534C83.7651 110.506 88.4436 110.489 93.1085 110.509C97.1168 110.526 101.125 110.553 105.125 110.607C107.125 110.632 109.12 110.668 111.108 110.71L112.682 110.749C113.417 110.766 114.148 110.791 114.89 110.825L117.112 110.92L119.317 111.025C119.332 111.014 119.357 111.009 119.359 110.992V110.942L119.362 110.844L119.365 110.643L119.37 110.244L119.382 109.445L119.393 108.65L119.373 107.946ZM55.3672 87.5712C56.1628 87.5824 56.9751 87.5936 57.7707 87.5824C59.6884 87.56 59.2641 87.5209 58.6695 87.4037C61.8965 87.3479 65.5032 87.4456 68.8138 87.4567C70.5669 87.4623 72.32 87.4707 74.0787 87.4763C75.466 87.4818 76.5155 87.3758 78.1402 87.3814C81.6547 87.3897 83.8545 87.2753 86.6404 87.0994C88.0166 87.0129 89.8646 86.9961 91.7516 87.0017C93.6359 87.0017 95.5618 87.024 97.1031 87.0269C96.0838 87.1748 93.5379 87.1441 91.8242 87.158C87.4638 87.1776 90.9086 87.2501 92.9912 87.2948C91.2994 87.3395 89.7472 87.3702 88.3962 87.4679C91.2519 87.4623 93.9903 87.4428 96.8018 87.4623C98.0436 87.4791 102.504 87.4456 103.758 87.4623C104.121 87.4679 104.776 87.4791 105.455 87.493C102.351 87.5433 98.6608 87.5851 94.5517 87.6187C93.3237 87.6187 91.9247 87.6326 91.023 87.6437C87.9775 87.6633 84.745 87.6801 81.3839 87.6913C81.6212 87.6745 81.6771 87.6493 81.4286 87.6214C80.9568 87.5684 79.7147 87.641 78.425 87.6549C78.6762 87.6745 78.961 87.6884 79.2513 87.6996C70.3687 87.7247 60.7017 87.7164 51.2497 87.6829C51.0348 87.6326 50.8282 87.5851 50.6133 87.535C52.1877 87.5014 53.8124 87.546 55.3672 87.5712ZM33.2724 87.5182C34.7101 87.4317 36.7563 87.5042 38.6126 87.5321L44.9576 87.6158C46.4931 87.6354 48.0255 87.6549 49.5608 87.6717C43.7015 87.6466 37.9538 87.6103 32.5551 87.5628C32.7728 87.5489 33.0073 87.535 33.2724 87.5182Z" fill="white"/>
<path d="M58.5345 78.3779C58.5038 78.484 58.4228 78.5509 58.3419 78.618C58.4926 78.6012 58.5736 78.6793 58.4898 78.8776C58.7075 78.8217 58.889 78.7213 58.6154 78.35C58.5819 78.3639 58.5568 78.3751 58.5345 78.3779ZM29.4303 106.273C29.567 106.176 29.7178 106.062 29.8769 105.938C29.7122 106.036 29.5475 106.134 29.3939 106.223C29.408 106.24 29.4107 106.251 29.4303 106.273ZM24.5396 103.948C24.788 103.996 24.9192 103.811 25.1258 103.778C24.7852 103.476 24.4027 103.669 24.5396 103.948ZM29.274 106.223C29.2544 106.19 29.2209 106.145 29.1734 106.092C28.9502 106.075 28.8804 106.281 28.9669 106.566C28.9725 106.321 29.3214 106.427 29.2907 106.279C29.2293 106.315 29.1678 106.352 29.1121 106.382L29.274 106.223ZM99.7843 37.421C99.8878 37.287 100.147 37.2284 100.035 36.9911C99.69 36.6114 99.7092 37.2423 99.7843 37.421ZM100.684 36.8125C100.697 36.4049 101.467 36.8795 100.985 36.1341C100.901 36.3658 100.317 36.3575 100.684 36.8125ZM108.687 27.9327C108.879 28.2817 103.28 32.9574 103.877 33.3594C103.603 33.0551 109.275 28.209 108.687 27.9327ZM31.1219 101.734C31.1414 101.745 31.1638 101.756 31.1833 101.774C31.1777 101.729 31.1555 101.721 31.1219 101.734ZM20.2239 102.049C20.1513 102.287 20.1876 102.661 19.8945 102.627C20.3105 103.044 20.5254 102.477 20.4472 102.276C20.383 102.299 20.3021 102.172 20.2239 102.049ZM20.1764 100.944C20.1569 101.352 19.1185 101.341 19.6656 102.169C19.7521 101.668 20.3216 101.62 20.5896 101.221C20.6035 101.21 20.6147 101.19 20.6231 101.168C20.612 101.187 20.6008 101.204 20.5896 101.221C20.4975 101.304 20.2881 101.176 20.1764 100.944ZM16.7625 97.3799C16.8993 96.846 17.8232 96.9779 17.6362 96.5172C17.3068 96.7846 16.6341 96.835 16.7625 97.3799ZM13.2647 94.3368C13.3233 94.1444 13.7699 94.1417 13.5801 93.823C13.5215 94.0162 13.0749 94.0162 13.2647 94.3368ZM15.7017 97.9797C15.7938 97.4632 16.8797 97.9239 16.5001 97.1922C16.3633 97.6418 15.6012 97.433 15.7017 97.9797ZM11.8438 90.0436C12.0951 89.8035 12.9548 89.675 12.832 89.1447C12.5529 89.368 11.8885 89.4685 11.8438 90.0436ZM10.4229 91.1155C10.6993 90.5097 11.922 90.7945 11.5814 89.8593C11.266 90.2753 10.356 90.6884 10.4229 91.1155ZM14.8224 94.834C15.0429 94.7754 15.5816 94.7672 15.4756 94.4293C15.0652 94.2974 14.9563 94.7333 14.8224 94.834ZM19.8722 98.7527C19.6935 98.8507 19.085 98.6748 19.2748 99.1355C19.3278 98.901 19.9113 99.0576 19.8722 98.7527ZM9.76138 87.0566C9.03837 87.3665 10.0098 87.6428 9.76138 87.0566V87.0566ZM105.284 16.8309C105.063 16.8896 104.524 16.8979 104.631 17.2357C105.041 17.3669 105.153 16.9342 105.284 16.8309ZM11.1571 86.8668C11.1124 86.9618 10.9422 87.2688 11.1404 87.3023C11.2799 87.1627 11.1041 87.0231 11.4503 87.2353C11.386 87.1655 11.3246 87.0985 11.3776 87.0873L11.1571 86.8668ZM104.17 17.6795C103.93 17.3948 104.577 17.4841 104.444 17.1994C104.271 17.1491 103.662 17.4172 104.17 17.6795ZM15.9361 93.9851C16.1763 94.2699 15.5314 94.1802 15.6626 94.465C15.8357 94.5181 16.4442 94.2479 15.9361 93.9851ZM17.2705 95.5483C17.2482 95.7049 16.8546 95.6793 17.0779 95.9586C17.1505 95.9339 17.5888 96.1015 17.3793 95.8835C17.0248 95.8606 17.625 95.5703 17.2705 95.5483ZM100.061 17.5567C100.391 17.2859 101.063 17.2385 100.935 16.6942C100.798 17.2273 99.874 17.0961 100.061 17.5567ZM24.6485 100.361C24.2799 99.9981 23.7942 99.9844 23.9869 100.377C24.1599 100.272 24.3665 100.238 24.6485 100.361ZM106.841 17.3306C106.78 17.526 106.336 17.526 106.526 17.8442C106.585 17.6516 107.031 17.6516 106.841 17.3306ZM110.345 24.6108C110.096 24.0246 111.068 24.3009 110.345 24.6108V24.6108ZM108.949 24.7978C108.993 24.703 109.164 24.3959 108.966 24.3624C108.826 24.5019 109.002 24.6415 108.655 24.4294C108.72 24.4992 108.782 24.5661 108.729 24.5773L108.949 24.7978ZM101.998 16.0968C101.906 16.6104 100.817 16.1526 101.2 16.884C101.334 16.4317 102.098 16.6411 101.998 16.0968ZM107.209 19.5889C107.219 19.6447 107.215 19.7033 107.209 19.7704C107.246 19.7509 107.254 19.7006 107.209 19.5889ZM30.893 101.709C30.4687 101.826 29.9467 102.633 29.8546 102.656C29.849 102.65 29.8434 102.647 29.8378 102.639C29.8378 102.656 29.8434 102.658 29.8546 102.656C30.1086 102.988 30.8958 101.826 31.1219 101.734C31.0801 101.709 31.0354 101.695 30.988 101.695C30.9042 101.743 30.8651 101.759 30.893 101.709ZM12.8935 92.0784C12.885 92.0253 12.8879 91.964 12.8935 91.8971C12.8599 91.9163 12.8488 91.9667 12.8935 92.0784ZM13.0163 27.8043C11.8354 26.5453 10.4174 24.4796 9.85626 24.5634C9.9624 24.6471 11.6288 26.3331 13.0163 27.8043ZM110.493 86.4313C110.395 86.2946 110.28 86.1439 110.157 85.9847C110.255 86.1522 110.353 86.3141 110.442 86.4676C110.46 86.4537 110.473 86.4509 110.493 86.4313ZM108.167 91.3221C108.218 91.0736 108.031 90.9424 107.997 90.7359C107.698 91.0764 107.888 91.4588 108.167 91.3221ZM110.498 86.5682C110.535 86.6295 110.57 86.691 110.602 86.7468L110.442 86.5849C110.409 86.6044 110.364 86.6379 110.311 86.6854C110.295 86.9087 110.501 86.9785 110.786 86.892C110.54 86.8891 110.646 86.5374 110.498 86.5682ZM61.9512 78.2802C61.714 78.1434 61.5632 78.1211 61.5241 78.1769C61.7055 78.3583 61.8871 78.537 62.0685 78.7184C61.9484 78.5677 61.8926 78.4225 61.9512 78.2802ZM9.7949 24.9262C9.81166 24.7057 9.60504 24.6332 9.32031 24.7197C9.63296 24.728 9.36777 25.3059 9.7949 24.9262ZM106.495 95.4119C106.517 95.4787 106.394 95.5593 106.269 95.6381C106.503 95.7104 106.881 95.6738 106.847 95.9669C107.26 95.5483 106.697 95.3331 106.495 95.4119ZM105.44 95.269C105.523 95.3615 105.398 95.5703 105.166 95.682C105.574 95.7022 105.563 96.7407 106.392 96.1931C105.887 96.107 105.839 95.5401 105.44 95.269C105.426 95.2553 105.409 95.2443 105.387 95.2361C105.404 95.247 105.42 95.258 105.44 95.269ZM101.598 99.0988C101.065 98.9624 101.197 98.0384 100.737 98.2252C101.007 98.5549 101.054 99.228 101.598 99.0988ZM98.0425 102.278C98.2348 102.34 98.2348 102.787 98.5562 102.594C98.3612 102.536 98.3612 102.089 98.0425 102.278ZM101.412 99.3617C101.861 99.4981 101.652 100.26 102.199 100.16C101.683 100.068 102.141 98.9789 101.412 99.3617ZM93.3665 103.027C93.5872 103.306 93.6907 103.971 94.2658 104.015C94.0258 103.767 93.894 102.907 93.3665 103.027ZM94.0789 104.28C94.4947 104.598 94.9105 105.506 95.3345 105.439C94.7264 105.162 95.014 103.94 94.0789 104.28ZM98.6515 100.386C98.5196 100.794 98.9528 100.906 99.0562 101.039C98.9949 100.821 98.9857 100.28 98.6515 100.386ZM102.972 95.9897C103.07 96.1683 102.894 96.7764 103.355 96.5868C103.123 96.5337 103.276 95.9476 102.972 95.9897ZM91.2759 106.1C91.5858 106.823 91.8621 105.852 91.2759 106.1V106.1ZM11.9387 20.2924C11.8885 20.5408 12.0755 20.672 12.109 20.8785C12.4077 20.5381 12.2179 20.1584 11.9387 20.2924ZM17.1337 15.6278C17.036 15.4491 17.2119 14.8406 16.7485 15.0304C16.9857 15.0806 16.8294 15.6668 17.1337 15.6278ZM21.4578 11.2284C21.5889 10.8209 21.1563 10.7091 21.053 10.5752C21.1116 10.7957 21.1199 11.3344 21.4578 11.2284ZM91.3094 104.481C91.2368 104.554 91.1614 104.629 91.0889 104.702C91.181 104.749 91.4909 104.917 91.5244 104.721C91.3848 104.582 91.2452 104.757 91.4574 104.411C91.3848 104.475 91.3206 104.534 91.3094 104.481ZM84.9337 102.038C85.2379 101.765 85.2658 102.622 85.5449 102.03C85.196 102.223 85.3384 101.441 84.9337 102.038ZM81.4834 98.8479C81.8909 98.8616 81.4163 99.6327 82.1617 99.1492C81.93 99.0631 81.9356 98.4825 81.4834 98.8479ZM80.872 97.9459C81.0061 98.0493 81.0647 98.3094 81.3019 98.195C81.6815 97.8543 81.0506 97.8708 80.872 97.9459ZM15.2885 27.634C15.0792 27.634 15.1434 27.0729 14.7107 27.5335C15.0512 27.5 14.8307 27.9076 15.2885 27.634ZM98.2073 99.9258C98.4921 99.6858 98.4024 100.333 98.6899 100.199C98.7375 100.026 98.4692 99.4148 98.2073 99.9258ZM100.103 98.4825C100.08 98.8369 99.7898 98.2362 99.7678 98.5915C99.9244 98.6135 99.8988 99.0072 100.178 98.7838C100.153 98.7114 100.32 98.2728 100.103 98.4825ZM104.599 91.8724C104.493 91.702 104.46 91.4952 104.583 91.2104C104.218 91.5789 104.203 92.0647 104.599 91.8724ZM96.1495 97.1674C96.0854 97.2544 96.0552 97.3433 95.9655 97.3268C95.9655 97.1922 95.6193 97.2316 95.8592 96.9806C95.9123 97.0053 95.9352 97.0841 96.0296 97.0255C96.069 97.064 96.1083 97.1143 96.1495 97.1674ZM104.407 16.1526C102.83 17.7131 100.524 20.1221 100.186 19.8737C100.505 19.4828 102.615 17.7214 104.407 16.1526ZM96.8062 30.1743L97.4087 29.7277L96.5882 30.8554L96.8062 30.1743ZM94.9636 31.3188C96.2228 30.4032 95.2008 31.852 96.1614 31.3243C96.2338 31.2769 96.3089 31.2322 96.362 31.2015C96.2869 31.2518 96.2201 31.2909 96.1614 31.3243C96.0442 31.3997 95.9325 31.4863 95.9041 31.5728L96.2365 31.9413C95.9041 31.905 94.687 34.2555 93.6623 34.6044C94.2181 34.2945 95.0781 32.7006 96.0048 31.9581L95.9041 31.5728C95.72 31.7877 95.536 31.9999 95.4911 32.1367L95.7118 31.4556C94.7429 31.9999 93.8326 33.3957 93.1375 33.7865C93.2245 33.5157 93.1769 33.3203 93.1238 33.1305L95.0552 31.3802L94.9636 31.3188ZM95.5808 3.36751C95.22 3.58246 90.0561 8.62949 89.7071 8.86398C89.9779 8.50667 94.8354 3.0772 95.5808 3.36751ZM89.5787 36.8851C89.6541 36.8069 89.7099 36.7678 89.7545 36.7538C90.7344 36.0002 91.6975 35.1599 92.3536 34.4452L90.6618 36.5054C89.9472 37.2201 89.9779 36.6868 89.7545 36.7566C89.6959 36.7985 89.6373 36.8404 89.5787 36.8851C89.5006 36.9688 89.4029 37.0916 89.2716 37.2814C89.2242 37.4182 89.3219 37.4713 89.4615 37.3959C89.5145 37.9207 88.8613 37.8425 88.5012 38.5991L88.021 37.9793C88.5095 37.6694 89.0428 37.2926 89.5787 36.8851ZM87.6163 38.9927L87.6135 38.8753C87.633 38.9033 87.6303 38.9451 87.6163 38.9927L87.6274 39.5342C86.6867 40.26 87.5214 39.3751 87.6163 38.9927ZM86.9408 40.2572C86.201 40.782 86.0279 41.3208 85.6455 41.0891C86.014 40.6619 86.7007 39.9418 86.9408 40.2572ZM83.1611 45.9267L84.1744 45.2512L83.1136 46.0663L83.1611 45.9267ZM28.1099 36.7957L29.2181 38.1775C28.5566 38.1859 28.1462 37.2563 28.1099 36.7957ZM29.8127 10.6087C29.4219 10.2904 27.6605 8.18006 26.0916 6.38791C27.6521 7.96511 30.0612 10.2709 29.8127 10.6087ZM25.1816 97.5109C25.5417 97.2956 25.8879 97.0667 26.2368 96.8295C25.966 97.1894 25.9241 97.8012 25.1816 97.5109ZM29.5503 62.5584L29.6397 62.2877C29.0339 62.3994 30.0946 61.2548 30.2286 60.8473C30.2789 61.0371 30.5971 60.7496 30.8762 60.5932C31.3955 60.7524 30.1477 61.7824 29.5503 62.5584ZM35.1026 94.8285C35.097 94.4988 35.6051 93.9906 35.5995 93.6582L36.1577 93.6811C35.7893 94.1106 35.5688 94.7864 35.1026 94.8285ZM92.5487 64.7889C92.4397 64.9647 92.6769 65.2132 92.9058 65.4393C93.0038 65.5174 93.0844 65.604 93.1577 65.7017C93.0908 65.6207 93.0011 65.5342 92.9058 65.4393C92.5322 65.1434 91.9906 64.9396 91.4602 64.4287L91.6165 63.9152C91.1308 63.6444 91.382 64.292 90.3742 63.2843C90.0226 62.2598 92.3591 64.0463 91.0973 62.3854C92.6128 63.8984 90.6646 63.6053 92.5487 64.7889ZM89.816 61.2883C90.0505 61.7043 91.0359 62.4775 90.4357 62.3993L89.6792 61.2436L89.816 61.2883ZM89.4447 61.6205C90.2794 62.9102 89.3275 61.8076 89.4029 62.7399C89.3833 62.5027 88.5877 61.6763 88.102 61.4055C87.9875 60.8026 89.3275 61.8076 89.4447 61.6205ZM88.0629 62.5306C87.5772 62.2569 87.8089 62.6729 87.6916 62.8599C87.245 62.2654 88.0629 62.5306 87.0719 61.749C87.4767 61.8829 87.8871 62.0169 88.0629 62.5306ZM80.8972 54.29L79.7722 53.4694L80.297 53.4163L80.8972 54.29ZM62.6602 69.928C62.5961 69.8331 62.4956 69.794 62.3895 69.7912C62.2443 69.6209 62.1187 69.3948 61.8815 69.0849C61.9094 69.0543 61.9345 69.0236 61.9624 68.9957C62.1857 69.1492 62.4677 69.3865 62.6826 69.6293C62.691 69.7326 62.7189 69.8499 62.6602 69.928ZM41.7436 52.1043C41.7129 52.068 41.6989 52.0233 41.7742 51.9341C41.7966 51.948 41.8134 51.9619 41.8357 51.9731C41.8078 52.015 41.7771 52.0596 41.7436 52.1043ZM40.2418 48.9471C40.4595 48.7852 40.6354 48.5703 40.8363 48.4167C40.9731 48.4335 41.1294 48.4753 41.3332 48.5759C41.1071 48.802 40.8782 49.0308 40.6493 49.2598C40.5153 49.1565 40.3785 49.0532 40.2418 48.9471ZM48.351 28.7032C48.6218 28.7897 49.1076 29.0604 49.6101 28.773L49.4174 29.6188L48.351 28.7032ZM56.9182 35.6735L57.1666 36.1146L56.773 35.8076C56.8232 35.7629 56.8707 35.7182 56.9182 35.6735ZM56.5859 67.5776L56.5441 67.5999C56.5078 67.5636 56.4743 67.5274 56.438 67.491L56.4967 67.4212C56.5329 67.4576 56.5692 67.4939 56.6055 67.5329L56.5859 67.5776ZM42.6061 50.181C42.6592 50.2367 42.715 50.2899 42.7681 50.3429C42.7625 50.3456 42.7597 50.3512 42.7541 50.354C42.6983 50.2954 42.648 50.2367 42.6061 50.181ZM82.0919 38.412C82.0053 38.6828 81.7346 39.1685 82.0249 39.671L81.179 39.4784L82.0919 38.412ZM81.0506 40.2153C80.4198 41.4603 79.1692 42.1582 78.1168 43.3054C78.7114 42.5267 80.1379 41.2817 81.0506 40.2153ZM73.9994 18.1709L72.6176 19.279C72.6091 18.6175 73.5387 18.2071 73.9994 18.1709ZM67.2216 24.3093C66.412 26.4281 64.6925 26.8329 63.1348 29.147L63.2744 29.0689C61.7531 30.5818 62.825 30.4283 62.0964 31.6147C62.0378 31.6566 61.9848 31.6929 61.9345 31.7235C61.8173 31.6063 61.6972 31.4863 61.5772 31.369C61.6693 31.0843 61.7167 30.8359 61.2785 31.0704C61.2757 31.0676 61.2701 31.062 61.2673 31.0592C63.0511 28.7339 64.8767 26.283 67.2216 24.3093ZM56.0053 27.6814L55.8658 27.6368L55.1902 26.6235L56.0053 27.6814ZM53.2445 32.6782C52.4657 32.0837 51.2207 30.6572 50.1544 29.7444C51.3994 30.3752 52.0972 31.6258 53.2445 32.6782ZM50.1963 23.8543C50.721 24.5941 51.2598 24.7671 51.0281 25.1496C50.601 24.7811 49.8836 24.0944 50.1963 23.8543ZM48.9345 23.176L49.476 23.1648C50.2018 24.1083 49.3141 23.2709 48.9345 23.176L48.8173 23.1788C48.8452 23.1621 48.887 23.1648 48.9345 23.176ZM46.6929 21.0405C46.7376 21.0992 46.7795 21.1578 46.8242 21.2164C46.9079 21.2945 47.0307 21.3922 47.2205 21.5234C47.3573 21.5709 47.4103 21.4732 47.335 21.3336C47.8597 21.2806 47.7816 21.9338 48.538 22.2939L47.9183 22.774C47.6085 22.2855 47.2288 21.7523 46.8242 21.2164C46.7487 21.141 46.7068 21.0851 46.6929 21.0405C45.9392 20.0607 45.099 19.1004 44.3843 18.4416L46.4445 20.136C47.1591 20.8479 46.6259 20.8172 46.6929 21.0405ZM41.2634 14.634C41.216 14.5614 41.1741 14.486 41.1406 14.433C41.1909 14.5084 41.2299 14.5754 41.2634 14.634C41.3388 14.7512 41.4282 14.8629 41.5119 14.8908L41.8804 14.5586C41.844 14.8908 44.1945 16.108 44.5462 17.1324C44.2364 16.5769 42.6424 15.7171 41.8999 14.7903L41.5147 14.8908C41.7296 15.075 41.9446 15.2593 42.0786 15.3067L41.3974 15.0835C41.9417 16.0521 43.3375 16.9621 43.7283 17.6572C43.4575 17.5706 43.2621 17.6181 43.0724 17.6712L41.6319 16.08L41.6487 16.0744C41.5537 16.0018 41.498 15.8483 41.3862 15.8064L41.322 15.7366L41.283 15.8009C41.2718 15.8036 41.2634 15.8065 41.2522 15.8092C41.0234 15.4938 40.9508 15.3263 40.9564 15.2342C40.9815 15.2174 41.0094 15.1979 41.0402 15.1728C41.0206 15.1728 41.001 15.17 40.9843 15.1644C41.1071 15.0415 41.6096 15.262 41.2634 14.634ZM40.7917 14.2069L40.1134 13.9864L39.6667 13.3862L40.7917 14.2069ZM34.2484 43.5735C36.3672 44.383 36.7719 46.1026 39.0861 47.6603L39.0079 47.5206C39.8063 48.3218 40.1412 48.4028 40.4539 48.4084C40.292 48.5675 40.1608 48.7014 40.0631 48.8103C38.028 47.2471 35.9596 45.6057 34.2484 43.5735ZM38.6059 54.4492L39.2396 53.8183C39.1252 54.1644 38.8572 54.2845 38.6059 54.4492L38.2235 54.8316C38.3212 54.6529 38.4608 54.544 38.6059 54.4492ZM37.7824 87.3219L37.7294 86.7943L36.8557 87.7266C36.8445 87.0651 38.003 86.3057 38.2347 86.289C38.1007 86.6993 37.8717 87.0483 37.7824 87.3219ZM38.3826 86.8752C38.7009 86.2527 38.832 85.8452 39.5271 85.4543L38.3826 86.8752ZM39.9626 52.2997C40.3255 52.1936 40.5879 51.9563 40.814 51.6548C40.8838 51.761 40.9424 51.8558 40.987 51.9396C40.7387 52.1824 40.5041 52.4253 40.2948 52.671C39.9235 52.7687 40.1524 52.4198 39.9626 52.2997ZM41.1545 52.336C41.2719 52.3834 41.4086 52.3834 41.5789 52.3165C41.2914 52.6626 40.9033 53.0255 40.6242 53.0478C40.7526 52.6681 40.9061 52.5118 41.1545 52.336ZM41.5342 88.6729C41.7659 88.3213 41.5258 88.3435 41.4365 88.2849L42.5503 87.9946C42.2711 88.1453 41.9027 88.2459 41.5342 88.6729ZM42.2014 86.6295L41.2634 86.3783C41.7129 85.3455 42.0953 85.9122 42.8658 84.5918L42.7848 85.1919C43.5608 84.2037 44.4876 83.799 44.5406 83.9916C43.7143 85.1166 42.8769 85.2505 42.2014 86.6295ZM42.4303 83.4974C42.7039 83.4277 43.2509 83.0816 43.6501 82.6545L43.9991 82.1772C43.9153 82.3418 43.7925 82.5037 43.6501 82.6545L42.7625 83.8715L42.4303 83.4974ZM46.0062 82.6098C45.8303 82.5009 45.5819 82.7382 45.3558 82.9671C45.2804 83.0648 45.191 83.1458 45.0962 83.2183C45.1771 83.1514 45.2637 83.062 45.3558 82.9671C45.6517 82.593 45.8554 82.0543 46.3663 81.5211L46.8799 81.6774C47.1507 81.1917 46.5031 81.443 47.5108 80.4352C48.5353 80.0835 46.7487 82.4199 48.4096 81.1583C46.8939 82.6712 47.1898 80.7227 46.0062 82.6098ZM47.9379 77.7526C48.5325 77.3059 48.2673 78.1239 49.0461 77.1328C48.9121 77.5376 48.7782 77.948 48.2645 78.1238C48.538 77.6382 48.1222 77.8699 47.9379 77.7526ZM49.5068 79.8769C49.0908 80.1086 48.3175 81.0968 48.3957 80.4966L49.5514 79.7402L49.5068 79.8769ZM49.1745 79.5056C47.8849 80.3403 48.9875 79.3884 48.0551 79.4638C48.2924 79.4443 49.1187 78.6487 49.3895 78.1629C49.9925 78.0484 48.9875 79.3884 49.1745 79.5056ZM56.3543 70.3746C55.849 70.8799 55.1037 71.0753 54.7771 71.0307L54.1379 71.9491C54.2942 71.8598 54.4253 71.9631 54.6013 71.9184C54.8022 71.7816 54.9781 71.6225 55.1092 71.4047C54.8943 71.7648 54.7352 71.8849 54.6013 71.9184C54.0373 72.3064 53.2613 72.5297 52.6248 73.462L52.8202 73.9059C52.4434 73.6742 51.2849 74.4307 50.6959 75.2039L51.8544 74.7796C51.1649 75.4971 50.0567 76.1224 49.6882 76.5467C48.7921 75.8265 52.2089 73.6938 51.4133 73.3588C50.7182 73.7496 49.6184 75.0308 49.1578 75.3994C49.0824 75.6366 49.007 75.98 49.0573 76.1335C49.1857 76.0833 49.3057 76.0498 49.4035 76.0414C49.1913 76.2535 49.0908 76.2424 49.0573 76.1335C48.2785 76.4378 47.0167 77.4539 45.9922 78.5063L46.09 78.5621C44.3843 79.9634 42.8797 82.1381 41.4589 83.7125L41.0792 83.1458C42.3158 81.7863 43.0863 80.4659 44.1973 79.8462C44.4206 79.4973 44.1889 79.5141 43.96 79.5336C45.3167 77.1077 46.129 78.0987 47.6336 75.9242L47.5359 75.8683C48.9457 73.6351 50.0343 74.4726 51.8684 72.6665C52.2312 71.9072 50.8019 73.1522 51.4915 72.432C51.8209 72.4711 52.502 71.4215 53.1441 70.8409C53.6605 70.9943 53.1692 72.1584 53.7721 72.044L54.1267 70.9552C55.0618 70.8771 54.671 69.9839 55.6453 69.7717L55.3689 69.4926C55.3047 69.4731 55.2516 69.4284 55.221 69.3418L55.3689 69.4926C55.7848 69.6154 56.7367 68.5239 56.6557 68.764L55.8295 69.5595C55.6034 70.2379 56.8093 69.674 56.3543 70.3746ZM56.505 70.9581L57.3257 69.8331L57.3787 70.3579L56.505 70.9581ZM61.2562 69.7466C61.3539 69.6489 61.4488 69.5512 61.5437 69.4507C61.7028 69.6209 61.8591 69.7884 62.0182 69.9448C61.9316 70.0369 61.8926 70.1625 61.9484 70.3021C61.7642 70.0899 61.5241 69.9141 61.2562 69.7466ZM62.2416 70.8324C62.1913 70.6594 62.1076 70.5086 62.0043 70.3746C62.0546 70.2657 62.1355 70.1988 62.2304 70.1541C62.3588 70.2769 62.4872 70.3914 62.6128 70.503C62.7078 70.8715 62.3616 70.6427 62.2416 70.8324ZM62.6379 70.009C62.7329 69.9699 62.8082 69.9168 62.8306 69.8164C62.9171 69.942 62.9757 70.062 62.9841 70.1681C62.8418 70.1206 62.73 70.0676 62.6379 70.009ZM64.3882 72.1892L63.7574 71.5554C64.1035 71.6699 64.2235 71.9379 64.3882 72.1892L64.7678 72.5716C64.592 72.4739 64.4831 72.3343 64.3882 72.1892ZM70.7864 80.5636C70.9761 80.5134 70.6914 80.1951 70.5351 79.916C70.6942 79.3996 71.7215 80.6473 72.4975 81.242L72.2267 81.1527C72.3384 81.7584 71.1967 80.6976 70.7864 80.5636ZM77.0448 54.022C77.056 54.0109 77.0672 53.9997 77.0812 53.9858L77.5194 54.2063L77.7512 54.625L77.0448 54.022ZM93.0844 69.7187C91.7254 68.482 90.405 67.7115 89.7853 66.6005C89.4363 66.3772 89.4531 66.6089 89.4726 66.8378C87.0468 65.4811 88.0378 64.6688 85.8632 63.1642L85.8074 63.2619C83.5742 61.8522 84.4117 60.7635 82.6056 58.9295C81.8463 58.5666 83.0913 59.9959 82.371 59.3064C82.4074 58.9797 81.3605 58.2958 80.7798 57.6538C80.9334 57.1374 82.0975 57.6287 81.983 57.0257L80.8943 56.6712C80.8162 55.736 79.923 56.1269 79.7108 55.1526L79.4316 55.429C79.412 55.4932 79.3674 55.5462 79.2809 55.5769L79.4316 55.429C79.5544 55.013 78.4658 54.0611 78.703 54.1421L79.4986 54.9684C80.1769 55.1889 79.6131 53.9829 80.3165 54.438C80.8218 54.9432 81.0172 55.6913 80.9725 56.0151L81.8909 56.6545C81.8016 56.4981 81.9049 56.3669 81.8602 56.1911C81.7234 55.9901 81.5643 55.8142 81.3465 55.683C81.7067 55.8979 81.8267 56.0571 81.8602 56.1911C82.2482 56.7549 82.4716 57.531 83.4039 58.1674L83.8477 57.972C83.616 58.3517 84.3726 59.5074 85.1459 60.0963L84.7215 58.9379C85.4389 59.6246 86.0642 60.7384 86.4885 61.1041C85.7683 62.0002 83.6356 58.5834 83.3006 59.3789C83.6887 60.074 84.9728 61.1739 85.3412 61.6345C85.5785 61.7099 85.9218 61.7852 86.0754 61.735C86.0251 61.6038 85.9917 61.4893 85.9832 61.3888C86.1954 61.601 86.1843 61.7014 86.0754 61.735C86.3768 62.5138 87.3957 63.7756 88.4482 64.8001L88.5039 64.7024C89.9025 66.4079 92.0799 67.9126 93.654 69.3334L93.0844 69.7187ZM93.437 68.3648C93.3665 68.0912 93.0203 67.544 92.5936 67.1449L92.1164 66.7959C92.2813 66.8797 92.4397 67.0025 92.5936 67.1449L93.8079 68.0326L93.437 68.3648ZM94.5277 67.9293L95.1284 68.0103C94.1403 67.2342 93.7355 66.3075 93.9278 66.2544C95.0552 67.0779 95.1925 67.9154 96.569 68.5937L96.3171 69.5317C95.2841 69.0794 95.8482 68.6998 94.5277 67.9293ZM95.3931 71.268L96.8144 72.4124C96.1917 72.0942 95.7841 71.9631 95.3931 71.268ZM96.231 72.5632C96.6386 72.6944 96.9875 72.9233 97.2613 73.0154L96.7329 73.0684L97.6661 73.9422C97.0067 73.9506 96.2475 72.7921 96.231 72.5632ZM98.2238 69.3586L97.9335 68.2447C98.0873 68.5211 98.1853 68.8923 98.6148 69.2609C98.2604 69.0319 98.2824 69.2692 98.2238 69.3586ZM103.598 75.1956L103.617 74.6372C104.047 75.0058 104.725 75.2263 104.767 75.6952C104.438 75.7008 103.93 75.1928 103.598 75.1956ZM22.0635 9.33574C21.8709 9.27429 21.8709 8.82769 21.5499 9.0203C21.7452 9.08172 21.7452 9.52558 22.0635 9.33574ZM14.6828 16.147C14.6996 16.1219 14.7191 16.0968 14.7414 16.0716C15.9697 17.4534 20.33 21.2247 20.0927 22.0622C19.6823 21.9282 19.6293 21.1438 19.2636 21.0796C19.2692 21.1326 19.339 21.1549 19.2301 21.2638C18.6942 20.7306 16.4107 18.034 14.6828 16.147ZM13.7141 16.0604C13.7504 16.0326 13.795 16.0074 13.837 15.9795C13.7728 15.96 13.6974 15.9488 13.6221 15.9349C13.3819 15.5999 13.2591 15.3458 13.3094 15.2146C13.5215 15.5747 18.5713 20.739 18.8058 21.0851C18.5155 20.8702 14.948 17.6851 13.7141 16.0604ZM28.8301 5.51418C28.2439 5.76262 28.5202 4.79118 28.8301 5.51418V5.51418ZM23.8082 8.64903C23.8612 8.64066 23.9226 8.64345 23.9896 8.64903C23.9701 8.61275 23.9199 8.60437 23.8082 8.64903ZM106.122 85.2925C106.397 85.6246 106.861 85.9373 106.878 86.0071C106.872 86.0126 106.87 86.0182 106.861 86.0238C106.878 86.0238 106.881 86.0182 106.878 86.0071C107.098 85.8368 106.663 85.4348 106.317 85.1166C106.272 84.9965 106.146 84.8542 105.984 84.6923C105.987 84.6867 105.992 84.6811 105.995 84.6783C105.987 84.6783 105.979 84.6811 105.973 84.6838C105.387 84.1117 104.317 83.33 104.522 82.6182C104.932 82.7522 105.948 84.4997 106.314 84.5639C106.308 84.5108 106.239 84.4885 106.347 84.3796C107.171 85.2031 107.288 86.2862 108.016 86.5597C108.014 86.3057 107.997 85.9568 107.914 85.605C108.058 85.4655 108.117 85.499 108.287 85.3064C108.075 85.1612 108.165 84.8625 108.503 84.8654C108.189 84.6364 107.79 84.2596 108.276 83.8102C108.003 83.7459 107.838 83.0928 107.746 82.9057C108.131 82.6265 108.128 82.4842 108.418 82.4619C108.187 82.3893 107.176 80.9768 106.828 81.1442C106.724 81.5379 107.143 81.3704 106.852 81.7975C106.708 81.5016 106.54 81.2113 106.66 80.7813C106.937 80.7283 106.514 81.3871 107.009 80.8875C106.535 80.4297 106.506 80.0918 106.227 79.5559C106.241 79.5643 106.25 79.5698 106.261 79.5754C106.252 79.5447 106.247 79.5112 106.247 79.4833C106.119 79.2656 105.781 78.7687 106.107 78.6737C106.077 78.6151 105.973 78.5929 106.096 78.4588C106.394 78.47 106.532 78.819 106.878 78.7352C106.914 78.336 106.378 78.5705 106.618 78.0904C107.651 77.8167 109.758 81.7863 110.582 81.6607C110.397 81.5128 110.295 81.3229 110.362 81.0521C110.45 81.1275 110.521 81.2503 110.708 81.1275L108.623 79.006C108.564 79.1009 108.717 79.38 108.798 79.5224C108.154 78.6375 107.765 77.8866 107.481 77.172C106.213 75.8069 104.96 74.4921 104.306 73.7607C104.373 73.7775 104.488 73.6965 104.602 73.6156C104.385 73.61 104.175 73.5458 103.975 73.4481C104.396 73.8473 104.734 74.3079 105.119 74.6819L104.153 73.7943C104.192 73.9477 104.114 74.0231 104.047 74.1069C104.125 74.2577 104.192 74.4475 104.229 74.7266C103.888 74.3498 103.952 74.2214 104.047 74.1069C103.771 73.5709 103.332 73.6547 103.36 73.0042C102.758 72.4209 102.347 71.5722 102.314 71.1507C102.194 71.1674 101.895 71.5555 101.808 71.5052C101.323 71.1005 100.298 70.1346 98.9802 68.8422L98.7156 68.8478L98.3465 68.3844L98.8438 68.7109C94.0396 63.9961 85.5505 55.2084 84.7522 53.38C84.8053 53.3856 84.8332 53.4498 84.9364 53.3493C84.7271 53.0758 84.4591 52.9334 83.9762 53.2544C84.0181 53.327 84.1548 53.3521 84.0264 53.5056C83.7026 53.313 83.4011 53.0981 83.108 52.8747L83.4151 53.4247L84.2916 53.5949C84.0404 53.7402 84.4815 54.3375 85.0453 54.7479L84.9923 54.0528C85.2798 54.371 85.4948 55.348 85.3747 55.5378L86.1954 55.8086C86.6393 56.4032 86.0195 56.0905 85.9023 56.2776L85.7292 55.7695C85.3188 55.6356 85.0453 55.5434 85.1459 55.9203C84.7578 55.2252 84.1185 53.8825 82.8679 53.2488L83.0075 52.7966C82.1282 52.1043 81.3605 51.2864 80.5957 50.4824C80.7297 50.3485 80.8636 50.2145 80.9949 50.0804C81.3773 50.4238 81.6732 50.9011 82.1533 51.2501C82.2957 51.2836 82.4464 51.331 82.5553 51.3366C82.466 50.8481 81.8072 50.1224 81.1986 49.8739C84.5736 46.4851 87.8564 43.1826 90.5306 40.4889C90.6981 40.2292 90.793 39.9948 90.726 39.8161C90.8991 39.2774 89.7434 40.0311 90.5669 38.9033L91.3541 38.5739L90.8125 39.5453C90.86 39.7352 91.1503 39.6626 91.4714 39.5397C94.676 36.3128 96.8034 34.1634 96.8034 34.1634C96.8034 34.1634 97.0598 33.3203 97.4536 33.1528C97.7769 33.4375 98.1789 33.2644 98.0589 33.0021C97.9976 33.0356 97.9335 33.0579 97.7686 32.8625C100.019 30.392 106.585 24.7476 108.471 21.5876C108.477 21.6546 108.497 21.73 108.527 21.8165C108.846 21.4006 109.753 20.9847 109.686 20.5604C109.515 20.9344 108.985 20.9679 108.684 21.1605C108.516 20.9707 108.357 20.9428 108.368 20.8479C108.444 20.2784 109.066 19.977 109.086 19.3768C108.553 19.5024 108.48 20.2533 107.741 20.3706C108.195 19.9379 108.025 19.254 108.775 19.4438C108.192 19.0948 108.609 19.2651 108.304 18.8212C107.632 19.1981 105.342 22.1655 104.447 22.0761C104.452 21.6602 104.658 21.6658 104.781 21.3531C104.418 20.9651 104.65 21.5709 104.144 21.0936C104.418 20.887 104.77 20.2617 104.731 19.7173C104.215 20.016 104.117 20.6776 103.512 20.8367C103.829 20.4766 103.997 19.9323 104.125 19.6391C104.072 19.6447 104.047 19.7089 103.938 19.6029C103.882 19.1562 101.957 22.1264 101.384 21.7579C101.728 21.2945 106.85 16.4513 106.841 15.9237C107.065 16.4317 107.408 15.8818 106.919 15.8511C107.174 15.4659 107.497 14.8266 107.542 14.3884C107.427 14.4497 107.017 14.1901 106.998 14.4944C107.073 14.7345 107.321 14.7205 107.294 14.8657C107.16 14.8657 107.198 15.2119 106.948 14.9717C106.975 14.9104 107.076 14.888 106.953 14.7512C106.772 14.9216 106.588 15.0891 106.406 15.2593C106.479 15.4993 106.727 15.4854 106.699 15.6278C106.333 16.0995 102.596 19.6113 101.041 20.5269C102.517 19.1981 103.869 17.8973 103.874 17.5427C103.718 17.6851 102.934 18.3383 101.957 19.1869C103.642 17.4925 106.088 14.9997 105.883 14.8852C105.87 14.8825 105.848 14.888 105.822 14.8992C106.495 14.2767 106.97 13.7909 107.023 13.6068C106.537 13.6374 106.138 14.0031 106.138 14.0031L106.104 13.8189C105.781 14.0646 105.981 14.5419 105.253 14.4023C105.435 14.2321 105.616 14.0617 105.797 13.8915C105.222 13.537 105.401 13.9975 105.353 13.4476C104.857 13.9138 102.394 16.3927 100.385 18.0926C100.295 18.0815 100.234 18.0871 100.295 18.168C99.2064 19.0836 98.2632 19.7592 97.8556 19.7368C98.0818 19.762 98.1267 19.2958 97.9866 18.9636C97.7329 19.2148 97.5653 19.1227 97.3053 19.1869C96.9426 17.9922 100.482 15.3403 100.253 14.299C100.016 14.5056 97.4371 17.2553 97.0122 17.0822C97.2998 16.9816 97.5489 16.8197 97.3254 16.3397C96.9151 16.4931 96.8895 16.7388 96.3455 16.6439C96.7805 16.6606 96.4398 16.0884 96.5461 15.7869C96.9124 16.1163 96.4545 16.0409 96.6889 16.3061C97.1633 16.1163 99.3713 13.4393 100.106 13.308C100.019 13.3722 100.141 13.671 100.264 13.6319C100.053 13.4308 100.907 13.4253 100.496 13.1852C100.379 13.1768 100.429 13.5091 100.195 13.2606C100.234 13.1014 100.554 13.0847 100.516 12.8865C100.737 12.8753 100.968 12.853 100.839 12.5432C100.806 12.6939 100.554 12.6856 100.388 12.7386C99.5975 12.5069 97.3199 16.0493 96.6578 15.9014C96.666 15.5831 99.6139 12.8502 99.7898 12.5571C99.6533 12.5571 99.1735 12.4343 99.081 12.1496C99.4409 12.6409 99.6863 11.9709 99.4583 11.9988C99.3264 12.0016 99.3713 12.3562 99.1203 12.1133C99.1616 12.0212 99.4216 12.0379 99.0498 11.7392C98.7659 11.6164 98.7632 12.0686 98.45 11.8955C98.5004 11.7839 98.9326 11.5801 98.6423 11.4824C98.6927 11.4489 99.1588 10.966 99.6277 10.4412C99.7284 10.4607 99.8594 10.5724 99.9381 10.7399C99.9574 10.3323 100.996 10.3435 100.449 9.51441C100.393 9.83264 100.144 9.96662 99.9043 10.1257C100.34 9.61771 100.697 9.14591 100.599 9.07893C100.764 9.05938 100.82 8.70766 100.564 8.66578C100.689 8.93376 99.7953 8.37547 99.9326 8.18564C99.6313 8.3336 99.6368 8.59041 99.3346 8.57087C99.2202 8.05165 100.122 8.09352 100.195 7.69434C99.994 7.62734 99.9574 7.89533 99.7119 7.739C99.7678 7.59664 99.8594 7.47102 99.7513 7.25049C99.5169 7.3454 99.4747 7.82554 99.1176 7.6748C98.9445 7.47102 99.1899 7.64968 99.2293 7.56035C98.8181 7.10812 98.9161 7.68596 98.5617 7.3454C98.5617 7.2142 98.9134 7.25328 98.6734 7.00484C98.6313 7.35656 98.3026 6.84852 98.1936 6.82618C98.3859 7.1165 97.7915 6.87364 98.341 7.12487C98.0031 7.04671 93.0038 12.0966 92.6357 11.9597C92.5569 11.6052 97.7412 6.85968 97.5626 6.57494C97.395 6.7201 97.4811 6.50795 97.3419 6.35163C97.1349 6.427 92.3252 11.7448 91.8985 11.3735C92.0184 11.0692 93.8189 9.50598 95.3372 8.06561C95.5076 8.07119 95.6275 7.96232 95.6001 7.81437C96.6834 6.77315 97.5544 5.84079 97.4481 5.55605C97.177 5.8017 96.1807 6.79827 95.0195 7.90929L94.9911 7.91487L95.003 7.92324C93.8802 8.99518 92.6045 10.1676 91.678 10.8655C91.6919 10.9911 91.5997 11.0385 91.4658 11.0218C91.0163 11.3429 90.6702 11.5243 90.4999 11.488C90.5725 11.3373 91.3234 11.3791 90.7568 10.9883C90.458 10.7677 90.3603 11.1977 90.3185 11.4545C90.0895 10.9827 90.1398 11.474 89.8774 11.2396C89.9081 10.5333 95.8034 5.56164 95.8986 4.90842C95.6981 4.914 90.793 9.96662 90.5334 9.85499C90.285 9.58135 95.3986 4.75768 95.198 4.50924C94.6898 4.47295 89.7183 10.4551 88.7412 10.176C88.8753 9.76561 89.6597 9.71258 89.7238 9.34691C89.6708 9.3525 89.6485 9.42228 89.5396 9.31339C90.3632 8.48992 96.2613 3.55734 96.5351 2.82596C96.2814 2.82876 95.9325 2.84551 95.5808 2.92925C95.4407 2.78409 95.4719 2.72547 95.2814 2.55518C95.1367 2.76734 94.8381 2.67802 94.8409 2.34024C94.6119 2.65289 94.2346 3.05208 93.7859 2.56636C93.7548 2.69755 92.4873 3.90348 91.1531 5.14012L91.1475 5.12058C91.1475 5.12895 91.1475 5.13733 91.1448 5.1457L90.9856 5.29365C90.8823 5.32157 90.7734 5.32436 90.8293 5.4388C89.4782 6.68382 88.155 7.86742 88.0657 7.91208C87.8926 7.67201 88.4705 6.88481 88.9283 6.25113C88.8613 6.24555 88.7943 6.24276 88.7161 6.22043C88.6631 5.94407 89.3219 6.36559 88.8222 5.87149C88.3644 6.34604 88.0266 6.37396 87.4906 6.65311C87.7057 6.34884 88.1885 5.79611 88.0546 5.32994C87.9959 5.36064 87.9736 5.46393 87.8396 5.34111C87.8508 5.04242 88.1997 4.90563 88.1159 4.55949C87.7196 4.52319 87.9513 5.05917 87.4711 4.82189C87.3874 4.50087 87.7643 4.02352 88.3225 3.49034C87.2589 4.4897 86.3238 5.32715 86.2122 5.29923C86.3043 5.19036 91.2983 0.308032 91.0191 0.0205078C89.2242 1.29901 83.0494 7.82274 81.5448 9.16549C81.5616 9.09847 81.4805 8.98401 81.3997 8.86956C81.3633 10.0923 79.6075 11.1056 78.9319 11.1586C78.9486 11.2787 79.3367 11.5746 79.2865 11.6638C77.6535 13.6207 65.0051 26.2215 60.2596 30.0654C56.7143 26.5342 53.2418 23.0811 50.4307 20.2896C50.1712 20.1221 49.9366 20.03 49.7608 20.0942C49.222 19.9211 49.9757 21.0768 48.8479 20.2533L48.5185 19.4661L49.49 20.0076C49.6798 19.9602 49.6072 19.6699 49.4844 19.3488C46.2575 16.1442 44.1079 14.017 44.1079 14.017C44.1079 14.017 43.265 13.7603 43.0975 13.3667C43.3822 13.0428 43.2119 12.6409 42.9467 12.7637C42.9802 12.8223 43.0025 12.8865 42.8072 13.054C40.225 10.7008 34.1758 3.63829 31.1191 2.1253C30.9182 2.29837 30.8902 2.46586 30.7897 2.4547C30.2203 2.37933 29.9188 1.75682 29.3186 1.73728C29.4442 2.27046 30.1952 2.34303 30.3124 3.08279C29.8797 2.63056 29.1958 2.79526 29.3856 2.04714C29.0367 2.63056 29.2069 2.21184 28.7603 2.5189C29.1372 3.19165 32.1045 5.48068 32.0152 6.37675C31.5992 6.37117 31.6048 6.1646 31.2922 6.04177C30.9042 6.40466 31.51 6.17297 31.0326 6.67823C30.8261 6.40746 30.2008 6.05294 29.6564 6.09202C29.9523 6.60566 30.6166 6.70615 30.7758 7.3119C30.4157 6.99368 29.8713 6.82618 29.5782 6.69778C29.581 6.7536 29.648 6.77594 29.5419 6.88481C29.0953 6.94063 32.0655 8.86677 31.697 9.43904C31.2336 9.09567 26.3904 3.97327 25.8628 3.98165C26.3708 3.75832 25.8208 3.41497 25.7902 3.90348C25.4049 3.64945 24.7657 3.32564 24.3274 3.28098C24.3888 3.39543 24.1292 3.80578 24.4335 3.82532C24.6735 3.74995 24.6596 3.5043 24.8048 3.52942C24.8048 3.66341 25.1537 3.62433 24.9108 3.87557C24.8494 3.84766 24.8271 3.74437 24.6903 3.86998C24.8605 4.05143 25.028 4.23567 25.1984 4.41712C25.4384 4.34454 25.4245 4.0961 25.5668 4.12401C26.1252 4.55669 30.9907 9.76286 30.6669 10.3937C30.4324 10.2039 24.9946 4.63486 24.8271 4.94192C24.8243 4.95587 24.8299 4.97821 24.841 5.00333C24.2186 4.33059 23.7329 3.85603 23.5486 3.80299C23.5793 4.28871 23.9449 4.6879 23.9449 4.6879L23.7608 4.72139C24.0064 5.04521 24.4837 4.84422 24.3441 5.5728C24.1739 5.39135 24.0036 5.2099 23.8333 5.02846C23.4788 5.60351 23.9394 5.42485 23.3894 5.4723C24.118 6.25113 29.7401 11.809 29.6788 12.9675C29.7039 12.7414 29.2376 12.6939 28.9055 12.8363C29.1567 13.0903 29.0645 13.2578 29.1288 13.5174C27.934 13.8775 25.2821 10.3407 24.2408 10.5696C24.4474 10.8069 27.1998 13.3862 27.024 13.8105C26.9235 13.523 26.7616 13.2745 26.2815 13.4979C26.435 13.9082 26.6807 13.9333 26.5857 14.4777C26.6025 14.0422 26.0302 14.3828 25.7287 14.2767C26.0581 13.911 25.9827 14.3688 26.248 14.1344C26.0581 13.6598 23.3811 11.4517 23.2499 10.7176C23.3141 10.8041 23.6128 10.6812 23.5737 10.5584C23.3727 10.7706 23.3672 9.91634 23.1271 10.3267C23.1187 10.4439 23.4509 10.3937 23.2024 10.6282C23.0182 10.5836 23.0238 10.1565 22.7167 10.3602C22.1947 11.0665 25.9939 13.4839 25.8404 14.165C25.5222 14.1567 22.7865 11.2089 22.4962 11.033C22.4962 11.1698 22.3734 11.6499 22.0887 11.7421C22.58 11.3819 21.91 11.1363 21.9351 11.3652C21.9379 11.4963 22.2924 11.4517 22.0495 11.7029C21.963 11.6638 21.9713 11.4294 21.723 11.7169C21.6448 11.6052 21.6197 11.3484 21.4298 11.4377C21.3963 11.5522 21.5052 11.8593 21.6559 11.904C21.6922 12.0714 21.9713 12.1189 21.829 12.3729C21.7174 12.3227 21.5135 11.8899 21.4159 12.1803C21.3433 12.0742 19.1632 10.0057 19.0124 10.2234C18.9928 10.0587 18.6383 10.0029 18.5992 10.2598C18.8672 10.1341 18.3089 11.0274 18.1191 10.8906C18.2671 11.1921 18.5239 11.1865 18.5044 11.488C17.9851 11.6024 18.027 10.7008 17.6278 10.6282C17.5608 10.8292 17.8288 10.8655 17.6725 11.1112C17.5301 11.0581 17.4045 10.9632 17.184 11.0721C17.2789 11.3065 17.7618 11.3484 17.6083 11.7057C17.4045 11.8788 17.5832 11.6332 17.4938 11.5941C17.0416 12.0044 17.6194 11.9067 17.2789 12.2612C17.1476 12.2612 17.1867 11.9095 16.9383 12.1496C17.29 12.1914 16.782 12.5208 16.7596 12.6297C17.05 12.4371 16.8071 13.0289 17.0583 12.4817C16.9802 12.8196 22.03 17.8191 21.8932 18.1876C21.5387 18.2657 16.7931 13.0819 16.5084 13.2606C16.6536 13.4281 16.4414 13.3416 16.2851 13.4839C16.3604 13.6905 21.681 18.5003 21.307 18.9273C20.7654 18.7152 16.1874 13.1155 15.4868 13.3778C15.9697 13.9138 19.3725 17.258 20.7962 19.1479C20.9218 19.1339 20.9692 19.226 20.9525 19.36C21.2735 19.8095 21.4549 20.1556 21.4187 20.3259C21.2679 20.2533 21.3098 19.5024 20.919 20.0691C20.6985 20.3677 21.1284 20.4654 21.3851 20.5073C20.9134 20.7362 21.4047 20.686 21.1702 20.9484C20.464 20.9177 15.4924 15.0249 14.8391 14.9271C14.8447 15.1281 19.8973 20.0327 19.7856 20.2924C19.5595 20.499 16.2432 17.0598 14.9452 15.9572L14.9536 15.9516L14.9368 15.9488C14.8363 15.8623 14.747 15.7897 14.6716 15.7366C14.5013 15.491 14.3534 15.1448 13.9179 15.3347C13.3624 14.7568 12.9353 14.3549 12.7566 14.2878C12.7595 14.5419 12.7761 14.8908 12.8599 15.2398C12.7148 15.3794 12.6562 15.3486 12.4858 15.5384C12.698 15.6836 12.6087 15.9823 12.2709 15.9795C12.5836 16.2056 12.9827 16.5853 12.497 17.0347C12.7622 17.0822 17.7423 22.5535 17.8344 22.7405C17.5944 22.9136 16.8071 22.3357 16.1734 21.8779C16.1678 21.945 16.1651 22.0119 16.1455 22.0873C15.8692 22.1403 16.2906 21.4816 15.7966 21.984C16.2711 22.4418 16.2991 22.7796 16.5782 23.3155C16.274 23.1006 15.7185 22.6177 15.2551 22.7544C15.2858 22.8131 15.3891 22.8354 15.2662 22.9695C14.9675 22.9583 14.8307 22.6093 14.4846 22.6931C14.4483 23.0894 14.9843 22.8577 14.7442 23.3379C14.4259 23.4217 13.9458 23.0448 13.4126 22.4865C14.412 23.5501 15.2495 24.4824 15.2216 24.5969C15.1127 24.5048 10.2304 19.5107 9.9428 19.7899C11.2213 21.5848 17.7451 27.7597 19.085 29.2643C19.0179 29.2475 18.9036 29.3285 18.7891 29.4094C20.0117 29.4457 21.0251 31.2015 21.0781 31.8771C21.1981 31.8603 21.494 31.4723 21.5833 31.5226C23.4927 33.1193 35.5632 45.226 39.703 50.2089C39.4629 50.4489 39.2229 50.689 38.9828 50.9319C38.9186 51.158 39.248 51.1468 39.2452 51.3701C38.4804 53.0199 36.3867 53.8518 35.1556 55.8756C35.2477 55.9342 35.5269 55.7807 35.298 56.1269C33.5422 57.3299 33.6957 58.5778 31.5211 60.0154C31.5183 59.8591 31.6384 59.5576 31.6802 59.3677L31.2364 59.5046C31.6719 59.0859 31.7249 59.1584 31.6802 59.3677L32.1157 59.2338C32.4786 58.4801 33.866 57.0369 34.8793 56.3586C34.7342 56.1073 34.2344 56.9419 34.0446 56.8247L35.0551 55.482C34.8541 55.4987 34.7872 55.3592 34.5667 55.5072C34.5276 55.535 34.4885 55.5658 34.4494 55.602C34.494 55.5602 34.5331 55.5323 34.5667 55.5072C34.8514 55.3089 35.15 55.2755 35.5129 54.7813C35.3929 54.8484 35.4069 54.759 35.3259 54.7842C36.0908 54.4631 36.6826 53.3437 37.1962 52.7268C29.1846 60.8222 21.3907 68.9761 21.3907 68.9761C21.3907 68.9761 21.1339 69.8191 20.7403 69.9866C20.4165 69.7019 20.0146 69.875 20.1374 70.1374C20.196 70.1039 20.2629 70.0816 20.4277 70.2769C18.0744 72.8591 13.5745 76.6583 12.0616 79.715C12.2346 79.916 12.4021 79.9439 12.391 80.0416C12.3156 80.6111 11.693 80.9126 11.6735 81.5128C12.2067 81.3871 12.2793 80.6362 13.019 80.519C12.564 80.9517 12.7343 81.6356 11.9834 81.4457C12.5668 81.7947 12.1481 81.6272 12.4552 82.071C12.7008 81.9343 13.2312 81.3815 13.8426 80.7451C14.0323 81.0214 13.2563 81.0577 13.8258 81.3257C13.6387 80.9823 14.3869 81.1136 13.8509 80.7367C14.9089 79.6369 16.2209 78.283 16.7875 78.3416C16.782 78.7575 14.1664 81.1583 14.0435 81.4737C14.4064 81.8617 16.5838 78.8468 17.089 79.3242C16.8183 79.5308 16.4637 80.156 16.5028 80.7004C17.0165 80.4045 17.117 79.7373 17.7227 79.581C17.4045 79.9411 17.237 80.4854 17.1086 80.7786C17.1616 80.7757 17.1867 80.7088 17.2956 80.8148C17.3542 81.2615 16.3939 81.1749 16.9662 81.5434C16.6229 82.0068 13.9095 84.4438 13.9151 84.9714C13.6918 84.4606 13.3484 85.0133 13.837 85.044C13.5829 85.4292 13.2591 86.0685 13.2144 86.5067C13.3289 86.4454 13.7393 86.7049 13.7588 86.4007C13.6834 86.1605 13.435 86.1746 13.4629 86.0294C13.5969 86.0294 13.5578 85.6804 13.8091 85.9233C13.7811 85.9847 13.6778 86.0071 13.8035 86.1439C13.9849 85.9735 14.1691 85.8061 14.3506 85.6358C14.278 85.3957 14.0296 85.4097 14.0575 85.2673C14.4901 84.709 17.2873 82.2525 17.9181 82.5763C17.7283 82.8108 14.5683 85.8396 14.8726 86.0098C15.2439 86.1104 15.2495 85.4599 15.7491 85.8284C15.1908 86.5123 13.9374 86.5961 13.7337 87.2856C14.2194 87.2548 14.6214 86.8891 14.6214 86.8891L14.6549 87.0734C14.9787 86.8278 14.7777 86.3504 15.5063 86.49C15.3249 86.6603 15.1433 86.8334 14.9619 87.0036C15.537 87.3581 15.3583 86.8976 15.4058 87.4502C16.1818 86.7216 17.8874 84.9519 19.0487 85.0133C18.8226 84.9882 18.7751 85.4543 18.9175 85.7865C19.1715 85.5352 19.339 85.6274 19.5986 85.5632C19.9587 86.758 17.8651 87.9667 18.0968 89.0052C18.334 88.7986 19.4674 87.4921 19.8917 87.668C19.6042 87.7685 18.3926 88.8934 18.616 89.3736C19.0264 89.2201 20.0146 88.0113 20.5589 88.1062C20.1234 88.0896 19.5009 89.6249 19.3949 89.9263C19.0291 89.5969 19.4869 89.6723 19.2525 89.4071C18.7667 89.5997 18.8728 89.9961 18.1917 90.0073C18.3648 90.0268 18.228 89.6249 18.0828 89.6723C18.295 89.8733 17.4408 89.8789 17.8511 90.1189C17.9684 90.1273 17.9181 89.7951 18.1526 90.0436C18.1079 90.2278 17.6809 90.2222 17.8847 90.5293C18.5909 91.0513 18.5992 89.6611 19.2831 89.8146C19.2748 90.1329 18.7361 90.4595 18.5574 90.7498C18.6942 90.7498 19.1771 90.8726 19.2664 91.1573C18.9789 90.7637 18.764 91.1155 18.8058 91.2579C18.817 91.3612 19.0375 91.724 18.9119 91.7295C18.4178 92.2543 16.2376 93.3907 16.2237 94.1389C16.7038 93.703 19.1883 92.3358 19.032 91.3975C18.9901 91.3556 18.9537 91.3248 18.9231 91.2997C19.0124 91.2411 19.0013 90.9788 19.2245 91.1964C19.1827 91.2886 18.9231 91.2718 19.2972 91.5705C19.5819 91.6929 19.5846 91.2411 19.8973 91.4142C19.8471 91.5258 19.4088 91.7323 19.7075 91.8275C19.7912 91.6966 19.928 91.6627 20.1542 91.822C19.9894 91.8412 19.9336 92.1929 20.1904 92.235C20.0648 91.9667 20.958 92.5281 20.8213 92.7149C21.1228 92.5675 21.1172 92.3101 21.4187 92.3294C21.5331 92.8486 20.6315 92.8074 20.5589 93.2067C20.7599 93.2735 20.7962 93.0052 21.0418 93.1618C20.9888 93.3037 20.8938 93.4292 21.0027 93.6527C21.2372 93.5583 21.2791 93.0776 21.6364 93.2314C21.8095 93.4356 21.5638 93.2561 21.5247 93.3459C21.9351 93.7983 21.8374 93.2204 22.192 93.5611C22.192 93.692 21.8402 93.6527 22.0802 93.9018C22.1222 93.5501 22.4515 94.0574 22.5604 94.0803C22.3678 93.79 22.9624 94.0327 22.4125 93.7818C22.7502 93.8596 22.9345 93.6279 23.3001 93.7644C23.3783 94.1188 23.0098 94.0465 23.1885 94.334C23.356 94.1893 23.2695 94.3981 23.409 94.5547C23.6155 94.4796 23.6072 93.9769 24.0343 94.3505C23.8221 94.8926 23.0405 94.6527 23.3001 95.3533C23.9925 94.7278 25.5249 93.0776 26.396 93.2735C26.3233 93.4237 25.5724 93.3825 26.1391 93.7726C26.4378 93.9933 26.5355 93.5638 26.5774 93.3065C26.8062 93.779 26.756 93.2873 27.0184 93.5217C26.9877 94.2278 24.9471 95.3478 24.8522 95.998C25.0532 95.9925 25.1425 95.758 25.3993 95.867C25.6478 96.1399 25.3491 96.1454 25.5501 96.3945C26.0581 96.4302 27.1747 94.3038 28.1545 94.5794C28.0205 94.9897 26.2731 96.0062 26.2089 96.3716C26.2619 96.3661 26.2842 96.2965 26.3931 96.4055C25.5696 97.2288 24.4865 97.346 24.213 98.075C24.4669 98.075 24.8159 98.0548 25.1676 97.9715C25.3073 98.1162 25.2765 98.1748 25.4663 98.3451C25.6115 98.1336 25.9102 98.2224 25.9074 98.5603C26.1335 98.2481 26.5132 97.846 26.9625 98.3342C27.0268 98.0603 27.6828 97.8964 27.8671 97.8039C28.1462 98.1922 28.2885 98.1867 28.3109 98.477C28.3835 98.2453 29.7987 97.2343 29.6285 96.8854C29.2349 96.7819 29.4051 97.2013 28.9753 96.911C29.274 96.7627 29.5614 96.5978 29.9914 96.7178C30.0444 96.9944 29.3856 96.5731 29.8853 97.0667C30.3431 96.5923 30.6809 96.5676 31.2168 96.2855C31.2056 96.2993 31.2029 96.3075 31.1973 96.3185C31.228 96.3103 31.2587 96.3048 31.2894 96.3048C31.5071 96.1766 32.0069 95.8386 32.0989 96.1656C32.1576 96.1344 32.1799 96.031 32.3139 96.1546C32.3028 96.4531 31.9537 96.5896 32.0375 96.9357C32.4339 96.9724 32.2022 96.4357 32.6823 96.6729C32.9559 97.7087 28.9864 99.8141 29.1121 100.637C29.26 100.453 29.4471 100.35 29.7206 100.417C29.6424 100.506 29.5224 100.576 29.6452 100.763L31.7667 98.6776C31.6719 98.619 31.3927 98.7728 31.2531 98.8534C32.138 98.2087 32.8889 97.8204 33.6035 97.5356C34.9686 96.2691 36.2834 95.0154 37.0147 94.3624C36.9981 94.4293 37.0789 94.5437 37.1599 94.6582C37.1655 94.4402 37.2298 94.2305 37.3274 94.03C36.9282 94.4512 36.4676 94.7892 36.0935 95.1747L36.9813 94.2085C36.8277 94.2507 36.7524 94.1692 36.6714 94.1023C36.5207 94.1802 36.3308 94.2479 36.0517 94.2836C36.4285 93.943 36.5569 94.0107 36.6714 94.1023C37.2074 93.8257 37.1236 93.388 37.7741 93.4155C38.3575 92.8129 39.2033 92.4026 39.6276 92.3687C39.6109 92.2488 39.2229 91.953 39.2731 91.8605C39.6778 91.3779 40.6437 90.3535 41.9362 89.0331L41.9529 88.7706L42.4163 88.4022L42.0897 88.899C46.8046 84.0949 55.5922 75.606 57.4206 74.8076C57.415 74.8633 57.3508 74.8885 57.4514 74.9918C57.7249 74.7824 57.8673 74.5144 57.5462 74.0287C57.4737 74.0706 57.4485 74.2102 57.295 74.079C57.4876 73.7552 57.7026 73.4537 57.9259 73.1634L57.376 73.4704L57.2057 74.3469C57.0605 74.0957 56.4631 74.5395 56.0528 75.1006L56.7479 75.0476C56.4296 75.3352 55.4527 75.5501 55.2656 75.43L54.9949 76.2508C54.4002 76.6946 54.7129 76.0749 54.5259 75.9576L55.0339 75.7846C55.1679 75.3743 55.26 75.1006 54.886 75.2012C55.5811 74.8132 56.9238 74.1711 57.5574 72.9233L58.0096 73.0629C58.4591 72.4934 58.9616 71.9714 59.478 71.4662C59.6231 71.5666 59.6343 71.5052 59.5589 71.3852C59.7068 71.2401 59.8576 71.0976 60.0083 70.9552C60.1423 71.0893 60.2791 71.2233 60.4131 71.36C60.1256 71.6141 59.8101 71.8625 59.5561 72.2087C59.5226 72.3511 59.4752 72.5018 59.4696 72.6106C59.852 72.5408 60.3768 72.1221 60.709 71.6532C60.7621 71.7062 60.8151 71.762 60.8709 71.8151C61.097 71.8793 61.0858 71.5499 61.3092 71.5527C62.959 72.3176 63.7909 74.4111 65.8147 75.6422C65.8733 75.5501 65.7198 75.271 66.0659 75.4998C67.269 77.2557 68.5169 77.1022 69.9545 79.2768C69.7981 79.2795 69.4967 79.1595 69.3068 79.1176L69.4408 79.5615C69.0249 79.126 69.0947 79.0729 69.3068 79.1176L69.1728 78.6793C68.4163 78.3165 66.976 76.9291 66.2976 75.9158C66.0492 76.0609 66.881 76.5607 66.7638 76.7504L65.4211 75.7399C65.4378 75.941 65.2983 76.0079 65.4462 76.2284C65.4741 76.2675 65.5049 76.3066 65.5411 76.3485C65.502 76.3038 65.4713 76.2647 65.4462 76.2284C65.248 75.9437 65.2145 75.645 64.7204 75.2821C64.7874 75.4021 64.6981 75.3854 64.7232 75.4691C64.4022 74.7043 63.2828 74.1125 62.6658 73.5988C70.7612 81.6105 78.9151 89.4043 78.9151 89.4043C78.9151 89.4043 79.7582 89.6611 79.9257 90.0547C79.641 90.3786 79.8112 90.7805 80.0764 90.6605C80.0429 90.5991 80.0206 90.5349 80.216 90.3701C82.7981 92.7231 86.5974 97.2233 89.6541 98.7362C89.8551 98.5631 89.8858 98.3955 89.9835 98.4065C90.5529 98.4825 90.8544 99.1043 91.4546 99.1245C91.3289 98.5915 90.5781 98.5182 90.4608 97.7792C90.8935 98.2334 91.5774 98.0667 91.3876 98.814C91.7366 98.2307 91.5662 98.6501 92.0129 98.3396C91.636 97.6675 88.1913 94.9036 88.2834 94.0071C88.6994 94.0135 91.1001 96.629 91.4155 96.7517C91.8035 96.389 88.7887 94.2113 89.2661 93.7058C89.4726 93.9769 90.0979 94.3313 90.6423 94.2919C90.3464 93.779 89.682 93.6783 89.5228 93.0721C89.883 93.3907 90.4274 93.5583 90.7204 93.6866C90.7177 93.6307 90.6506 93.606 90.7568 93.4997C91.2034 93.4439 91.1169 94.4009 91.4853 93.8285C91.9487 94.1719 94.383 96.8854 94.9132 96.8771C94.405 97.1006 94.9554 97.444 94.9856 96.955C95.3711 97.2096 96.0103 97.5328 96.449 97.575L96.4453 97.5695C97.0204 98.3928 97.7998 99.6181 98.3612 99.6272C98.048 99.2838 97.2613 97.9129 96.493 97.2178C96.5012 97.1198 96.4737 97.0392 96.3455 97.031C96.3254 97.0365 96.3089 97.0447 96.2924 97.053C96.1862 96.9751 96.0799 96.9138 95.9792 96.8716L95.5808 96.4385C95.34 96.5117 95.3546 96.7599 95.2118 96.7324C94.6541 96.2993 92.197 93.5025 92.5212 92.8715C92.7556 93.0611 95.7841 96.2214 95.9545 95.9165C96.0552 95.5456 95.405 95.5401 95.7731 95.0401C96.4572 95.5987 96.5406 96.8524 97.2302 97.0557C97.1999 96.5704 96.8336 96.1683 96.8336 96.1683L97.0177 96.1344C96.7723 95.8112 96.2951 96.0117 96.4343 95.2828C96.6047 95.465 96.775 95.6463 96.9454 95.8277C97.2998 95.2525 96.8391 95.4311 97.3895 95.3835C96.6605 94.6051 94.8913 92.899 94.9554 91.7405C94.927 91.9667 95.3959 92.0143 95.7283 91.8724C95.4774 91.6178 95.5689 91.4505 95.5048 91.1909C96.6999 90.8308 97.9088 92.9246 98.9473 92.6929C98.7403 92.4557 97.4344 91.3221 97.6102 90.8978C97.71 91.1853 98.8355 92.3971 99.3154 92.1737C99.1616 91.7634 97.9536 90.7749 98.048 90.2306C98.0315 90.6661 99.5663 91.2886 99.8658 91.3946C99.5361 91.7607 99.6112 91.3025 99.3465 91.537C99.5388 92.0226 99.9354 91.9163 99.9464 92.5977C99.9656 92.4246 99.5636 92.5611 99.6112 92.7067C99.8127 92.4942 99.8182 93.3486 100.058 92.9384C100.066 92.8211 99.7339 92.8715 99.983 92.6371C100.167 92.6819 100.162 93.1087 100.468 92.9045C100.99 92.1984 99.6002 92.1902 99.7513 91.5091C100.072 91.5175 100.396 92.0564 100.689 92.2323C100.689 92.0949 100.809 91.6123 101.097 91.523C100.605 91.8834 101.275 92.1288 101.247 91.8999C101.244 91.7689 100.89 91.8138 101.132 91.5621C101.225 91.6041 101.208 91.8632 101.507 91.4896C101.63 91.2048 101.177 91.202 101.35 90.8894C101.462 90.9397 101.666 91.3779 101.763 91.0792C101.632 90.9954 101.598 90.8615 101.758 90.6326C101.778 90.7973 102.13 90.8503 102.171 90.5963C101.903 90.7219 102.461 89.8286 102.652 89.9654C102.503 89.6639 102.247 89.6695 102.266 89.368C102.785 89.2536 102.743 90.1552 103.142 90.2278C103.209 90.0268 102.942 89.9905 103.098 89.7448C103.24 89.798 103.363 89.8928 103.587 89.7839C103.491 89.5495 103.012 89.5076 103.162 89.1503C103.366 88.9772 103.187 89.2228 103.276 89.2619C103.729 88.8516 103.151 88.9493 103.491 88.5948C103.622 88.5948 103.584 88.9465 103.832 88.7064C103.48 88.6646 103.989 88.3352 104.011 88.2235C103.723 88.4161 103.963 87.8243 103.712 88.3714C103.79 88.0337 103.558 87.8494 103.696 87.4838C104.05 87.4056 103.978 87.7741 104.265 87.5954C104.12 87.4279 104.332 87.5144 104.488 87.3721C104.413 87.1655 103.91 87.1739 104.284 86.7468C104.826 86.9589 104.586 87.7405 105.286 87.4809C104.661 86.7887 103.012 85.2561 103.207 84.388C103.358 84.4606 103.316 85.2115 103.707 84.6448C103.927 84.3461 103.497 84.2484 103.24 84.2065C103.712 83.9776 103.22 84.0279 103.456 83.7655C104.162 83.7962 105.281 85.8367 105.931 85.9317C105.926 85.7307 105.691 85.6414 105.8 85.3845C105.97 85.2226 106.037 85.2729 106.122 85.2925ZM15.6235 26.4672C15.336 26.8971 15.7519 26.7267 15.6487 27.1203C15.6458 27.1232 15.6431 27.1203 15.6403 27.1232C15.7073 27.1706 15.7742 27.2209 15.8469 27.2711C15.8692 26.9557 15.7463 26.7101 15.6235 26.4672ZM15.6403 27.1232C15.3471 26.9138 15.1127 26.7603 15.0234 26.7658C15.2522 26.8385 15.3025 27.2795 15.6403 27.1232ZM96.2979 102.965C96.242 102.974 96.1834 102.971 96.1166 102.965C96.1358 103.002 96.1862 103.01 96.2979 102.965ZM107.45 85.6135C107.235 85.2534 107.006 84.9045 106.769 84.5583C107.129 84.8291 107.743 84.8681 107.45 85.6135Z" fill="#E30B0F"/>
<path d="M0.527344 64.6387H22.4434L22.4629 64.4572L23.2697 56.8196H8.08673L9.33453 45.0954H24.5119L25.3382 37.2764H3.42492L0.527344 64.6387Z" fill="white"/>
<path d="M43.9077 37.2764L41.8364 56.8196H31.7341L33.8025 37.2764H27.0694L24.1719 64.6387H41.0102L40.1866 79.5397L47.7461 64.6387L50.6409 37.2764H43.9077Z" fill="white"/>
<path d="M60.1892 37.276L61.0155 22.375L53.4561 37.276L50.5586 64.6383H74.1328L77.0276 37.276H60.1892ZM68.2204 56.8193H58.1179L59.3629 45.0922H69.4654L68.2204 56.8193Z" fill="white"/>
<path d="M103.357 37.2764H79.7825L78.959 45.0954H102.531L103.357 37.2764Z" fill="white"/>
<path d="M102.33 47.0488H78.7562L77.916 54.865H101.488L102.33 47.0488Z" fill="white"/>
<path d="M76.8887 64.6384H100.46L101.286 56.8193H77.7121L76.8887 64.6384Z" fill="white"/>
<path d="M103.211 64.6387L109.123 73.1611L112.018 45.0954H118.755L119.578 37.2764H106.108L103.211 64.6387Z" fill="white"/>
<path d="M87.6207 94.3945H85.3736V103.336H87.6207V104.927H81.3789V103.336H83.6261V94.3945H81.3789V92.8203H87.6207V94.3945Z" fill="#573838"/>
<path d="M12.1319 94.5682C13.1872 93.4793 14.6751 92.7705 16.3164 92.7705C19.0828 92.7705 21.2629 94.5013 21.9524 97.2313H20.2245C19.5853 95.4171 18.0974 94.4986 16.3164 94.4986C15.1579 94.4986 14.1028 95.0014 13.3407 95.7963C12.5786 96.5921 12.0957 97.6645 12.0957 98.909C12.0957 100.121 12.5786 101.193 13.3407 101.988C14.1028 102.784 15.1552 103.286 16.3164 103.286C18.1505 103.286 19.7053 102.231 20.3278 100.397H22.039C21.3467 103.146 19.133 105.015 16.3137 105.015C14.6695 105.015 13.1843 104.322 12.1292 103.217C11.0908 102.111 10.3984 100.587 10.3984 98.909C10.4013 97.1956 11.0935 95.6735 12.1319 94.5682Z" fill="#573838"/>
<path d="M25.3263 94.4465C26.4512 93.3045 28.0256 92.5957 29.7368 92.5957C31.4675 92.5957 33.0224 93.3045 34.1641 94.4465C35.2696 95.5885 35.9814 97.1435 35.9814 98.8734C35.9814 100.601 35.2723 102.159 34.1641 103.301C33.0224 104.46 31.4675 105.152 29.7368 105.152C28.0256 105.152 26.4512 104.46 25.3263 103.301C24.2208 102.159 23.5117 100.601 23.5117 98.8734C23.5117 97.1462 24.2208 95.5885 25.3263 94.4465ZM32.9023 95.7112C32.0733 94.8824 30.9483 94.3796 29.7368 94.3796C28.5253 94.3796 27.4198 94.8824 26.6075 95.7112C25.7952 96.507 25.2927 97.6316 25.2927 98.8771C25.2927 100.122 25.7952 101.246 26.6075 102.042C27.4198 102.872 28.5281 103.374 29.7368 103.374C30.9483 103.374 32.0704 102.872 32.9023 102.042C33.698 101.246 34.2004 100.138 34.2004 98.8771C34.1976 97.6124 33.698 96.507 32.9023 95.7112Z" fill="#573838"/>
<path d="M39.4896 104.927H37.7422V92.8203H39.1603L43.1548 98.6996L47.1495 92.8203H48.5341V104.927H46.8062V96.3992L43.6406 101.105H42.6552L39.4896 96.3992V104.927Z" fill="#573838"/>
<path d="M48.3979 104.927H46.6504V92.8203H48.0685L52.0631 98.6996L56.0578 92.8203H57.4424V104.927H55.7116V96.3992L52.546 101.105H51.5606L48.3979 96.3992V104.927Z" fill="#573838"/>
<path d="M59.5176 101.295V92.8369H61.2818V101.312C61.2818 102.644 62.7167 103.302 63.998 103.302C65.2597 103.302 66.6946 102.627 66.6946 101.295V92.8369H68.4587V101.312C68.4587 103.769 66.072 105.047 63.998 105.047C61.8709 105.047 59.5176 103.769 59.5176 101.295Z" fill="#573838"/>
<path d="M70.7246 104.927V92.8203H72.0729L77.9686 101.345V92.8203H79.6993V104.927H78.3147L72.4694 96.4688V104.927H70.7246Z" fill="#573838"/>
<path d="M92.7053 104.927V94.4815H89.0371V92.8203H98.1011V94.4815H94.4498V104.927H92.7053Z" fill="#573838"/>
<path d="M101.025 92.8203L104.328 98.1465L107.63 92.8203H109.706L105.21 99.9973V104.927H103.445V99.9973L98.9648 92.8203H101.025Z" fill="#573838"/>
</g>
</svg>
