<svg width="212" height="78" viewBox="0 0 212 78" fill="none" xmlns="http://www.w3.org/2000/svg">
<path d="M0 74.3971V70.1219H3.22736L3.68842 73.014C4.06564 73.4331 4.61052 73.7684 5.32305 74.0199C6.03559 74.2714 6.83195 74.3971 7.71214 74.3971C9.34678 74.3971 10.6042 73.8522 11.5682 72.7625C12.5322 71.6727 13.0771 70.2057 13.2028 68.3615L13.1609 68.2777H5.53262V64.9246H13.1609L13.2028 64.8408C13.0352 62.9966 12.4903 61.5296 11.5682 60.4398C10.6042 59.3501 9.30486 58.7633 7.62831 58.7633C6.70621 58.7633 5.95176 58.889 5.28114 59.1405C4.61052 59.392 4.10755 59.7273 3.68842 60.1464L3.22736 63.0385H0V58.7633C0.88019 57.7573 2.01186 56.961 3.3531 56.3323C4.69435 55.7455 6.24516 55.4102 7.92171 55.4102C10.8138 55.4102 13.1609 56.4161 14.9632 58.428C16.7655 60.4398 17.6457 63.0385 17.6457 66.2239V66.9365C17.6457 70.1219 16.7236 72.6786 14.9213 74.6905C13.119 76.7024 10.7718 77.7083 7.8798 77.7083C6.20324 77.7083 4.65243 77.4149 3.31119 76.8281C2.01186 76.2413 0.88019 75.445 0 74.3971Z" fill="#6EB52C"/>
<path d="M19.5742 77.4146V74.774L21.8795 74.313V64.1698L19.5742 63.8764V61.2358H28.2085V63.8764L26.2385 64.1698V67.1876H27.7474L30.1784 63.7088C30.7652 62.7867 31.4358 62.116 32.1064 61.655C32.7771 61.1939 33.6153 60.9844 34.5794 60.9844C35.0823 60.9844 35.5434 61.0682 35.9206 61.1939C36.2978 61.3197 36.717 61.5293 37.0942 61.7807L36.3816 64.547C36.0883 64.4632 35.8787 64.4213 35.8368 64.3794C35.7529 64.3794 35.6272 64.3375 35.4176 64.3375C35.1242 64.3375 34.7889 64.4632 34.4536 64.6728C34.1183 64.9243 33.8249 65.2177 33.6153 65.553L31.5197 68.6546L35.25 74.3549L37.4295 74.7321V77.3727H31.4358L27.9151 71.2533H26.2385V74.313L28.2085 74.774V77.4146H19.5742Z" fill="#6EB52C"/>
<path d="M38.0996 69.5359V69.2425C38.0996 66.8534 38.7702 64.8834 40.1115 63.3326C41.4527 61.7818 43.3388 61.0273 45.686 61.0273C48.0751 61.0273 49.9612 61.7818 51.3025 63.3326C52.6437 64.8834 53.3143 66.8534 53.3143 69.2425V69.5359C53.3143 71.9669 52.6437 73.9368 51.3025 75.4457C49.9612 76.9546 48.0751 77.751 45.7279 77.751C43.3388 77.751 41.4527 76.9965 40.1115 75.4457C38.7702 73.9368 38.0996 71.9669 38.0996 69.5359ZM42.4586 69.5359C42.4586 71.0028 42.7101 72.1764 43.2131 73.0566C43.7161 73.9368 44.5543 74.3979 45.7279 74.3979C46.8596 74.3979 47.656 73.9368 48.2008 73.0566C48.7038 72.1764 48.9972 71.0028 48.9972 69.5359V69.2425C48.9972 67.8174 48.7457 66.6438 48.2008 65.7636C47.656 64.8415 46.8596 64.4224 45.7279 64.4224C44.5962 64.4224 43.758 64.8834 43.255 65.7636C42.752 66.6438 42.5006 67.8174 42.5006 69.2425L42.4586 69.5359Z" fill="#6EB52C"/>
<path d="M55.1172 77.4154V74.7748L57.4224 74.3138V58.7637L55.1172 58.3027V55.6621H64.0029V58.3027L61.7815 58.7637V64.5478H66.7692L67.4818 65.8053L73.4754 74.3976L75.7388 74.7748V77.4154H67.1464V74.7748L68.4039 74.6072L64.3382 68.5297H61.7815V74.3557L64.0029 74.8167V77.4573L55.1172 77.4154Z" fill="#4B494A"/>
<path d="M76.6602 69.5359V69.2425C76.6602 66.8534 77.3308 64.8834 78.672 63.3326C80.0133 61.7818 81.8994 61.0273 84.2466 61.0273C86.6356 61.0273 88.5218 61.7818 89.863 63.3326C91.2042 64.8834 91.8749 66.8534 91.8749 69.2425V69.5359C91.8749 71.9669 91.2042 73.9368 89.863 75.4457C88.5218 76.9546 86.6356 77.751 84.2885 77.751C81.8994 77.751 80.0133 76.9965 78.672 75.4457C77.3308 73.9368 76.6602 71.9669 76.6602 69.5359ZM81.0192 69.5359C81.0192 71.0028 81.2707 72.1764 81.8156 73.0566C82.3185 73.9368 83.1568 74.3979 84.3304 74.3979C85.4621 74.3979 86.2584 73.9368 86.8033 73.0566C87.3063 72.1764 87.5997 71.0028 87.5997 69.5359V69.2425C87.5997 67.8174 87.3482 66.6438 86.8033 65.7636C86.2584 64.8415 85.4621 64.4224 84.3304 64.4224C83.1987 64.4224 82.3604 64.8834 81.8575 65.7636C81.3545 66.6857 81.0611 67.8174 81.0611 69.2425L81.0192 69.5359Z" fill="#4B494A"/>
<path d="M94.2227 77.416V74.7755L96.5279 74.3144V64.3389L94.2227 63.8779V61.2373H96.5279H101.893L106 72.3026H106.084L110.234 61.2373H115.683H117.988V63.8779L115.683 64.3389V74.3144L117.988 74.7755V77.416H109.689V74.7755L111.323 74.3144V67.8178H111.24L107.509 77.458H104.575L100.929 68.0273H100.845V74.3982L102.48 74.8593V77.4999L94.2227 77.416Z" fill="#4B494A"/>
<path d="M120.418 77.416V74.7755L122.723 74.3144V64.297L120.418 63.8779V61.2373H139.07V63.8779L136.764 64.297V74.3144L139.07 74.7755V77.416H130.519V74.7755L132.405 74.3144V64.5904H127.082V74.3144L128.926 74.7755V77.416H120.418Z" fill="#4B494A"/>
<path d="M141.207 69.5359V69.2425C141.207 66.8534 141.878 64.8834 143.219 63.3326C144.56 61.7818 146.446 61.0273 148.793 61.0273C151.183 61.0273 153.069 61.7818 154.41 63.3326C155.751 64.8834 156.422 66.8534 156.422 69.2425V69.5359C156.422 71.9669 155.751 73.9368 154.41 75.4457C153.069 76.9546 151.183 77.751 148.835 77.751C146.446 77.751 144.56 76.9965 143.219 75.4457C141.878 73.9368 141.207 71.9669 141.207 69.5359ZM145.566 69.5359C145.566 71.0028 145.818 72.1764 146.362 73.0566C146.865 73.9368 147.704 74.3979 148.877 74.3979C150.009 74.3979 150.805 73.9368 151.35 73.0566C151.853 72.1764 152.147 71.0028 152.147 69.5359V69.2425C152.147 67.8174 151.895 66.6438 151.35 65.7636C150.805 64.8415 150.009 64.4224 148.877 64.4224C147.746 64.4224 146.907 64.8834 146.404 65.7636C145.901 66.6438 145.608 67.8174 145.608 69.2425L145.566 69.5359Z" fill="#4B494A"/>
<path d="M158.434 72.7632V72.6794H162.667C162.667 73.1824 162.876 73.6015 163.338 73.8949C163.799 74.2302 164.427 74.3979 165.266 74.3979C166.062 74.3979 166.691 74.2302 167.068 73.853C167.445 73.4757 167.655 73.0147 167.655 72.5117C167.655 71.8411 167.445 71.3801 167.068 71.0867C166.691 70.7933 166.062 70.6256 165.224 70.6256H162.918V67.985H165.224C165.978 67.985 166.481 67.8174 166.858 67.524C167.194 67.2306 167.361 66.7695 167.361 66.2247C167.361 65.7217 167.194 65.2606 166.858 64.9253C166.523 64.59 165.978 64.3804 165.224 64.3804C164.511 64.3804 163.966 64.5062 163.505 64.7996C163.086 65.093 162.835 65.4702 162.835 65.9313H158.601L158.559 66.0151C158.517 64.5062 159.104 63.3326 160.32 62.4105C161.535 61.4884 163.086 61.0273 164.93 61.0273C166.984 61.0273 168.619 61.4465 169.834 62.2848C171.05 63.123 171.636 64.3385 171.636 65.8893C171.636 66.6019 171.427 67.2306 170.966 67.8174C170.505 68.4042 169.918 68.8652 169.122 69.2005C170.002 69.4939 170.714 69.955 171.175 70.5418C171.636 71.1286 171.888 71.883 171.888 72.7213C171.888 74.2721 171.259 75.4876 169.96 76.3678C168.661 77.248 166.984 77.709 164.888 77.709C163.044 77.709 161.451 77.2899 160.152 76.4097C159.02 75.6134 158.392 74.3559 158.434 72.7632Z" fill="#4B494A"/>
<path d="M174.486 77.416V74.7755L176.792 74.3144V64.3389L174.486 63.8779V61.2373H181.151H183.246V63.8779L181.151 64.3389V71.0451H181.234L186.474 61.2373H190.833H193.138V63.8779L190.833 64.3389V74.3144L193.138 74.7755V77.416H184.378V74.7755L186.474 74.3144V67.5663H186.39L181.151 77.416H174.486Z" fill="#4B494A"/>
<path d="M195.148 66.811V61.3203H211.998V66.811H208.645L208.477 64.6734H205.711V74.3974L208.016 74.8585V77.499H199.005V74.8585L201.31 74.3974V64.6734H198.627L198.46 66.811H195.148Z" fill="#4B494A"/>
<path d="M63.5 65.511L68.1524 58.7209C68.823 57.715 69.4937 56.9605 70.2481 56.4576C70.9607 55.9546 71.8828 55.7031 72.9725 55.7031C73.5174 55.7031 74.0204 55.787 74.4395 55.9127C74.8586 56.0803 75.3197 56.2899 75.7388 56.5414L74.9425 59.5592C74.6072 59.4754 74.3976 59.4334 74.3138 59.3915C74.2299 59.3496 74.0623 59.3496 73.8527 59.3496C73.5174 59.3496 73.1821 59.4754 72.8049 59.7269C72.4276 59.9783 72.1342 60.3136 71.8828 60.6909L67.859 66.8941L63.5 65.511Z" fill="#4B494A"/>
<path d="M108.852 22.8433C111.366 21.2505 113.923 19.6159 116.48 17.9813C118.659 16.5562 120.839 15.1311 122.977 13.7061C122.893 18.2747 122.809 22.8852 122.767 27.4538C118.115 25.903 113.462 24.3941 108.852 22.8433Z" fill="#90C03C"/>
<path d="M107.886 5.36523L122.136 12.9097L107.844 22.2146L107.886 5.36523Z" fill="#59A632"/>
<path d="M96.2773 19.1973C98.9179 23.4725 101.558 27.7058 104.199 31.981C104.954 29.3404 105.708 26.6579 106.462 24.0174C103.025 22.3827 99.6304 20.79 96.2773 19.1973Z" fill="#59A632"/>
<path d="M82.9899 24.5195C86.6364 22.7591 90.2829 21.0407 93.9294 19.2803C91.1212 24.1423 88.313 29.0043 85.5467 33.8663C84.918 33.0699 84.4988 32.2735 84.2054 31.6867C84.0797 31.3934 83.5767 30.3874 83.1995 28.9624C83.0318 28.3756 82.9061 27.7049 82.8223 26.7409C82.8223 25.8607 82.9061 25.0644 82.9899 24.5195Z" fill="#226F30"/>
<path d="M83.2422 22.0896C83.326 22.1734 83.4518 22.2992 83.6194 22.383C84.0805 22.5926 84.5834 22.4249 84.7511 22.3411C85.9666 21.88 88.3557 20.7903 88.9844 20.4969C88.9844 20.4969 92.6309 18.946 93.6368 18.4012C93.7206 18.3593 93.9302 18.2335 94.014 18.0239C94.0979 17.8144 94.014 17.6048 93.9721 17.521C93.9721 17.521 92.3794 13.4134 90.7867 11.2758C90.7448 11.2339 90.6609 11.1082 90.4933 11.0243C90.3675 10.9824 90.2418 10.9824 90.158 10.9824C89.6131 11.5273 88.9005 12.2398 88.1461 13.1619C87.9365 13.4134 86.8468 14.6708 86.0085 15.8863C85.2541 17.1018 84.0805 19.1137 83.2422 22.0896Z" fill="#226F30"/>
<path d="M95.2706 19.2383C92.4205 23.9326 89.5703 28.8785 86.7621 34.0758C85.2113 36.9678 83.7024 39.818 82.2773 42.6262C84.2054 39.8599 87.9357 34.2853 88.0195 34.2853C93.0911 33.8662 98.3303 33.4051 103.402 32.986C100.677 28.3755 97.995 23.8069 95.2706 19.2383Z" fill="#59A632"/>
<path d="M106.88 5.36523C103.276 9.55661 99.671 13.7061 96.0664 17.8975C99.6291 19.5321 103.15 21.1248 106.713 22.7595C106.754 16.9754 106.838 11.1493 106.88 5.36523Z" fill="#59A632"/>
<path d="M108.055 23.7236C107.259 26.5319 106.462 29.382 105.666 32.1902L121.803 28.0408C117.192 26.6157 112.624 25.1906 108.055 23.7236Z" fill="#90C03C"/>
<path d="M106.252 32.9857C108.264 34.5365 110.234 36.1293 112.246 37.6801C113.629 36.7999 115.305 35.5844 116.982 33.9916C118.826 32.2313 120.209 30.4709 121.215 29.0039C116.186 30.3451 111.24 31.6445 106.252 32.9857Z" fill="#90C03C"/>
<path d="M95.1031 16.9749C95.4384 16.7653 95.6899 16.5558 95.8575 16.43C96.4443 15.9271 96.5282 15.6756 97.4084 14.6277C97.576 14.4182 97.9113 14.0829 98.54 13.3284C98.54 13.3284 99.1268 12.6578 99.7975 11.8614C102.019 9.30468 105.33 5.4067 105.33 5.4067C105.33 5.4067 104.534 5.32287 103.109 5.49052C102.019 5.61626 100.845 5.78392 99.2526 6.20306C98.7915 6.3288 98.079 6.53838 97.1988 6.87369C95.648 7.50239 94.4744 8.17301 93.5942 8.71789C93.5942 8.71789 93.5104 8.75981 91.75 9.84957C91.75 10.1849 91.75 10.6459 91.9596 11.1908C92.0853 11.568 92.253 11.7776 92.5883 12.3225C92.8398 12.7835 93.0912 13.2446 93.3427 13.6637C93.7619 14.4182 94.3067 15.3822 95.1031 16.9749Z" fill="#226F30"/>
<path d="M87.8945 35.5429C88.0203 35.3753 88.0622 35.2495 88.146 35.1238C93.4691 34.7466 98.7502 34.3274 104.073 33.9502L102.858 40.7402C102.229 40.866 101.349 41.0336 100.259 41.0755C96.4869 41.1594 93.6786 39.6505 92.2536 38.896C91.08 38.2254 89.5292 37.3033 87.8945 35.5429Z" fill="#59A632"/>
<path d="M105.332 33.9502L104.074 40.9917C105.08 40.866 106.296 40.6145 107.637 40.1115C109.272 39.5247 110.613 38.7703 111.577 38.1416C109.481 36.7584 107.385 35.3334 105.332 33.9502Z" fill="#90C03C"/>
<path d="M110.863 5.78355C112.372 5.86738 113.965 5.86738 115.641 5.82546C117.653 5.78355 119.581 5.65781 121.342 5.44824C121.761 6.2446 122.18 6.99904 122.599 7.7954C122.683 8.63368 122.767 9.47196 122.851 10.3521C122.893 10.897 122.934 11.4419 122.976 11.9868L122.348 11.9449L110.863 5.78355Z" fill="#59A632"/>
<path d="M123.604 7.20917L124.4 4.77817C126.16 4.27521 128.13 3.64649 130.184 2.7663C132.322 1.88611 134.166 0.922104 135.759 0C133.621 2.1376 131.986 3.81416 130.855 5.02966C130.058 5.86793 129.262 6.66429 128.507 7.50257C127.25 8.88572 126.579 9.64017 125.406 10.688C124.777 11.2329 124.232 11.652 123.855 11.9035C123.813 10.3108 123.729 8.75998 123.604 7.20917Z" fill="#59A632"/>
<path d="M125.197 12.6587C127.628 10.0181 129.431 8.21581 130.646 7.00031C131.233 6.45543 132.239 5.44951 133.454 3.98253C134.293 2.93468 134.963 2.05449 135.382 1.42578C132.448 8.42539 130.185 13.497 129.934 13.7065C129.598 13.958 129.263 14.0837 129.263 14.0837C128.844 14.2095 128.383 14.0418 128.299 14.0418C127.754 13.9161 127.125 13.497 126.455 13.1616C126.161 12.994 125.742 12.8263 125.197 12.6587Z" fill="#90C03C"/>
<path d="M124.192 13.6221L124.066 24.7711C124.821 23.4718 125.45 22.424 125.911 21.6276C127.084 19.5738 126.623 20.2864 126.917 19.8253C127.21 19.3223 127.461 18.9451 127.713 18.3164C127.964 17.6039 127.964 17.2686 127.964 17.1428C127.922 16.556 127.713 16.1369 127.587 15.9273C127.294 15.3824 126.875 15.0471 126.665 14.9214C126.372 14.7118 126.204 14.628 125.408 14.2508C124.863 13.9574 124.444 13.7478 124.192 13.6221Z" fill="#90C03C"/>
</svg>
