<svg width="147" height="95" viewBox="0 0 147 95" fill="none" xmlns="http://www.w3.org/2000/svg">
<path fill-rule="evenodd" clip-rule="evenodd" d="M53.9297 64.5584H62.3119L88.1159 38.7454H92.6356L99.0912 32.2988H73.2872L79.7337 38.7454L53.9297 64.5584Z" fill="#939598"/>
<path fill-rule="evenodd" clip-rule="evenodd" d="M92.6397 38.7454V43.2652L71.3555 64.5584H79.7378L92.6397 51.6474L99.0953 58.1029V32.2988L92.6397 38.7454Z" fill="#BCBEC0"/>
<path fill-rule="evenodd" clip-rule="evenodd" d="M99.0938 38.7459V47.1372L120.378 25.8439H124.898L131.353 19.3975H105.549L111.996 25.8439L99.0938 38.7459Z" fill="#70CBE7"/>
<path fill-rule="evenodd" clip-rule="evenodd" d="M124.897 25.8439V30.3637L91.125 64.5589H99.5072L124.897 38.7459L131.353 45.2014V19.3975L124.897 25.8439Z" fill="#BCBEC0"/>
<path fill-rule="evenodd" clip-rule="evenodd" d="M92.6361 32.2996H84.2539L105.547 11.0063V6.48654L111.994 0.0400391V25.844L105.547 19.3975L92.6361 32.2996Z" fill="#195A85"/>
<path fill-rule="evenodd" clip-rule="evenodd" d="M105.551 6.48654H101.031L79.7383 27.7797V19.3975L92.6402 6.48654L86.1937 0.0400391H111.998L105.551 6.48654Z" fill="#BCBEC0"/>
<path fill-rule="evenodd" clip-rule="evenodd" d="M41.5404 64.5585H33.1582L73.2868 23.9076V19.3968L79.7333 12.9414V38.7454L73.2868 32.2989L41.5404 64.5585Z" fill="#195A85"/>
<path fill-rule="evenodd" clip-rule="evenodd" d="M73.2912 19.3968H68.7715L23.61 64.5585H15.2188L60.3802 19.3968L53.9337 12.9414H79.7379L73.2912 19.3968Z" fill="#70CBE7"/>
<path fill-rule="evenodd" clip-rule="evenodd" d="M94.412 89.9579C93.8718 90.2281 92.6653 90.5162 91.0987 90.5162C86.633 90.5162 84.3371 87.7431 84.3371 84.0607C84.3371 79.658 87.4793 77.209 91.3868 77.209C92.8995 77.209 94.0518 77.5151 94.5651 77.7852L93.9708 80.0991C93.3765 79.847 92.5572 79.6219 91.5218 79.6219C89.208 79.6219 87.4073 81.0175 87.4073 83.8896C87.4073 86.4736 88.9378 88.1033 91.5398 88.1033C92.4222 88.1033 93.3946 87.9142 93.9708 87.6801L94.412 89.9579ZM0.0090035 77.5872C0.909353 77.434 2.16984 77.3171 3.95254 77.3171C5.75323 77.3171 7.03173 77.6592 7.89606 78.3525C8.71538 79.0006 9.2736 80.0721 9.2736 81.3416C9.2736 82.6111 8.85043 83.6825 8.08513 84.4028C7.08575 85.3392 5.61818 85.7624 3.88951 85.7624C3.50236 85.7624 3.16022 85.7443 2.89013 85.7083V90.3271H0V77.5872H0.0090035ZM2.8972 83.4486C3.14929 83.5026 3.45541 83.5206 3.86957 83.5206C5.41817 83.5206 6.38155 82.7374 6.38155 81.4139C6.38155 80.2254 5.56223 79.5141 4.10367 79.5141C3.50944 79.5141 3.10428 79.5681 2.8972 79.6311V83.4486ZM12.801 86.5729C12.9001 87.7794 14.0885 88.3556 15.4481 88.3556C16.4474 88.3556 17.2487 88.2205 18.0321 87.9685L18.4192 89.9403C17.4648 90.3274 16.2944 90.5164 15.0249 90.5164C11.8467 90.5164 10.028 88.6797 10.028 85.7446C10.028 83.3676 11.5045 80.7477 14.7548 80.7477C17.7799 80.7477 18.9324 83.1065 18.9324 85.4204C18.9324 85.9157 18.8784 86.3568 18.8334 86.5729H12.801ZM16.2224 84.5832C16.2224 83.8718 15.9162 82.6834 14.5746 82.6834C13.3502 82.6834 12.855 83.7908 12.774 84.5832H16.2224ZM20.9961 80.9636H24.7146L25.7319 84.511L25.7976 84.7493L25.798 84.7506C25.9547 85.3183 26.18 86.1351 26.3443 86.87H26.3983C26.5632 86.2447 26.8538 85.2761 27.1166 84.4004L27.1456 84.3039L28.181 80.9726H31.8544L32.4306 90.3362H29.7295L29.5765 86.5818C29.5678 86.1966 29.5509 85.6822 29.5326 85.1279L29.5324 85.1259V85.1241C29.5127 84.5266 29.4914 83.8829 29.4774 83.3045H29.4234C29.3117 83.6901 29.2285 83.9854 29.1528 84.2547C28.9843 84.8531 28.8522 85.3224 28.5231 86.3657L27.2805 90.1743H25.1557L24.0484 86.4557C23.8183 85.634 23.5431 84.4597 23.3395 83.5901L23.2831 83.3496H23.2019C23.1894 83.7606 23.179 84.1908 23.1688 84.6096C23.15 85.3829 23.1322 86.1188 23.1029 86.6269L22.9499 90.3273H20.3479L20.9961 80.9636ZM33.5449 79.8647H37.0111V90.3179H39.9372V79.8647H43.4576V77.4159H33.5449V79.8647ZM43.4148 80.9544C43.4508 81.8188 43.4869 82.8722 43.4869 84.0967H43.5049V94.1176H46.413V89.4628H46.4491C46.8722 90.075 47.7546 90.5341 48.8799 90.5341C50.9688 90.5341 53.1295 88.9316 53.1295 85.5193C53.1295 82.5301 51.2928 80.7474 49.2401 80.7474C47.8806 80.7474 46.8092 81.2606 46.1159 82.2599H46.0798L45.9449 80.9544H43.4148ZM46.4491 86.9147C46.413 86.7437 46.3949 86.5367 46.3949 86.3025H46.386V85.0151C46.386 84.844 46.404 84.6549 46.44 84.5018C46.638 83.6376 47.3674 83.0252 48.1867 83.0252C49.4922 83.0252 50.1584 84.1507 50.1584 85.6453C50.1584 87.2389 49.4111 88.2922 48.1507 88.2922C47.3133 88.2922 46.638 87.6981 46.4491 86.9147ZM60.3118 90.327L60.1408 89.3906H60.0868C59.4745 90.1379 58.5202 90.5431 57.4036 90.5431C55.504 90.5431 54.3785 89.1656 54.3785 87.671C54.3785 85.24 56.5573 84.0695 59.8707 84.0875V83.9525C59.8707 83.4573 59.6005 82.7461 58.169 82.7461C57.2147 82.7461 56.1972 83.0701 55.585 83.4573L55.0448 81.5845C55.6931 81.2245 56.9805 80.7652 58.6821 80.7652C61.8064 80.7652 62.7968 82.602 62.7968 84.8078V88.0671C62.7968 88.9674 62.8327 89.8317 62.9318 90.3449H60.3118V90.327ZM59.9697 85.8972C58.4391 85.8792 57.2506 86.2393 57.2506 87.3738C57.2506 88.1211 57.7459 88.4812 58.4031 88.4812C59.1324 88.4812 59.7266 88.004 59.9157 87.4099C59.9517 87.2567 59.9697 87.0856 59.9697 86.9146V85.8972ZM67.9946 80.9636V84.3489H70.9477V80.9636H73.8738V90.3273H70.9477V86.6088H67.9946V90.3273H65.0864V80.9636H67.9946ZM80.6263 90.5162C81.7337 90.5162 82.715 90.3271 83.2283 90.093L82.8861 87.9321C82.445 88.1033 81.9137 88.2202 81.2204 88.2202C79.807 88.2202 78.6545 87.3199 78.6545 85.6003C78.6365 84.0696 79.6359 82.9802 81.1665 82.9802C81.9318 82.9802 82.454 83.1153 82.7962 83.2683L83.2553 81.1076C82.643 80.8824 81.7967 80.7474 81.0315 80.7474C77.5381 80.7474 75.6653 82.9893 75.6653 85.7263C75.6653 88.6794 77.601 90.5162 80.6263 90.5162ZM98.9643 83.8356V80.9635V80.9545H96.2182V90.3182H99.7566C99.9381 89.9097 100.125 89.4886 100.312 89.0652C100.794 87.977 101.283 86.8732 101.71 85.9334C102.088 85.051 102.323 84.4388 102.683 83.4034H102.755C102.725 84.0055 102.697 84.4815 102.673 84.8929L102.673 84.8949C102.619 85.8418 102.584 86.4477 102.584 87.464V90.3182H105.339V80.9545H101.773L99.9547 84.979C99.7503 85.4557 99.5829 85.8877 99.4025 86.3532L99.4019 86.3547L99.4013 86.3563C99.2483 86.7513 99.0855 87.171 98.8832 87.662L98.8111 87.6441L98.8213 87.4882C98.8981 86.2955 98.9643 85.2682 98.9643 83.8356ZM114.695 90.093C114.182 90.3271 113.201 90.5162 112.094 90.5162C109.068 90.5162 107.133 88.6794 107.133 85.7263C107.133 82.9893 109.005 80.7474 112.499 80.7474C113.264 80.7474 114.11 80.8824 114.723 81.1076L114.263 83.2683C113.921 83.1153 113.399 82.9802 112.634 82.9802C111.103 82.9802 110.104 84.0696 110.122 85.6003C110.122 87.3199 111.274 88.2202 112.688 88.2202C113.381 88.2202 113.912 88.1033 114.353 87.9321L114.695 90.093ZM123.996 83.1875V80.9636H115.632V83.1875H118.351V90.3273H121.277V83.1875H123.996ZM130.022 88.3556C128.653 88.3556 127.474 87.7794 127.375 86.5729H133.416C133.461 86.3568 133.515 85.9157 133.515 85.4204C133.515 83.1065 132.363 80.7477 129.338 80.7477C126.087 80.7477 124.611 83.3676 124.611 85.7446C124.611 88.6797 126.429 90.5164 129.608 90.5164C130.868 90.5164 132.039 90.3274 132.993 89.9403L132.606 87.9685C131.823 88.2205 131.021 88.3556 130.022 88.3556ZM129.157 82.6834C130.499 82.6834 130.805 83.8718 130.805 84.5832H127.357C127.429 83.7908 127.933 82.6834 129.157 82.6834ZM139.284 80.9636H135.566L134.926 90.3273H137.528L137.682 86.6269C137.711 86.1187 137.728 85.383 137.747 84.6094C137.758 84.1905 137.768 83.7606 137.78 83.3496H137.853C137.87 83.4266 137.89 83.5069 137.909 83.59C138.113 84.4597 138.387 85.634 138.618 86.4557L139.725 90.1743H141.85L143.092 86.3657C143.421 85.3224 143.554 84.8531 143.722 84.2547C143.798 83.9854 143.881 83.6901 143.993 83.3045H144.047C144.061 83.8841 144.083 84.5293 144.101 85.1279C144.12 85.6822 144.138 86.1966 144.146 86.5818L144.299 90.3362H147L146.424 80.9726H142.75L141.715 84.3039L141.687 84.4002C141.423 85.2759 141.133 86.2447 140.968 86.87H140.914C140.75 86.1343 140.524 85.3171 140.368 84.7493C140.344 84.6639 140.321 84.584 140.302 84.511L139.284 80.9636Z" fill="black"/>
</svg>
