<svg width="158" height="64" viewBox="0 0 158 64" fill="none" xmlns="http://www.w3.org/2000/svg">
<g clip-path="url(#clip0_241_1083)">
<path fill-rule="evenodd" clip-rule="evenodd" d="M28.2836 25.4C25.2241 26.938 22.7645 29.0231 20.9052 31.6555C19.2618 31.481 17.7934 31.075 16.4999 30.4377C14.719 29.5249 13.3571 28.2435 12.4142 26.5934C11.4714 24.9084 10.9999 22.9072 10.9999 20.5902C10.9999 18.2731 11.4714 16.2896 12.4142 14.6395C13.3571 12.9544 14.719 11.673 16.4999 10.7953C18.2809 9.88258 20.3936 9.42619 22.8379 9.42619C24.9681 9.42619 26.8363 9.74215 28.4427 10.3741C30.084 11.006 31.411 11.9188 32.4237 13.1124C33.4363 14.2709 34.1173 15.6928 34.4665 17.3778H45.3617C44.9776 13.9023 43.7903 10.8656 41.7999 8.26766C39.8094 5.63465 37.1903 3.59845 33.9428 2.15908C30.73 0.71969 27.0285 0 22.8379 0C18.2635 0 14.265 0.860117 10.8428 2.58035C7.42061 4.30059 4.74918 6.70541 2.82856 9.7948C0.942853 12.8842 0 16.4827 0 20.5902C0 24.6976 0.942853 28.2961 2.82856 31.3855C4.74918 34.475 7.42061 36.8798 10.8428 38.6C12.8834 39.6257 15.1288 40.3456 17.5792 40.7598C17.4869 41.6182 17.4408 42.5015 17.4408 43.4098C17.4408 47.5173 18.3837 51.1158 20.2694 54.2052C22.19 57.2946 24.8615 59.6993 28.2836 61.4197C31.7059 63.1398 35.7043 64 40.2788 64C44.4693 64 48.1708 63.2804 51.3836 61.8409C54.6311 60.4015 57.2502 58.3829 59.2407 55.785C61.2311 53.152 62.4184 50.0976 62.8025 46.6222H51.9073C51.5581 48.3423 50.8771 49.7993 49.8645 50.9929C48.8518 52.1866 47.5248 53.0817 45.8835 53.6787C44.2771 54.2754 42.409 54.5738 40.2788 54.5738C37.8344 54.5738 35.7217 54.135 33.9408 53.2572C32.1598 52.3445 30.7979 51.0632 29.8551 49.4131C28.9122 47.7279 28.4407 45.7269 28.4407 43.4098C28.4407 41.0928 28.9122 39.1093 29.8551 37.4592C30.7979 35.7742 32.1598 34.4927 33.9408 33.6151C35.7217 32.7023 37.8344 32.2459 40.2788 32.2459C42.409 32.2459 44.2771 32.5618 45.8835 33.1938C47.5248 33.8257 48.8518 34.7385 49.8645 35.932C50.8771 37.0906 51.5581 38.5125 51.9073 40.1975H62.8025C62.4184 36.7219 61.2311 33.6852 59.2407 31.0874C57.2502 28.4543 54.6311 26.4181 51.3836 24.9788C48.1708 23.5393 44.4693 22.8197 40.2788 22.8197C35.7043 22.8197 31.7059 23.6799 28.2836 25.4ZM55.338 3.46625V23.5318C54.5576 23.0852 53.7411 22.6731 52.8884 22.2952C51.3393 21.6011 49.6957 21.0466 47.9574 20.6315V3.46625H55.338ZM77.5182 20.8051C77.5835 19.7402 77.6162 19.1522 77.6162 19.0413C77.6162 17.0667 77.1699 15.3694 76.2772 13.9495C75.4063 12.5295 74.2198 11.4535 72.7174 10.7213C71.237 9.98913 69.5932 9.62305 67.7862 9.62305C65.8703 9.62305 64.1394 10.0224 62.5937 10.8211C61.0696 11.6199 59.8613 12.7403 58.9686 14.1824C58.0978 15.6023 57.6623 17.222 57.6623 19.0413C57.6623 20.8384 58.1086 22.458 59.0013 23.9002C59.8939 25.3423 61.1567 26.4738 62.7896 27.2947C64.4224 28.0934 66.3166 28.4928 68.4721 28.4928C71.9337 28.4928 74.5355 27.5166 76.2772 25.5642L72.4235 21.6038C71.7922 22.0919 71.2043 22.4358 70.66 22.6355C70.1376 22.8352 69.4843 22.935 68.7006 22.935C67.7862 22.935 67.0242 22.7575 66.4146 22.4026C65.8049 22.0254 65.3695 21.4929 65.1083 20.8051H77.5182ZM65.9573 15.3805C66.4581 14.9589 67.0895 14.7482 67.8515 14.7482C68.6136 14.7482 69.2449 14.97 69.7456 15.4138C70.2465 15.8353 70.573 16.4233 70.7254 17.1776H64.9777C65.1301 16.4011 65.4566 15.802 65.9573 15.3805ZM87.468 9.62305C90.6031 9.62305 92.9981 10.3441 94.6527 11.7863C96.3074 13.2062 97.1347 15.4027 97.1347 18.3757V28.16H90.2766V25.7638C89.4274 27.5831 87.7402 28.4928 85.2147 28.4928C83.7995 28.4928 82.5912 28.2487 81.5897 27.7606C80.6099 27.2503 79.8588 26.5737 79.3363 25.7306C78.8355 24.8653 78.5852 23.9002 78.5852 22.8352C78.5852 21.0381 79.2601 19.6736 80.6099 18.7418C81.9598 17.8099 84.0063 17.344 86.7495 17.344H89.7214C89.482 15.9241 88.3607 15.2141 86.3576 15.2141C85.5521 15.2141 84.7356 15.3472 83.9084 15.6134C83.081 15.8575 82.3734 16.2014 81.7856 16.6451L79.4342 11.6864C80.4575 11.043 81.6877 10.5438 83.1245 10.1888C84.5832 9.81164 86.0311 9.62305 87.468 9.62305ZM87.4354 23.9667C87.9578 23.9667 88.4261 23.8225 88.8396 23.5341C89.2533 23.2457 89.5581 22.813 89.7541 22.2362V20.9715H87.9252C86.423 20.9715 85.6719 21.4818 85.6719 22.5024C85.6719 22.9239 85.8243 23.2789 86.1291 23.5674C86.4556 23.8336 86.8911 23.9667 87.4354 23.9667ZM118.025 11.6531C116.697 10.2997 114.933 9.62305 112.734 9.62305C111.668 9.62305 110.677 9.80055 109.762 10.1555C108.848 10.5105 108.042 11.043 107.346 11.753V9.95585H100.324V28.16H107.705V19.607C107.705 18.3424 107.955 17.4217 108.456 16.8448C108.979 16.2458 109.654 15.9462 110.481 15.9462C111.94 15.9462 112.669 16.989 112.669 19.0746V28.16H120.05V17.7766C120.05 15.0477 119.375 13.0065 118.025 11.6531ZM98.6923 57.6V39.3958H91.3117V57.6H98.6923ZM91.7689 36.8666C92.5963 37.5765 93.674 37.9315 95.002 37.9315C96.3519 37.9315 97.4295 37.5654 98.2351 36.8333C99.0406 36.0789 99.4434 35.1249 99.4434 33.9712C99.4434 32.8841 99.0406 31.9966 98.2351 31.3088C97.4295 30.621 96.3519 30.2771 95.002 30.2771C93.674 30.2771 92.5963 30.6432 91.7689 31.3754C90.9633 32.0853 90.5606 32.995 90.5606 34.1043C90.5606 35.2137 90.9633 36.1344 91.7689 36.8666ZM86.0816 41.0931C84.7535 39.7397 82.99 39.063 80.791 39.063C78.8099 39.063 77.1335 39.6621 75.7618 40.8602V32.9062H68.3812V57.6H75.7618V49.047C75.7618 47.7824 76.0122 46.8617 76.5129 46.2848C77.0355 45.6858 77.7103 45.3862 78.5377 45.3862C79.9964 45.3862 80.7258 46.429 80.7258 48.5146V57.6H88.1064V47.2166C88.1064 44.4877 87.4315 42.4465 86.0816 41.0931ZM101.964 32.9062H109.344V57.6H101.964V32.9062ZM119.996 32.9062H112.616V57.6H119.996V32.9062ZM142.274 48.4813C142.274 48.5924 142.242 49.1802 142.177 50.2451H129.767C130.028 50.9329 130.463 51.4654 131.073 51.8426C131.682 52.1975 132.444 52.375 133.359 52.375C134.143 52.375 134.796 52.2752 135.318 52.0755C135.863 51.8758 136.451 51.532 137.082 51.0438L140.936 55.0042C139.194 56.9566 136.592 57.9328 133.13 57.9328C130.975 57.9328 129.081 57.5334 127.448 56.7347C125.815 55.9138 124.552 54.7823 123.66 53.3402C122.767 51.898 122.321 50.2784 122.321 48.4813C122.321 46.662 122.756 45.0424 123.627 43.6224C124.52 42.1803 125.728 41.0598 127.252 40.2611C128.798 39.4624 130.529 39.063 132.444 39.063C134.252 39.063 135.895 39.4291 137.376 40.1613C138.878 40.8934 140.065 41.9695 140.936 43.3894C141.828 44.8094 142.274 46.5068 142.274 48.4813ZM132.51 44.1882C131.748 44.1882 131.116 44.3989 130.616 44.8205C130.115 45.242 129.788 45.8411 129.636 46.6176H135.384C135.231 45.8634 134.905 45.2753 134.404 44.8538C133.903 44.41 133.272 44.1882 132.51 44.1882ZM157.405 39.063C154.858 39.063 152.931 39.8285 151.624 41.3594V39.3958H144.604V57.6H151.985V49.513C151.985 46.8949 153.247 45.5859 155.773 45.5859C156.274 45.5859 156.817 45.6303 157.405 45.719V39.063Z" fill="#047BD2"/>
</g>
<defs>
<clipPath id="clip0_241_1083">
<rect width="157.405" height="64" fill="white"/>
</clipPath>
</defs>
</svg>
