<svg width="167" height="81" viewBox="0 0 167 81" fill="none" xmlns="http://www.w3.org/2000/svg">
<path fill-rule="evenodd" clip-rule="evenodd" d="M29.3261 72.3102C42.8234 72.3102 53.7655 61.3683 53.7655 47.8708C53.7655 38.1823 49.862 32.3289 41.4221 19.6735C38.1038 14.6982 34.0848 8.67153 29.3261 0.947266C25.5272 6.66896 22.2864 11.4256 19.5292 15.4723C7.91901 32.5129 4.88672 36.9636 4.88672 47.8708C4.88672 61.3683 15.8286 72.3102 29.3261 72.3102ZM21.5055 65.956C4.88672 59.895 9.36724 43.879 13.6849 36.6288C10.3965 51.6091 15.7115 58.1227 19.1155 62.2945C20.2651 63.7032 21.197 64.8455 21.5055 65.956Z" fill="#1B46B4"/>
<path d="M29.0871 80.3939C49.8026 82.943 59.7113 63.2811 62.076 53.1319C56.755 49.5911 44.3398 44.2804 37.2457 51.3614C28.3776 60.2129 29.0871 56.6721 21.638 59.8585C24.121 66.5858 27.6681 65.6237 37.9549 63.8035C27.3134 70.5307 14.8982 68.71 10.6416 64.8153C7.2363 61.6998 2.12833 61.865 0 62.3372C1.06414 67.2939 8.37142 77.8449 29.0871 80.3939Z" fill="#36A548"/>
<path d="M87.2756 18.749H89.9267L86.4074 35.4069H83.7563L85.164 28.7438C84.554 28.9784 83.9049 29.1662 83.2167 29.3069C82.5285 29.432 81.8012 29.4946 81.0347 29.4946C79.7053 29.4946 78.6338 29.2834 77.8205 28.8612C77.0072 28.4388 76.4597 27.8054 76.1782 26.9607C75.9122 26.1161 75.92 25.0838 76.2015 23.8637L77.3747 18.749H79.9789L78.7589 24.1219C78.5242 25.2324 78.6495 26.0379 79.1343 26.5385C79.6192 27.0389 80.5264 27.2892 81.8559 27.2892C82.3095 27.2892 82.7631 27.2501 83.2167 27.1719C83.686 27.0936 84.1317 26.9921 84.554 26.8668C84.9763 26.7418 85.3438 26.5932 85.6567 26.4211L87.2756 18.749ZM93.2514 35.6416C91.3433 35.6416 90.3892 34.6249 90.3892 32.5916C90.3892 32.3101 90.4047 32.0129 90.4361 31.7C90.4829 31.3715 90.5455 31.0196 90.6237 30.6442L92.2426 23.1364H94.8L93.2984 30.1281C93.1889 30.6599 93.1342 31.1291 93.1342 31.5358C93.1342 32.8027 93.6738 33.4362 94.753 33.4362C95.2066 33.4362 95.6602 33.3345 96.1138 33.1312C96.5831 32.9278 97.0367 32.6306 97.4746 32.2397C97.9282 31.833 98.3271 31.348 98.6711 30.785L100.29 23.1364H102.871L100.923 32.3569C100.908 32.4351 100.892 32.5055 100.877 32.5681C100.861 32.6151 100.853 32.6619 100.853 32.7088C100.853 33.0217 101.033 33.1859 101.393 33.2016L100.947 35.4069C100.712 35.4383 100.509 35.4618 100.337 35.4773C100.165 35.5086 100.008 35.5243 99.8677 35.5243C99.3984 35.5243 99.0309 35.4226 98.765 35.2193C98.499 35.016 98.3661 34.7265 98.3661 34.3511C98.3661 34.2729 98.374 34.1792 98.3896 34.0696C98.4053 33.9445 98.4287 33.796 98.46 33.6239C98.4912 33.4362 98.5304 33.2016 98.5773 32.9201C97.8735 33.8116 97.0602 34.492 96.1373 34.9612C95.2144 35.4148 94.2525 35.6416 93.2514 35.6416ZM108.806 35.6416C107.742 35.6416 106.843 35.4069 106.107 34.9378C105.388 34.4685 104.841 33.8428 104.465 33.0608C104.09 32.2787 103.902 31.4107 103.902 30.4565C103.902 29.4712 104.09 28.5327 104.465 27.6411C104.841 26.7339 105.365 25.9284 106.037 25.2245C106.71 24.5208 107.5 23.9654 108.407 23.5587C109.33 23.1364 110.331 22.9253 111.41 22.9253C112.677 22.9253 113.686 23.2068 114.436 23.77C115.187 24.3173 115.68 25.0524 115.915 25.9753L113.24 26.773C113.068 26.2413 112.786 25.8346 112.395 25.553C112.02 25.2714 111.543 25.1306 110.964 25.1306C110.401 25.1306 109.854 25.2637 109.322 25.5295C108.806 25.7798 108.336 26.1396 107.914 26.6088C107.507 27.0624 107.179 27.5943 106.929 28.2041C106.694 28.7985 106.577 29.4477 106.577 30.1515C106.577 30.7928 106.686 31.3559 106.905 31.8408C107.124 32.3256 107.429 32.7167 107.82 33.0138C108.227 33.2953 108.688 33.4362 109.204 33.4362C109.596 33.4362 109.987 33.3659 110.378 33.225C110.784 33.0687 111.152 32.8652 111.48 32.6151C111.809 32.3491 112.059 32.0598 112.231 31.7469L114.601 32.4977C114.225 33.1077 113.733 33.6474 113.123 34.1166C112.528 34.5858 111.864 34.9612 111.128 35.2428C110.393 35.5086 109.619 35.6416 108.806 35.6416ZM118.663 23.1364H120.986L120.47 25.5999C121.08 24.7709 121.815 24.1219 122.675 23.6526C123.535 23.1678 124.419 22.9253 125.326 22.9253C125.952 22.9253 126.468 23.0426 126.875 23.2772C127.297 23.4962 127.61 23.8169 127.813 24.2391C128.016 24.6458 128.134 25.1385 128.165 25.7173C128.619 25.1073 129.104 24.5988 129.62 24.1922C130.152 23.77 130.707 23.4571 131.285 23.2537C131.88 23.0347 132.474 22.9253 133.069 22.9253C133.757 22.9253 134.297 23.0504 134.687 23.3007C135.094 23.5509 135.383 23.8951 135.556 24.333C135.727 24.7709 135.813 25.2792 135.813 25.8581C135.813 26.1396 135.79 26.4524 135.743 26.7965C135.697 27.1407 135.634 27.516 135.556 27.9226L133.96 35.4069H131.379L132.834 28.5327C132.959 27.9696 133.022 27.4769 133.022 27.0546C133.022 26.4289 132.888 25.9675 132.623 25.6703C132.357 25.3731 131.989 25.2245 131.52 25.2245C131.066 25.2245 130.605 25.3496 130.136 25.5999C129.682 25.8346 129.252 26.1709 128.845 26.6088C128.454 27.0468 128.11 27.5551 127.813 28.1338L126.288 35.4069H123.707L125.162 28.5327C125.24 28.2355 125.287 27.9696 125.303 27.735C125.334 27.4847 125.35 27.2501 125.35 27.0311C125.35 26.4054 125.224 25.9518 124.974 25.6703C124.724 25.3731 124.356 25.2245 123.872 25.2245C123.215 25.2245 122.542 25.4905 121.854 26.0223C121.166 26.554 120.61 27.2501 120.188 28.1104L118.616 35.4069H116.035L118.663 23.1364ZM142.165 35.5947C141.163 35.5947 140.288 35.4226 139.537 35.0785C138.803 34.7188 138.27 34.1713 137.942 33.4362C137.613 32.6855 137.55 31.7312 137.753 30.5739C138.004 29.3381 138.278 28.1026 138.575 26.8668C138.888 25.6156 139.193 24.3722 139.49 23.1364H142.07C141.774 24.3877 141.469 25.6469 141.156 26.9138C140.843 28.1808 140.57 29.4477 140.335 30.7146C140.162 31.6687 140.296 32.3726 140.733 32.8262C141.187 33.2798 141.774 33.5066 142.494 33.5066C143.182 33.5066 143.745 33.2953 144.183 32.8731C144.636 32.4351 144.909 31.8565 145.004 31.1369C145.098 30.4018 144.957 29.8231 144.581 29.4007C144.222 28.9784 143.564 28.7673 142.611 28.7673H139.842L140.148 26.82H143.15C143.902 26.82 144.565 26.9217 145.144 27.125C145.739 27.3283 146.224 27.6255 146.6 28.0165C146.99 28.4076 147.264 28.8845 147.42 29.4477C147.593 30.0107 147.624 30.6521 147.515 31.3715C147.374 32.3569 147.045 33.1703 146.529 33.8116C146.029 34.4372 145.402 34.8908 144.652 35.1723C143.902 35.4539 143.072 35.5947 142.165 35.5947ZM151.08 23.1364H153.661L151.057 35.4069H148.476L151.08 23.1364ZM157.382 35.6416C155.474 35.6416 154.519 34.6249 154.519 32.5916C154.519 32.3101 154.535 32.0129 154.567 31.7C154.614 31.3715 154.676 31.0196 154.754 30.6442L156.373 23.1364H158.93L157.429 30.1281C157.32 30.6599 157.264 31.1291 157.264 31.5358C157.264 32.8027 157.804 33.4362 158.884 33.4362C159.337 33.4362 159.791 33.3345 160.244 33.1312C160.714 32.9278 161.167 32.6306 161.605 32.2397C162.059 31.833 162.457 31.348 162.801 30.785L164.42 23.1364H167.001L165.053 32.3569C165.039 32.4351 165.023 32.5055 165.007 32.5681C164.991 32.6151 164.983 32.6619 164.983 32.7088C164.983 33.0217 165.163 33.1859 165.523 33.2016L165.077 35.4069C164.842 35.4383 164.639 35.4618 164.468 35.4773C164.295 35.5086 164.138 35.5243 163.998 35.5243C163.529 35.5243 163.161 35.4226 162.895 35.2193C162.63 35.016 162.497 34.7265 162.497 34.3511C162.497 34.2729 162.504 34.1792 162.52 34.0696C162.536 33.9445 162.559 33.796 162.59 33.6239C162.622 33.4362 162.66 33.2016 162.708 32.9201C162.004 33.8116 161.19 34.492 160.268 34.9612C159.345 35.4148 158.383 35.6416 157.382 35.6416ZM162.004 21.4941C161.285 21.4941 160.674 21.3768 160.173 21.1422C159.673 20.9076 159.298 20.5869 159.047 20.1802C158.814 19.7736 158.695 19.32 158.695 18.8195H160.103C160.088 19.2105 160.229 19.5546 160.525 19.8518C160.823 20.149 161.323 20.2976 162.027 20.2976C162.715 20.2976 163.209 20.1568 163.505 19.8752C163.818 19.5937 164.021 19.2418 164.116 18.8195H165.523C165.507 19.32 165.359 19.7736 165.077 20.1802C164.796 20.5869 164.397 20.9076 163.881 21.1422C163.364 21.3768 162.739 21.4941 162.004 21.4941Z" fill="#1B46B4"/>
<path d="M80.4217 63.0138C78.404 63.0138 76.9572 62.3803 76.0813 61.1134C75.221 59.8464 74.9942 58.0947 75.4009 55.8579C75.7763 53.7465 76.2925 52.0336 76.9494 50.7198C77.6062 49.3904 78.4274 48.3815 79.4128 47.6932C80.4139 46.9894 81.5948 46.5123 82.9556 46.262C83.5186 46.1526 84.0583 46.0666 84.5744 46.004C85.1062 45.9258 85.5676 45.8163 85.9587 45.6755C86.3653 45.5191 86.6548 45.2611 86.8267 44.9014L88.5629 45.6286C88.3908 46.3169 88.1093 46.8409 87.7183 47.2006C87.3274 47.5446 86.7799 47.8028 86.076 47.9749C85.3879 48.1468 84.4885 48.3268 83.3779 48.5144C82.3456 48.6865 81.4931 48.9836 80.8205 49.4059C80.1479 49.8126 79.5927 50.3758 79.1548 51.0952C78.7324 51.8147 78.3649 52.7297 78.052 53.8402C78.5682 53.0739 79.233 52.4794 80.0464 52.0571C80.8753 51.6192 81.8059 51.4002 82.8383 51.4002C83.9175 51.4002 84.809 51.6427 85.5129 52.1275C86.2324 52.5968 86.7485 53.2537 87.0614 54.0984C87.3742 54.943 87.4524 55.9128 87.296 57.0076C87.1239 58.1963 86.7407 59.2443 86.1463 60.1515C85.552 61.043 84.77 61.7469 83.8003 62.263C82.846 62.7635 81.7199 63.0138 80.4217 63.0138ZM80.6329 60.9257C81.7122 60.9257 82.5959 60.5816 83.2841 59.8935C83.9879 59.2052 84.4336 58.3058 84.6214 57.1953C84.7778 56.1161 84.6136 55.2324 84.1286 54.5441C83.6595 53.8402 82.893 53.4883 81.8294 53.4883C81.1882 53.4883 80.586 53.6447 80.0228 53.9576C79.4598 54.2548 78.9906 54.6849 78.6152 55.248C78.2398 55.7954 77.9895 56.4446 77.8644 57.1953C77.7548 57.8835 77.7862 58.5091 77.9583 59.0723C78.1302 59.6353 78.4431 60.0889 78.8967 60.433C79.3503 60.7615 79.929 60.9257 80.6329 60.9257ZM94.3624 63.0138C93.158 63.0138 92.1493 62.7402 91.3358 62.1927C90.5381 61.6295 89.9516 60.8866 89.5762 59.9638C89.2008 59.0253 89.0679 58.0008 89.1773 56.8903C89.2555 55.9831 89.4902 55.1306 89.8812 54.333C90.2723 53.5352 90.7885 52.8393 91.4297 52.2449C92.071 51.6349 92.8062 51.1578 93.6351 50.8137C94.4797 50.4695 95.3869 50.2976 96.3566 50.2976C97.1701 50.2976 97.9052 50.4227 98.5621 50.673C99.219 50.9231 99.743 51.2985 100.134 51.7991C100.541 52.2996 100.752 52.9253 100.768 53.6761C100.783 54.9273 100.244 55.8971 99.1486 56.5853C98.0694 57.2579 96.3723 57.5941 94.0574 57.5941C93.4944 57.5941 92.9 57.5863 92.2743 57.5707C91.6486 57.5394 90.9839 57.4925 90.28 57.4299L90.6789 55.6468C91.2733 55.6938 91.8364 55.7328 92.3682 55.7642C92.9 55.7797 93.4317 55.7875 93.9635 55.7875C95.0428 55.7875 95.8875 55.7093 96.4975 55.5529C97.1074 55.3966 97.5376 55.1698 97.7878 54.8726C98.0381 54.5755 98.1554 54.2234 98.1398 53.8168C98.1242 53.4883 98.0146 53.2146 97.8113 52.9957C97.6237 52.761 97.3734 52.589 97.0605 52.4794C96.7477 52.37 96.3958 52.3153 96.0047 52.3153C95.4572 52.3153 94.9411 52.4325 94.4563 52.6672C93.987 52.8861 93.5569 53.2068 93.1659 53.6291C92.7905 54.0515 92.4776 54.5441 92.2273 55.1071C91.9772 55.6703 91.8207 56.2803 91.7582 56.9372C91.6643 57.7349 91.7112 58.4466 91.899 59.0723C92.1023 59.6822 92.4386 60.1593 92.9077 60.5033C93.3927 60.8319 94.0027 60.9961 94.7378 60.9961C95.2383 60.9961 95.6762 60.9257 96.0516 60.785C96.4427 60.6442 96.7633 60.4721 97.0137 60.2688C97.2638 60.0654 97.4594 59.8856 97.6002 59.7292C97.7409 59.5728 97.8191 59.4711 97.8348 59.4242L100.017 60.128C99.9386 60.2375 99.7743 60.4486 99.524 60.7615C99.2738 61.0587 98.9218 61.3793 98.4682 61.7234C98.0146 62.0676 97.4437 62.3726 96.7555 62.6384C96.0829 62.8887 95.2853 63.0138 94.3624 63.0138ZM104.156 50.5087H106.432L105.963 52.714C106.573 51.9789 107.277 51.3924 108.074 50.9545C108.888 50.5165 109.732 50.2976 110.608 50.2976C111.5 50.2976 112.266 50.5321 112.908 51.0014C113.549 51.455 114.042 52.065 114.386 52.8314C114.73 53.5979 114.902 54.4502 114.902 55.3888C114.902 56.3742 114.722 57.3283 114.362 58.251C114.002 59.1582 113.51 59.9717 112.884 60.6911C112.274 61.4105 111.562 61.9815 110.749 62.4038C109.951 62.8105 109.107 63.0138 108.215 63.0138C107.292 63.0138 106.526 62.7792 105.916 62.3099C105.306 61.8408 104.876 61.2308 104.626 60.48L103.077 67.7765H100.496L104.156 50.5087ZM107.84 60.8084C108.434 60.8084 108.989 60.6676 109.505 60.3861C110.037 60.0889 110.499 59.7057 110.89 59.2364C111.297 58.7516 111.617 58.212 111.852 57.6176C112.086 57.0076 112.204 56.3976 112.204 55.7875C112.204 55.1775 112.086 54.6302 111.852 54.1452C111.633 53.6447 111.312 53.2459 110.89 52.9487C110.483 52.6515 109.998 52.5029 109.435 52.5029C109.122 52.5029 108.786 52.5655 108.426 52.6907C108.082 52.8158 107.738 52.9878 107.394 53.2068C107.05 53.4258 106.737 53.6838 106.455 53.981C106.19 54.2781 105.978 54.591 105.822 54.9195L105.118 58.1338C105.228 58.6342 105.4 59.0878 105.634 59.4946C105.885 59.8856 106.197 60.2062 106.573 60.4565C106.964 60.6911 107.386 60.8084 107.84 60.8084ZM121.857 63.0138C120.652 63.0138 119.644 62.7402 118.83 62.1927C118.032 61.6295 117.446 60.8866 117.071 59.9638C116.695 59.0253 116.562 58.0008 116.672 56.8903C116.75 55.9831 116.984 55.1306 117.376 54.333C117.767 53.5352 118.283 52.8393 118.924 52.2449C119.565 51.6349 120.3 51.1578 121.129 50.8137C121.974 50.4695 122.881 50.2976 123.851 50.2976C124.664 50.2976 125.399 50.4227 126.056 50.673C126.713 50.9231 127.237 51.2985 127.628 51.7991C128.035 52.2996 128.246 52.9253 128.262 53.6761C128.278 54.9273 127.738 55.8971 126.643 56.5853C125.564 57.2579 123.867 57.5941 121.552 57.5941C120.989 57.5941 120.394 57.5863 119.769 57.5707C119.143 57.5394 118.478 57.4925 117.774 57.4299L118.173 55.6468C118.768 55.6938 119.331 55.7328 119.863 55.7642C120.394 55.7797 120.926 55.7875 121.458 55.7875C122.537 55.7875 123.382 55.7093 123.992 55.5529C124.602 55.3966 125.032 55.1698 125.282 54.8726C125.532 54.5755 125.65 54.2234 125.634 53.8168C125.618 53.4883 125.509 53.2146 125.306 52.9957C125.118 52.761 124.868 52.589 124.555 52.4794C124.242 52.37 123.89 52.3153 123.499 52.3153C122.952 52.3153 122.435 52.4325 121.951 52.6672C121.481 52.8861 121.051 53.2068 120.66 53.6291C120.285 54.0515 119.972 54.5441 119.722 55.1071C119.471 55.6703 119.315 56.2803 119.252 56.9372C119.159 57.7349 119.206 58.4466 119.393 59.0723C119.597 59.6822 119.933 60.1593 120.402 60.5033C120.887 60.8319 121.497 60.9961 122.232 60.9961C122.733 60.9961 123.171 60.9257 123.546 60.785C123.937 60.6442 124.258 60.4721 124.508 60.2688C124.758 60.0654 124.954 59.8856 125.094 59.7292C125.235 59.5728 125.313 59.4711 125.329 59.4242L127.511 60.128C127.433 60.2375 127.269 60.4486 127.018 60.7615C126.768 61.0587 126.416 61.3793 125.962 61.7234C125.509 62.0676 124.938 62.3726 124.25 62.6384C123.577 62.8887 122.78 63.0138 121.857 63.0138ZM134.372 63.0138C133.324 63.0138 132.464 62.8731 131.791 62.5916C131.134 62.2944 130.649 61.8877 130.337 61.3715C130.039 60.8397 129.914 60.2297 129.961 59.5414C130.008 58.603 130.407 57.8601 131.158 57.3126C131.924 56.7494 133.121 56.2178 134.747 55.7172C135.389 55.4982 135.889 55.2949 136.249 55.1071C136.609 54.9195 136.875 54.7084 137.047 54.4737C137.218 54.2391 137.313 53.9654 137.329 53.6526C137.375 53.1676 137.226 52.8001 136.883 52.5499C136.555 52.2839 136.092 52.151 135.499 52.151C134.92 52.151 134.357 52.2761 133.808 52.5264C133.261 52.7767 132.823 53.1364 132.495 53.6056L130.689 52.5029C131.22 51.7991 131.932 51.2517 132.823 50.8606C133.731 50.4695 134.771 50.2741 135.944 50.2741C137.321 50.2741 138.337 50.5791 138.994 51.1891C139.667 51.7835 139.979 52.5811 139.933 53.5822C139.886 54.5206 139.526 55.2636 138.853 55.811C138.196 56.3429 137.172 56.8277 135.78 57.2657C134.982 57.5159 134.357 57.7505 133.903 57.9695C133.449 58.1885 133.129 58.4231 132.941 58.6734C132.769 58.908 132.659 59.1895 132.612 59.5181C132.566 60.0185 132.738 60.4018 133.129 60.6676C133.535 60.9179 134.13 61.043 134.912 61.043C135.521 61.043 136.108 60.9179 136.671 60.6676C137.234 60.4018 137.719 60.0342 138.125 59.5649L139.722 60.9257C139.127 61.567 138.4 62.0753 137.54 62.4507C136.679 62.8261 135.624 63.0138 134.372 63.0138Z" fill="#1B46B4"/>
</svg>
