<svg width="257" height="46" viewBox="0 0 257 46" fill="none" xmlns="http://www.w3.org/2000/svg">
<mask id="mask0_241_1258" style="mask-type:luminance" maskUnits="userSpaceOnUse" x="0" y="0" width="257" height="46">
<path d="M257 0.942383H0V45.2526H257V0.942383Z" fill="white"/>
</mask>
<g mask="url(#mask0_241_1258)">
<path d="M62.1868 32.7347L59.0862 38.4873C58.8402 38.9459 58.5511 39.2882 58.2188 39.5142C57.8865 39.7401 57.5242 39.8531 57.1321 39.8531C56.8263 39.8531 56.5139 39.7833 56.1949 39.6438L56.4541 38.8462C56.7001 38.9326 56.9194 38.9758 57.1121 38.9758C57.5508 38.9758 57.913 38.7432 58.1988 38.2779L58.3584 38.0286L55.5469 32.7347H56.6136L58.8768 37.1613L61.1998 32.7347H62.1868ZM69.6916 39.7135L69.6817 34.6289L67.1593 38.8661H66.7007L64.1783 34.6588V39.7135H63.2212V32.7347H64.0387L66.9499 37.6398L69.8212 32.7347H70.6388L70.6487 39.7135H69.6916ZM78.8229 32.7347V39.7135H77.8259V36.603H73.818V39.7135H72.821V32.7347H73.818V35.7356H77.8259V32.7347H78.8229ZM85.5357 37.9688H81.8269L81.0592 39.7135H80.0323L83.1928 32.7347H84.1798L87.3502 39.7135H86.3033L85.5357 37.9688ZM85.1867 37.1712L83.6813 33.7516L82.1758 37.1712H85.1867ZM93.3382 32.7347V39.7135H92.3611V37.6797H90.437C90.3173 37.6797 90.2276 37.6764 90.1678 37.6697L88.772 39.7135H87.7152L89.2605 37.5002C88.762 37.3341 88.3798 37.0583 88.114 36.6728C87.8481 36.2806 87.7152 35.8054 87.7152 35.2471C87.7152 34.4561 87.9678 33.8413 88.4729 33.4026C88.9847 32.9573 89.6726 32.7347 90.5367 32.7347H93.3382ZM88.7221 35.2371C88.7221 35.7555 88.8717 36.1543 89.1708 36.4335C89.4765 36.706 89.9252 36.8422 90.5167 36.8422H92.3611V33.602H90.5765C89.9783 33.602 89.5197 33.7416 89.2007 34.0208C88.8817 34.2999 88.7221 34.7054 88.7221 35.2371ZM101.533 36.0746C101.972 36.1942 102.314 36.4036 102.56 36.7027C102.806 36.9951 102.929 37.3474 102.929 37.7595C102.929 38.1715 102.796 38.5338 102.53 38.8462C102.271 39.1519 101.922 39.3879 101.484 39.554C101.051 39.7135 100.58 39.7933 100.068 39.7933C99.6025 39.7933 99.1406 39.7235 98.682 39.5839C98.2234 39.4444 97.8046 39.235 97.4258 38.9558L97.7747 38.2181C98.0805 38.4574 98.4228 38.6368 98.8016 38.7564C99.1805 38.8761 99.5627 38.9359 99.9482 38.9359C100.506 38.9359 100.975 38.8196 101.354 38.587C101.733 38.3477 101.922 38.022 101.922 37.6099C101.922 37.2576 101.779 36.9885 101.493 36.8024C101.208 36.6096 100.806 36.5132 100.287 36.5132H98.7318V35.7057H100.217C100.663 35.7057 101.008 35.6159 101.254 35.4365C101.507 35.2504 101.633 34.9945 101.633 34.6688C101.633 34.3033 101.47 34.0141 101.145 33.8014C100.819 33.5888 100.407 33.4824 99.9083 33.4824C99.5826 33.4824 99.2503 33.5289 98.9113 33.622C98.579 33.715 98.2633 33.8546 97.9642 34.0407L97.6451 33.2232C97.9974 33.0238 98.3696 32.8742 98.7618 32.7745C99.1539 32.6748 99.5461 32.625 99.9382 32.625C100.43 32.625 100.882 32.7014 101.294 32.8543C101.706 33.0072 102.032 33.2298 102.271 33.5223C102.517 33.8147 102.64 34.157 102.64 34.5492C102.64 34.9014 102.54 35.2105 102.341 35.4764C102.148 35.7422 101.879 35.9416 101.533 36.0746ZM108.937 36.0945C109.409 36.2075 109.764 36.4102 110.004 36.7027C110.25 36.9885 110.373 37.3573 110.373 37.8093C110.373 38.4141 110.15 38.8827 109.705 39.2151C109.266 39.5474 108.625 39.7135 107.78 39.7135H104.59V32.7347H107.591C108.355 32.7347 108.95 32.8909 109.376 33.2032C109.808 33.509 110.024 33.951 110.024 34.5292C110.024 34.9081 109.927 35.2304 109.735 35.4963C109.548 35.7622 109.283 35.9616 108.937 36.0945ZM105.577 35.8054H107.521C108.006 35.8054 108.375 35.709 108.628 35.5163C108.887 35.3235 109.017 35.041 109.017 34.6688C109.017 34.2966 108.887 34.0141 108.628 33.8214C108.369 33.622 108 33.5223 107.521 33.5223H105.577V35.8054ZM107.761 38.9259C108.831 38.9259 109.366 38.5271 109.366 37.7296C109.366 37.3308 109.229 37.0383 108.957 36.8522C108.691 36.6595 108.292 36.5631 107.761 36.5631H105.577V38.9259H107.761ZM117.653 32.7347L114.553 38.4873C114.307 38.9459 114.018 39.2882 113.685 39.5142C113.353 39.7401 112.991 39.8531 112.599 39.8531C112.293 39.8531 111.981 39.7833 111.661 39.6438L111.921 38.8462C112.167 38.9326 112.386 38.9758 112.579 38.9758C113.017 38.9758 113.38 38.7432 113.665 38.2779L113.825 38.0286L111.013 32.7347H112.08L114.343 37.1613L116.666 32.7347H117.653ZM121.121 36.6428H119.665V39.7135H118.688V32.7347H119.665V35.7655H121.141L123.334 32.7347H124.401L121.908 36.1144L124.52 39.7135H123.384L121.121 36.6428ZM128.663 39.7933C127.959 39.7933 127.324 39.6404 126.759 39.3347C126.194 39.0223 125.749 38.5936 125.423 38.0486C125.104 37.5036 124.945 36.8954 124.945 36.2241C124.945 35.5528 125.104 34.9446 125.423 34.3996C125.749 33.8546 126.194 33.4292 126.759 33.1235C127.324 32.8111 127.959 32.6549 128.663 32.6549C129.361 32.6549 129.993 32.8111 130.558 33.1235C131.123 33.4292 131.565 33.8546 131.884 34.3996C132.203 34.938 132.362 35.5462 132.362 36.2241C132.362 36.9021 132.203 37.5135 131.884 38.0586C131.565 38.5969 131.123 39.0223 130.558 39.3347C129.993 39.6404 129.361 39.7933 128.663 39.7933ZM128.663 38.906C129.175 38.906 129.634 38.7897 130.039 38.557C130.451 38.3244 130.774 38.0054 131.006 37.5999C131.246 37.1879 131.365 36.7292 131.365 36.2241C131.365 35.719 131.246 35.2637 131.006 34.8582C130.774 34.4462 130.451 34.1238 130.039 33.8912C129.634 33.6585 129.175 33.5422 128.663 33.5422C128.152 33.5422 127.686 33.6585 127.268 33.8912C126.856 34.1238 126.53 34.4462 126.291 34.8582C126.058 35.2637 125.942 35.719 125.942 36.2241C125.942 36.7292 126.058 37.1879 126.291 37.5999C126.53 38.0054 126.856 38.3244 127.268 38.557C127.686 38.7897 128.152 38.906 128.663 38.906ZM133.974 32.7347H134.961V38.1184L139.088 32.7347H140.006V39.7135H139.029V34.3398L134.891 39.7135H133.974V32.7347ZM145.521 36.0746C145.96 36.1942 146.302 36.4036 146.548 36.7027C146.794 36.9951 146.917 37.3474 146.917 37.7595C146.917 38.1715 146.784 38.5338 146.518 38.8462C146.259 39.1519 145.91 39.3879 145.471 39.554C145.039 39.7135 144.567 39.7933 144.056 39.7933C143.59 39.7933 143.129 39.7235 142.67 39.5839C142.211 39.4444 141.793 39.235 141.414 38.9558L141.763 38.2181C142.068 38.4574 142.411 38.6368 142.79 38.7564C143.168 38.8761 143.551 38.9359 143.936 38.9359C144.494 38.9359 144.963 38.8196 145.342 38.587C145.721 38.3477 145.91 38.022 145.91 37.6099C145.91 37.2576 145.767 36.9885 145.481 36.8024C145.196 36.6096 144.793 36.5132 144.275 36.5132H142.72V35.7057H144.205C144.651 35.7057 144.996 35.6159 145.242 35.4365C145.495 35.2504 145.621 34.9945 145.621 34.6688C145.621 34.3033 145.458 34.0141 145.132 33.8014C144.807 33.5888 144.395 33.4824 143.896 33.4824C143.57 33.4824 143.238 33.5289 142.899 33.622C142.567 33.715 142.251 33.8546 141.952 34.0407L141.633 33.2232C141.985 33.0238 142.357 32.8742 142.75 32.7745C143.142 32.6748 143.534 32.625 143.926 32.625C144.418 32.625 144.87 32.7014 145.282 32.8543C145.694 33.0072 146.02 33.2298 146.259 33.5223C146.505 33.8147 146.628 34.157 146.628 34.5492C146.628 34.9014 146.528 35.2105 146.329 35.4764C146.136 35.7422 145.867 35.9416 145.521 36.0746ZM151.719 39.7933C151.015 39.7933 150.38 39.6404 149.815 39.3347C149.25 39.0223 148.805 38.5936 148.479 38.0486C148.16 37.5036 148 36.8954 148 36.2241C148 35.5528 148.16 34.9446 148.479 34.3996C148.805 33.8546 149.25 33.4292 149.815 33.1235C150.38 32.8111 151.015 32.6549 151.719 32.6549C152.417 32.6549 153.048 32.8111 153.613 33.1235C154.178 33.4292 154.62 33.8546 154.939 34.3996C155.258 34.938 155.418 35.5462 155.418 36.2241C155.418 36.9021 155.258 37.5135 154.939 38.0586C154.62 38.5969 154.178 39.0223 153.613 39.3347C153.048 39.6404 152.417 39.7933 151.719 39.7933ZM151.719 38.906C152.231 38.906 152.69 38.7897 153.095 38.557C153.507 38.3244 153.829 38.0054 154.062 37.5999C154.301 37.1879 154.421 36.7292 154.421 36.2241C154.421 35.719 154.301 35.2637 154.062 34.8582C153.829 34.4462 153.507 34.1238 153.095 33.8912C152.69 33.6585 152.231 33.5422 151.719 33.5422C151.207 33.5422 150.742 33.6585 150.323 33.8912C149.911 34.1238 149.586 34.4462 149.346 34.8582C149.114 35.2637 148.997 35.719 148.997 36.2241C148.997 36.7292 149.114 37.1879 149.346 37.5999C149.586 38.0054 149.911 38.3244 150.323 38.557C150.742 38.7897 151.207 38.906 151.719 38.906ZM162.538 32.7347V39.7135H161.56V33.602H158.47L158.4 35.6459C158.367 36.6096 158.287 37.3906 158.161 37.9888C158.041 38.587 157.848 39.0389 157.583 39.3447C157.317 39.6438 156.958 39.7933 156.506 39.7933C156.3 39.7933 156.09 39.7667 155.878 39.7135L155.947 38.8262C156.054 38.8528 156.16 38.8661 156.267 38.8661C156.552 38.8661 156.782 38.7531 156.954 38.5271C157.127 38.2945 157.257 37.9489 157.343 37.4903C157.43 37.0317 157.486 36.4268 157.513 35.6758L157.622 32.7347H162.538ZM169.825 32.7347V39.7135H168.848V37.6797H166.924C166.805 37.6797 166.715 37.6764 166.655 37.6697L165.259 39.7135H164.202L165.748 37.5002C165.249 37.3341 164.867 37.0583 164.601 36.6728C164.335 36.2806 164.202 35.8054 164.202 35.2471C164.202 34.4561 164.455 33.8413 164.96 33.4026C165.472 32.9573 166.16 32.7347 167.024 32.7347H169.825ZM165.209 35.2371C165.209 35.7555 165.359 36.1543 165.658 36.4335C165.964 36.706 166.412 36.8422 167.004 36.8422H168.848V33.602H167.064C166.466 33.602 166.007 33.7416 165.688 34.0208C165.369 34.2999 165.209 34.7054 165.209 35.2371ZM178.942 38.8462V41.2988H178.015V39.7135H172.003V32.7347H172.99V38.8462H176.879V32.7347H177.866V38.8462H178.942ZM180.269 32.7347H181.256V38.1184L185.384 32.7347H186.301V39.7135H185.324V34.3398L181.187 39.7135H180.269V32.7347ZM193.591 32.7347V39.7135H192.614V37.6797H190.69C190.57 37.6797 190.481 37.6764 190.421 37.6697L189.025 39.7135H187.968L189.514 37.5002C189.015 37.3341 188.633 37.0583 188.367 36.6728C188.101 36.2806 187.968 35.8054 187.968 35.2471C187.968 34.4561 188.221 33.8413 188.726 33.4026C189.238 32.9573 189.926 32.7347 190.79 32.7347H193.591ZM188.975 35.2371C188.975 35.7555 189.125 36.1543 189.424 36.4335C189.73 36.706 190.178 36.8422 190.77 36.8422H192.614V33.602H190.83C190.231 33.602 189.773 33.7416 189.454 34.0208C189.135 34.2999 188.975 34.7054 188.975 35.2371Z" fill="#666666"/>
<path d="M62.4331 24.5604C61.1481 24.5604 59.8927 24.42 58.6667 24.1394C57.4556 23.844 56.4586 23.4526 55.6758 22.9652L57.3596 19.1545C58.0981 19.5829 58.9252 19.9299 59.841 20.1958C60.7567 20.4469 61.6355 20.5724 62.4774 20.5724C63.2011 20.5724 63.7181 20.506 64.0283 20.373C64.3385 20.2254 64.4935 20.0111 64.4935 19.7305C64.4935 19.4056 64.2867 19.1619 63.8732 18.9994C63.4744 18.8369 62.8098 18.6597 61.8792 18.4677C60.6829 18.2166 59.6859 17.9507 58.8883 17.6701C58.0907 17.3747 57.3965 16.9021 56.8057 16.2522C56.2149 15.5875 55.9195 14.6939 55.9195 13.5714C55.9195 12.5966 56.1928 11.7104 56.7392 10.9128C57.2857 10.1152 58.0981 9.48745 59.1763 9.02958C60.2693 8.57171 61.5912 8.34277 63.1421 8.34277C64.2055 8.34277 65.2468 8.46094 66.266 8.69726C67.2998 8.91881 68.2082 9.25114 68.991 9.69424L67.418 13.4828C65.8967 12.7148 64.4567 12.3307 63.0978 12.3307C61.7537 12.3307 61.0816 12.6556 61.0816 13.3055C61.0816 13.6157 61.281 13.852 61.6798 14.0145C62.0786 14.1622 62.7359 14.3247 63.6516 14.5019C64.8333 14.7235 65.8303 14.9819 66.6426 15.2773C67.4549 15.5579 68.1566 16.0232 68.7473 16.6731C69.353 17.323 69.6557 18.2092 69.6557 19.3317C69.6557 20.3066 69.3824 21.1928 68.836 21.9904C68.2895 22.7732 67.4698 23.4009 66.3767 23.8736C65.2985 24.3314 63.984 24.5604 62.4331 24.5604ZM85.0585 24.2059L85.0142 17.1384L81.6466 22.8101H79.3425L75.9749 17.3821V24.2059H71.2115V8.69726H75.5096L80.561 16.9611L85.4795 8.69726H89.7776L89.8219 24.2059H85.0585ZM102.918 21.5029H97.0247L95.9834 24.2059H90.6661L97.4456 8.69726H102.586L109.365 24.2059H103.959L102.918 21.5029ZM101.478 17.7366L99.9713 13.8373L98.4647 17.7366H101.478ZM116.846 20.3066H115.428V24.2059H110.199V8.69726H117.666C119.098 8.69726 120.347 8.93357 121.41 9.40622C122.474 9.87887 123.293 10.5583 123.869 11.4445C124.445 12.3307 124.733 13.3646 124.733 14.5462C124.733 15.654 124.482 16.6214 123.98 17.4485C123.478 18.2757 122.754 18.9329 121.809 19.4204L125.066 24.2059H119.483L116.846 20.3066ZM119.461 14.5462C119.461 13.9702 119.283 13.5271 118.929 13.2169C118.574 12.892 118.043 12.7295 117.334 12.7295H115.428V16.3629H117.334C118.043 16.3629 118.574 16.2079 118.929 15.8977C119.283 15.5728 119.461 15.1223 119.461 14.5462ZM129.859 12.7517H125.317V8.69726H139.629V12.7517H135.088V24.2059H129.859V12.7517Z" fill="#0C82D6"/>
<path d="M151.977 20.062H143.337L141.475 24.205H139.77L146.859 8.69641H148.477L155.566 24.205H153.838L151.977 20.062ZM151.379 18.7327L147.657 10.4024L143.935 18.7327H151.379ZM164.65 24.338C163.114 24.338 161.725 23.9982 160.485 23.3188C159.259 22.6394 158.291 21.7015 157.582 20.5051C156.889 19.294 156.541 17.9425 156.541 16.4507C156.541 14.9589 156.889 13.6149 157.582 12.4185C158.291 11.2073 159.266 10.262 160.507 9.58261C161.747 8.90319 163.137 8.56348 164.672 8.56348C165.824 8.56348 166.887 8.75548 167.862 9.13951C168.837 9.52354 169.665 10.0848 170.344 10.8233L169.302 11.8646C168.092 10.6387 166.563 10.0257 164.716 10.0257C163.491 10.0257 162.376 10.3063 161.371 10.8676C160.367 11.4289 159.576 12.1969 159 13.1718C158.44 14.1466 158.158 15.2396 158.158 16.4507C158.158 17.6618 158.44 18.7549 159 19.7297C159.576 20.7045 160.367 21.4725 161.371 22.0338C162.376 22.5951 163.491 22.8757 164.716 22.8757C166.577 22.8757 168.106 22.2554 169.302 21.0147L170.344 22.056C169.665 22.7945 168.83 23.3631 167.84 23.7619C166.865 24.146 165.802 24.338 164.65 24.338ZM180.294 24.338C178.758 24.338 177.362 23.9982 176.106 23.3188C174.866 22.6246 173.891 21.6793 173.182 20.483C172.488 19.2866 172.14 17.9425 172.14 16.4507C172.14 14.9589 172.488 13.6149 173.182 12.4185C173.891 11.2221 174.866 10.2842 176.106 9.60477C177.362 8.91057 178.758 8.56348 180.294 8.56348C181.83 8.56348 183.211 8.90319 184.437 9.58261C185.677 10.262 186.652 11.2073 187.361 12.4185C188.07 13.6149 188.425 14.9589 188.425 16.4507C188.425 17.9425 188.07 19.294 187.361 20.5051C186.652 21.7015 185.677 22.6394 184.437 23.3188C183.211 23.9982 181.83 24.338 180.294 24.338ZM180.294 22.8757C181.52 22.8757 182.628 22.6024 183.617 22.056C184.607 21.4947 185.383 20.7267 185.943 19.7518C186.505 18.7623 186.785 17.6618 186.785 16.4507C186.785 15.2396 186.505 14.1466 185.943 13.1718C185.383 12.1822 184.607 11.4141 183.617 10.8676C182.628 10.3063 181.52 10.0257 180.294 10.0257C179.068 10.0257 177.953 10.3063 176.948 10.8676C175.959 11.4141 175.176 12.1822 174.6 13.1718C174.039 14.1466 173.758 15.2396 173.758 16.4507C173.758 17.6618 174.039 18.7623 174.6 19.7518C175.176 20.7267 175.959 21.4947 176.948 22.056C177.953 22.6024 179.068 22.8757 180.294 22.8757ZM198.348 24.338C196.338 24.338 194.773 23.7619 193.651 22.6099C192.528 21.4578 191.967 19.7814 191.967 17.5806V8.69641H193.607V17.5142C193.607 19.3162 194.012 20.6602 194.825 21.5464C195.637 22.4326 196.811 22.8757 198.348 22.8757C199.899 22.8757 201.08 22.4326 201.893 21.5464C202.705 20.6602 203.111 19.3162 203.111 17.5142V8.69641H204.706V17.5806C204.706 19.7814 204.145 21.4578 203.023 22.6099C201.915 23.7619 200.356 24.338 198.348 24.338ZM213.923 24.338C212.771 24.338 211.663 24.1533 210.6 23.7841C209.551 23.4149 208.739 22.9274 208.163 22.3218L208.805 21.059C209.366 21.6203 210.112 22.0781 211.043 22.4326C211.973 22.7724 212.933 22.9422 213.923 22.9422C215.311 22.9422 216.352 22.6911 217.047 22.1889C217.74 21.6719 218.088 21.0073 218.088 20.1949C218.088 19.5746 217.895 19.0798 217.512 18.7105C217.142 18.3413 216.685 18.0606 216.138 17.8686C215.591 17.6618 214.831 17.4403 213.856 17.204C212.689 16.9086 211.758 16.628 211.065 16.3621C210.37 16.0815 209.772 15.6606 209.27 15.0993C208.783 14.538 208.539 13.7774 208.539 12.8173C208.539 12.0344 208.745 11.3255 209.16 10.6904C209.573 10.0405 210.207 9.52354 211.065 9.13951C211.921 8.75548 212.985 8.56348 214.255 8.56348C215.141 8.56348 216.005 8.68902 216.847 8.94011C217.704 9.17643 218.443 9.50876 219.063 9.9371L218.509 11.2443C217.859 10.8159 217.164 10.4984 216.426 10.2916C215.688 10.07 214.964 9.95925 214.255 9.95925C212.896 9.95925 211.869 10.2251 211.176 10.7568C210.495 11.2738 210.157 11.9458 210.157 12.773C210.157 13.3933 210.34 13.8955 210.71 14.2795C211.094 14.6487 211.567 14.9367 212.128 15.1436C212.704 15.3355 213.472 15.5498 214.432 15.7861C215.569 16.0667 216.485 16.3474 217.18 16.628C217.889 16.8938 218.487 17.3073 218.974 17.8686C219.462 18.4151 219.705 19.1611 219.705 20.1063C219.705 20.8892 219.49 21.6055 219.063 22.2554C218.649 22.8905 218.006 23.4 217.135 23.7841C216.264 24.1533 215.192 24.338 213.923 24.338ZM226.074 10.1143H220.624V8.69641H233.164V10.1143H227.713V24.205H226.074V10.1143ZM235.782 8.69641H237.422V24.205H235.782V8.69641ZM249.204 24.338C247.667 24.338 246.279 23.9982 245.039 23.3188C243.812 22.6394 242.845 21.7015 242.136 20.5051C241.442 19.294 241.095 17.9425 241.095 16.4507C241.095 14.9589 241.442 13.6149 242.136 12.4185C242.845 11.2073 243.82 10.262 245.061 9.58261C246.302 8.90319 247.69 8.56348 249.226 8.56348C250.378 8.56348 251.442 8.75548 252.416 9.13951C253.391 9.52354 254.218 10.0848 254.898 10.8233L253.856 11.8646C252.645 10.6387 251.116 10.0257 249.27 10.0257C248.044 10.0257 246.929 10.3063 245.925 10.8676C244.92 11.4289 244.13 12.1969 243.554 13.1718C242.993 14.1466 242.712 15.2396 242.712 16.4507C242.712 17.6618 242.993 18.7549 243.554 19.7297C244.13 20.7045 244.92 21.4725 245.925 22.0338C246.929 22.5951 248.044 22.8757 249.27 22.8757C251.131 22.8757 252.66 22.2554 253.856 21.0147L254.898 22.056C254.218 22.7945 253.383 23.3631 252.394 23.7619C251.419 24.146 250.356 24.338 249.204 24.338Z" fill="#222222"/>
<path fill-rule="evenodd" clip-rule="evenodd" d="M37.8177 7.43497C29.1615 -1.2212 15.1499 -1.22242 6.49258 7.43497C-2.16359 16.0911 -2.1648 30.1027 6.49258 38.76C15.1487 47.4162 29.1602 47.4174 37.8177 38.76C46.4739 30.104 46.4753 16.0924 37.8177 7.43497ZM23.0505 32.3388C23.0505 33.817 21.3753 34.6778 20.1735 33.8193L14.1791 29.5376H11.0656C10.0608 29.5376 9.24625 28.7231 9.24625 27.7182V18.477C9.24625 17.4721 10.0608 16.6576 11.0656 16.6576H14.1791L20.1735 12.3759C21.3764 11.5166 23.0505 12.3795 23.0505 13.8563V32.3388ZM34.5312 27.1564C35.2416 26.446 35.2416 25.294 34.5312 24.5835L33.0452 23.0976L34.5312 21.6116C35.2416 20.9012 35.2416 19.7492 34.5312 19.0387C33.8206 18.3282 32.6687 18.3282 31.9582 19.0387L30.4723 20.5246L28.9865 19.0387C28.276 18.3282 27.124 18.3282 26.4135 19.0387C25.703 19.7491 25.703 20.9011 26.4135 21.6116L27.8993 23.0976L26.4135 24.5835C25.703 25.2939 25.703 26.4459 26.4135 27.1564C27.124 27.8669 28.276 27.8669 28.9865 27.1564L30.4723 25.6705L31.9582 27.1564C32.6687 27.8669 33.8206 27.8669 34.5312 27.1564Z" fill="#0C82D6"/>
</g>
</svg>
