<svg width="128" height="67" viewBox="0 0 128 67" fill="none" xmlns="http://www.w3.org/2000/svg">
<path d="M32.8369 66.4335H5.60938V63.4852C8.42647 63.4852 10.4416 63.2242 11.6545 62.6987C12.8664 62.175 13.6204 61.1916 13.9156 59.7502C14.2106 58.3097 14.3578 56.2458 14.3578 53.5582V14.83C14.3578 12.1442 14.2254 10.0793 13.9646 8.6379C13.7017 7.19751 12.9644 6.19735 11.7525 5.63944C10.5396 5.08346 8.4922 4.80401 5.60938 4.80401V1.85556H32.5417V4.80401C29.6571 4.80401 27.5784 5.09917 26.2997 5.68847C25.0221 6.27777 24.2356 7.31026 23.9406 8.78499C23.6454 10.2597 23.4984 12.2747 23.4984 14.83V31.9324H32.4427C34.4088 31.9324 36.0305 31.4255 37.3081 30.4087C38.5858 29.3938 39.6496 27.8701 40.5027 25.8385C41.3539 23.8088 42.1736 21.2848 42.9599 18.2697C43.4836 16.3695 44.0905 14.4044 44.7778 12.3717C45.4662 10.3411 46.3507 8.4565 47.4321 6.71999C48.5128 4.98445 49.8894 3.57444 51.5602 2.4929C53.231 1.41235 55.2784 0.871094 57.7033 0.871094C59.734 0.871094 61.4871 1.34764 62.9618 2.29679C64.4367 3.24792 65.1739 4.77068 65.1739 6.86707C65.1739 8.11235 64.7807 9.25956 63.9944 10.3078C63.208 11.3569 61.9951 11.8805 60.3576 11.8805C59.375 11.8805 58.522 11.652 57.8023 11.1922C57.0806 10.7343 56.4089 10.2921 55.7874 9.86555C55.1637 9.43999 54.4263 9.22624 53.5762 9.22624C52.3966 9.22624 51.2984 9.84984 50.2835 11.0942C49.2668 12.3395 48.3008 14.7309 47.3841 18.2697C46.5977 21.2848 45.7624 23.9548 44.8779 26.2807C43.9935 28.6075 42.3716 30.7872 40.0125 32.8169V33.3081C41.4529 34.4878 42.8786 36.0939 44.2885 38.1246C45.6967 40.1562 47.3351 42.7781 49.203 45.9884C51.0709 49.1997 53.4448 53.2297 56.3296 58.0785C57.2463 59.6512 58.0818 60.8151 58.8357 61.5681C59.5889 62.3222 60.6056 62.8135 61.8833 63.042C63.161 63.2722 65.0121 63.4194 67.437 63.4842V66.4326H50.4326C48.1381 62.0438 46.1399 58.3235 44.4367 55.2761C42.7316 52.2296 41.1764 49.4615 39.7682 46.9699C38.3583 44.4805 36.8689 41.9251 35.296 39.3031C34.3773 37.7961 33.4928 36.7969 32.6418 36.3057C31.7897 35.8144 30.315 35.5682 28.2186 35.5682H23.5003V53.5562C23.5003 56.4409 23.6796 58.603 24.0415 60.0434C24.4013 61.4858 25.2535 62.4193 26.5967 62.8448C27.9391 63.2722 30.0198 63.4842 32.8389 63.4842V66.4335H32.8369Z" fill="#012768"/>
<path d="M84.5388 66.4335H56.3984V63.4399C59.1919 63.4399 61.2883 63.2409 62.6847 62.8408C64.0818 62.4419 64.9958 61.5779 65.4291 60.2463C65.8606 58.9157 66.0772 56.8537 66.0772 54.0593V13.3465C66.0772 10.6862 65.8438 8.69085 65.3792 7.35929C64.9133 6.02871 63.9976 5.11385 62.6345 4.61477C61.2706 4.11568 59.1919 3.86662 56.3984 3.86662V0.873047H125.053V3.86662C122.06 3.86662 119.88 4.13332 118.517 4.66478C117.153 5.19818 116.272 6.14636 115.873 7.50931C115.474 8.87323 115.274 10.8519 115.274 13.4465V53.6611C115.274 56.6547 115.506 58.8344 115.972 60.1973C116.437 61.5612 117.369 62.4428 118.766 62.8418C120.163 63.2409 122.259 63.4409 125.053 63.4409V66.4345H96.9121V63.4409C99.4389 63.4409 101.369 63.2762 102.699 62.9418C104.03 62.6094 104.927 61.7446 105.394 60.3473C105.859 58.9501 106.092 56.7223 106.092 53.6611V5.26291H75.2579V53.8601C75.2579 56.6546 75.4571 58.7344 75.857 60.0973C76.2561 61.4612 77.1199 62.3594 78.4515 62.7918C79.7812 63.2252 81.8099 63.4399 84.5388 63.4399V66.4335Z" fill="#012768"/>
<path d="M63.2854 17.4519C67.8636 17.4519 71.575 13.7407 71.575 9.16249C71.575 4.58436 67.8636 0.873047 63.2854 0.873047C58.7073 0.873047 54.9961 4.58436 54.9961 9.16249C54.9961 13.7407 58.7073 17.4519 63.2854 17.4519Z" fill="#012768"/>
<path d="M128 27.0869H0V41.643H128V27.0869Z" fill="white"/>
<path d="M8.81269 37.9141H5.90528V37.5993C6.20638 37.5993 6.4211 37.5719 6.55059 37.515C6.67991 37.4591 6.76039 37.3542 6.7917 37.2003C6.82317 37.0462 6.83874 36.8256 6.83874 36.5394V32.4035C6.83874 32.1162 6.82514 31.8965 6.79662 31.7426C6.76826 31.5886 6.68975 31.4817 6.56042 31.4219C6.43093 31.3622 6.21228 31.3327 5.9043 31.3327V31.018H8.78024V31.3327C8.47242 31.3327 8.24983 31.3642 8.11346 31.4268C7.97725 31.4896 7.89284 31.6004 7.86153 31.7572C7.83022 31.9152 7.81449 32.13 7.81449 32.4025V34.2293H8.76942C8.97939 34.2293 9.1528 34.1754 9.28917 34.0665C9.42554 33.9575 9.53913 33.7958 9.63043 33.5781C9.72156 33.3614 9.80892 33.0918 9.89317 32.7702C9.94907 32.5673 10.0138 32.3575 10.0874 32.1406C10.1608 31.9239 10.2549 31.723 10.3706 31.5366C10.4864 31.3514 10.6336 31.2004 10.8119 31.0857C10.9904 30.97 11.209 30.9121 11.4678 30.9121C11.6845 30.9121 11.8719 30.9631 12.0297 31.0641C12.1876 31.166 12.2661 31.3278 12.2661 31.5523C12.2661 31.6858 12.224 31.8082 12.1405 31.92C12.0563 32.0318 11.9268 32.0877 11.7522 32.0877C11.6473 32.0877 11.5562 32.0632 11.4796 32.0142C11.4023 31.9652 11.3307 31.918 11.2649 31.872C11.1982 31.8269 11.1199 31.8034 11.0286 31.8034C10.9032 31.8034 10.7855 31.87 10.6767 32.0024C10.5678 32.1359 10.4649 32.3907 10.3667 32.7682C10.2825 33.0898 10.1933 33.3752 10.099 33.6233C10.005 33.8713 9.83139 34.1047 9.57946 34.3214V34.3744C9.73337 34.5009 9.88531 34.6714 10.0363 34.8892C10.1864 35.1059 10.362 35.3863 10.5609 35.7284C10.7599 36.0716 11.014 36.502 11.3218 37.0198C11.4198 37.1875 11.5092 37.3121 11.5895 37.3924C11.6699 37.4729 11.7788 37.5258 11.915 37.5502C12.0514 37.5748 12.2494 37.5906 12.5083 37.5973V37.9122H10.6924C10.4472 37.4434 10.2344 37.0462 10.052 36.7207C9.86958 36.3952 9.70403 36.1001 9.55389 35.8333C9.40293 35.5676 9.2441 35.295 9.07642 35.0146C8.9784 34.8538 8.88416 34.7469 8.79302 34.694C8.70189 34.641 8.54487 34.6156 8.32048 34.6156H7.81645V36.5365C7.81645 36.8443 7.83596 37.0757 7.87431 37.2296C7.9125 37.3836 8.00364 37.4835 8.14689 37.5288C8.28999 37.5738 8.51257 37.5973 8.81367 37.5973V37.9141H8.81269Z" fill="#012768"/>
<path d="M15.7417 37.9137H12.7188V37.5988C13.0403 37.5988 13.2737 37.5744 13.4168 37.5254C13.5601 37.4764 13.6512 37.3762 13.6894 37.2263C13.7278 37.0763 13.7473 36.8468 13.7473 36.539V32.4031C13.7473 32.1305 13.7315 31.9146 13.7002 31.7578C13.6689 31.5999 13.5816 31.4901 13.4375 31.4273C13.2942 31.3646 13.0541 31.3333 12.7188 31.3333V31.0186H15.7417V31.3333C15.4123 31.3333 15.1749 31.3646 15.0279 31.4273C14.8809 31.4901 14.7915 31.6009 14.7602 31.7578C14.7288 31.9156 14.7132 32.1305 14.7132 32.4031V36.2027H14.7445L18.1774 32.0668C18.1774 31.8991 18.1577 31.7607 18.1195 31.6519C18.0813 31.5431 17.9901 31.4628 17.847 31.4108C17.7037 31.3579 17.4675 31.3323 17.1381 31.3323V31.0176H20.161V31.3323C19.8325 31.3323 19.5962 31.3636 19.4521 31.4264C19.3089 31.4891 19.2217 31.5999 19.1892 31.7568C19.1579 31.9146 19.1422 32.1295 19.1422 32.4021V36.538C19.1422 36.8321 19.1628 37.0537 19.2049 37.2046C19.2471 37.3558 19.3393 37.4587 19.4834 37.5146C19.6267 37.5705 19.8521 37.5988 20.16 37.5988V37.9137H17.1371V37.5988C17.4587 37.5988 17.6921 37.5744 17.8352 37.5254C17.9782 37.4764 18.0715 37.3762 18.1136 37.2263C18.1558 37.0763 18.1764 36.8468 18.1764 36.539V32.7707H18.1449L14.7122 36.9165C14.7191 37.0842 14.7475 37.2194 14.7965 37.3204C14.8455 37.4225 14.9436 37.4939 15.0907 37.5351C15.2377 37.5774 15.4544 37.5979 15.7417 37.5979V37.9137Z" fill="#012768"/>
<path d="M24.3602 38.028C23.6395 38.028 23.0335 37.8739 22.5442 37.5661C22.0538 37.2583 21.6852 36.8346 21.4372 36.2963C21.189 35.7581 21.0645 35.1491 21.0645 34.4696C21.0645 33.7067 21.2116 33.0596 21.5057 32.5281C21.7999 31.9967 22.2059 31.5907 22.7235 31.3102C23.2413 31.0309 23.8365 30.8906 24.5082 30.8906C24.8788 30.8906 25.1759 30.9221 25.4005 30.9847C25.6241 31.0475 25.8024 31.1103 25.9358 31.174C26.0683 31.2368 26.1771 31.2681 26.2613 31.2681C26.3458 31.2681 26.4103 31.2319 26.4556 31.1583C26.5006 31.0849 26.5556 30.9955 26.6183 30.8906H26.933V33.294H26.576C26.4643 32.6086 26.2281 32.1114 25.8671 31.8036C25.5064 31.4956 25.0573 31.3417 24.518 31.3417C23.7619 31.3417 23.1795 31.6113 22.7706 32.1496C22.3618 32.6889 22.1569 33.4263 22.1569 34.3647C22.1569 35.0647 22.2638 35.6345 22.4765 36.0757C22.6903 36.517 22.9855 36.8425 23.3639 37.0523C23.7414 37.2621 24.1758 37.3671 24.665 37.3671C25.1474 37.3671 25.5711 37.2778 25.9348 37.0993C26.2985 36.921 26.627 36.6709 26.9212 36.3493L27.1732 36.5699C26.984 36.8503 26.7585 37.1003 26.4967 37.3199C26.2349 37.5396 25.928 37.7132 25.5778 37.8397C25.2269 37.9652 24.8219 38.028 24.3602 38.028Z" fill="#012768"/>
<path d="M33.5541 37.9137H27.9492V37.5988C28.2366 37.5988 28.4513 37.5793 28.5945 37.541C28.7376 37.5028 28.8356 37.4166 28.8886 37.2841C28.9415 37.1507 28.9671 36.9478 28.9671 36.6752V32.2982C28.9671 32.0323 28.9405 31.8294 28.8886 31.6893C28.8356 31.549 28.7376 31.4549 28.5945 31.4059C28.4513 31.3569 28.2356 31.3323 27.9492 31.3323V31.0176H33.4598L33.5226 32.7394H33.1863C33.1373 32.3893 33.0617 32.1256 32.9607 31.9471C32.8588 31.7686 32.695 31.648 32.4675 31.5852C32.24 31.5226 31.9096 31.4911 31.4752 31.4911H29.9319V34.1572H31.1595C31.4811 34.1572 31.7263 34.1297 31.894 34.0728C32.0617 34.0169 32.1774 33.912 32.24 33.7581C32.3028 33.6042 32.3343 33.3875 32.3343 33.1071H32.6706V35.5428H32.3343C32.3343 35.2554 32.3028 35.0427 32.24 34.9024C32.1774 34.7622 32.0617 34.6709 31.894 34.6298C31.7263 34.5877 31.4811 34.567 31.1595 34.567H29.9319V37.4538H31.2861C31.6919 37.4538 32.0194 37.4341 32.2676 37.3959C32.5155 37.3577 32.7117 37.2861 32.8558 37.1802C32.9991 37.0753 33.1186 36.9253 33.2128 36.7291C33.3069 36.5331 33.4069 36.2781 33.5118 35.9634H33.8481L33.5541 37.9137Z" fill="#012768"/>
<path d="M34.8131 38.0391C34.5405 38.0391 34.3268 37.9696 34.1728 37.8293C34.0188 37.6892 33.9414 37.5323 33.9414 37.3568C33.9414 37.2312 33.9835 37.1096 34.0668 36.9949C34.1502 36.8801 34.2807 36.8214 34.4551 36.8214C34.5669 36.8214 34.6582 36.8409 34.7277 36.8791C34.7973 36.9175 34.8699 36.9576 34.9426 36.9998C35.016 37.0419 35.1053 37.0625 35.2102 37.0625C35.3289 37.0625 35.4395 37.0204 35.5407 36.936C35.6416 36.8518 35.7485 36.6811 35.8613 36.4213C35.9662 36.1899 36.0642 35.8947 36.1555 35.5339C36.2466 35.174 36.3289 34.7819 36.4025 34.3582C36.4761 33.9347 36.532 33.5169 36.5702 33.1042C36.6084 32.6913 36.628 32.3207 36.628 31.9912C36.628 31.6834 36.5495 31.496 36.3917 31.4293C36.2338 31.3628 35.9701 31.3294 35.5995 31.3294V31.0146H40.9316V31.3294C40.5394 31.3294 40.2717 31.3803 40.1285 31.4813C39.9854 31.5834 39.9137 31.8117 39.9137 32.1687V36.6929C39.9137 36.9449 39.9364 37.1352 39.9824 37.2645C40.0275 37.394 40.1245 37.4813 40.2707 37.5274C40.4178 37.5725 40.6384 37.5959 40.9316 37.5959V37.9108H37.9291V37.5959C38.2086 37.5959 38.4204 37.5754 38.5646 37.5333C38.7077 37.491 38.8077 37.4058 38.8636 37.2763C38.9195 37.147 38.948 36.9527 38.948 36.6939V31.4774H37.1742C37.1604 31.9324 37.1291 32.4031 37.0801 32.8894C37.0311 33.3758 36.9703 33.8532 36.8967 34.322C36.8231 34.7906 36.7378 35.226 36.6398 35.629C36.5418 36.0311 36.4328 36.3792 36.3143 36.6733C36.1319 37.1214 35.924 37.4607 35.6897 37.6911C35.4543 37.9236 35.1622 38.0391 34.8131 38.0391Z" fill="#012768"/>
<path d="M47.3021 37.9127H41.6973V37.5978C41.9846 37.5978 42.1993 37.5783 42.3426 37.54C42.4857 37.5018 42.5837 37.4156 42.6366 37.2831C42.6896 37.1497 42.7151 36.9468 42.7151 36.6742V32.2972C42.7151 32.0313 42.6886 31.8284 42.6366 31.6883C42.5837 31.548 42.4857 31.4539 42.3426 31.4049C42.1993 31.3559 41.9836 31.3313 41.6973 31.3313V31.0166H47.2079L47.2706 32.7384H46.9343C46.8853 32.3883 46.8099 32.1246 46.7088 31.9461C46.6068 31.7676 46.4431 31.647 46.2156 31.5842C45.9882 31.5216 45.6578 31.4901 45.2233 31.4901H43.6799V34.1562H44.9076C45.2292 34.1562 45.4744 34.1287 45.6421 34.0718C45.8097 34.0159 45.9254 33.911 45.9882 33.7571C46.0508 33.6032 46.0823 33.3865 46.0823 33.1061H46.4187V35.5418H46.0823C46.0823 35.2544 46.0508 35.0417 45.9882 34.9014C45.9254 34.7612 45.8097 34.6699 45.6421 34.6288C45.4744 34.5867 45.2292 34.566 44.9076 34.566H43.6799V37.4528H45.0341C45.4401 37.4528 45.7676 37.4331 46.0156 37.3949C46.2638 37.3567 46.4598 37.2851 46.6039 37.1792C46.7471 37.0743 46.8668 36.9243 46.9609 36.7281C47.0549 36.5321 47.1549 36.2771 47.2598 35.9624H47.5962L47.3021 37.9127ZM43.5132 30.5017C43.3388 30.5017 43.1965 30.4439 43.0877 30.3282C42.9789 30.2124 42.9249 30.0782 42.9249 29.9243C42.9249 29.7702 42.9789 29.636 43.0877 29.5203C43.1965 29.4045 43.3378 29.3467 43.5132 29.3467C43.6947 29.3467 43.8399 29.4045 43.9487 29.5203C44.0575 29.636 44.1115 29.7702 44.1115 29.9243C44.1115 30.0782 44.0575 30.2124 43.9487 30.3282C43.8399 30.4439 43.6947 30.5017 43.5132 30.5017ZM45.8332 30.5017C45.6578 30.5017 45.5165 30.4439 45.4077 30.3282C45.2988 30.2124 45.2449 30.0782 45.2449 29.9243C45.2449 29.7702 45.2988 29.636 45.4077 29.5203C45.5165 29.4045 45.6578 29.3467 45.8332 29.3467C46.0146 29.3467 46.1597 29.4045 46.2685 29.5203C46.3773 29.636 46.4314 29.7702 46.4314 29.9243C46.4314 30.0782 46.3773 30.2124 46.2685 30.3282C46.1597 30.4439 46.0146 30.5017 45.8332 30.5017Z" fill="#012768"/>
<path d="M51.5025 37.9137H48.2695V37.5988C48.5569 37.5988 48.7716 37.5744 48.9148 37.5254C49.0579 37.4764 49.156 37.3782 49.2089 37.2312C49.2618 37.0842 49.2874 36.8675 49.2874 36.5801V32.2874C49.2874 32.0079 49.2609 31.7991 49.2089 31.6627C49.156 31.5265 49.0579 31.4372 48.9148 31.3951C48.7716 31.3529 48.5559 31.3323 48.2695 31.3323V31.0176H51.1033C51.726 31.0176 52.2269 31.0823 52.6046 31.2116C52.9821 31.3411 53.2556 31.5265 53.4233 31.7676C53.591 32.0089 53.6752 32.3049 53.6752 32.655C53.6752 33.1238 53.5351 33.4757 53.2556 33.7101C52.9752 33.9445 52.6192 34.1209 52.1848 34.2405V34.2828C52.4859 34.3318 52.7742 34.4229 53.0508 34.5554C53.3273 34.6886 53.5566 34.875 53.738 35.1171C53.9195 35.3594 54.0106 35.6721 54.0106 36.0565C54.0106 36.6518 53.788 37.1096 53.3438 37.4312C52.9006 37.7519 52.2868 37.9137 51.5025 37.9137ZM50.2532 31.4578V34.1132H50.967C51.6034 34.1132 52.0417 34.0033 52.2791 33.7827C52.5162 33.5621 52.6359 33.214 52.6359 32.7385C52.6359 32.3256 52.5044 32.004 52.2427 31.7725C51.9799 31.5411 51.5269 31.4264 50.8837 31.4264C50.7857 31.4264 50.6828 31.4283 50.5739 31.4313C50.4651 31.4352 50.359 31.4441 50.2532 31.4578ZM51.0093 37.5254C51.2328 37.5254 51.4574 37.5116 51.6808 37.4831C51.9044 37.4557 52.1094 37.394 52.2946 37.2999C52.48 37.2056 52.629 37.0615 52.7408 36.8694C52.8526 36.6772 52.9085 36.4125 52.9085 36.0771C52.9085 35.678 52.8154 35.3682 52.63 35.1486C52.4448 34.9279 52.2064 34.774 51.9162 34.6867C51.6259 34.5995 51.3161 34.5554 50.9876 34.5554H50.2532V37.4939C50.3787 37.5008 50.5052 37.5077 50.6306 37.5146C50.7572 37.5215 50.8837 37.5254 51.0093 37.5254Z" fill="#012768"/>
<path d="M59.4888 37.9137H57.1797V37.6195C57.4739 37.6195 57.669 37.5793 57.7671 37.4988C57.8652 37.4185 57.9142 37.2381 57.9142 36.9586V33.915C57.9142 33.7258 57.8984 33.5845 57.8671 33.4895C57.8357 33.3944 57.7689 33.3316 57.668 33.3001C57.566 33.2688 57.4072 33.2531 57.1905 33.2531V32.9492H59.4888V33.2531C59.2859 33.2531 59.134 33.2688 59.032 33.3001C58.9299 33.3316 58.8653 33.3944 58.8378 33.4895C58.8094 33.5835 58.7957 33.7327 58.7957 33.9356V36.4967H58.8162L61.2725 33.8307C61.2725 33.5786 61.2304 33.4198 61.1469 33.3531C61.0627 33.2865 60.8773 33.2531 60.591 33.2531V32.9492H62.8796V33.2531C62.6834 33.2531 62.5334 33.2688 62.4285 33.3001C62.3236 33.3316 62.254 33.4003 62.2187 33.5052C62.1833 33.6101 62.1658 33.7709 62.1658 33.9876V36.9576C62.1658 37.2381 62.2168 37.4175 62.3177 37.4978C62.4187 37.5783 62.6031 37.6185 62.8688 37.6185V37.9127H60.591V37.6185C60.8704 37.6185 61.0548 37.5783 61.142 37.4978C61.2294 37.4175 61.2735 37.2371 61.2735 36.9576V34.417H61.2528L58.7966 37.0625C58.7966 37.2723 58.8417 37.4175 58.9329 37.4978C59.0241 37.5783 59.2094 37.6185 59.4888 37.6185V37.9137Z" fill="#012768"/>
<path d="M69.0422 37.9127H66.082V37.5979C66.3761 37.5979 66.5967 37.5774 66.7429 37.5352C66.8899 37.4929 66.986 37.4028 67.0311 37.2625C67.0763 37.1224 67.0997 36.9057 67.0997 36.6115V32.3285C67.0997 32.0491 67.0753 31.8393 67.0263 31.6989C66.9771 31.5588 66.8811 31.4628 66.738 31.4108C66.5947 31.3579 66.3761 31.3323 66.082 31.3323V31.0176H73.3037V31.3323C72.9888 31.3323 72.7595 31.3608 72.6162 31.4167C72.4732 31.4726 72.3799 31.5726 72.3378 31.7157C72.2956 31.8589 72.275 32.0677 72.275 32.3403V36.5703C72.275 36.885 72.2996 37.1145 72.3486 37.2577C72.3976 37.4008 72.4956 37.4939 72.6428 37.5361C72.7898 37.5783 73.0105 37.5988 73.3037 37.5988V37.9137H70.3433V37.5988C70.6092 37.5988 70.8121 37.5813 70.9523 37.5459C71.0926 37.5107 71.1866 37.4205 71.2356 37.2733C71.2847 37.1263 71.3092 36.8919 71.3092 36.5703V31.4793H68.0657V36.591C68.0657 36.885 68.0861 37.1037 68.1284 37.2469C68.1706 37.39 68.2607 37.4851 68.401 37.5303C68.5412 37.5754 68.7539 37.5988 69.0412 37.5988V37.9127H69.0422Z" fill="#012768"/>
<path d="M75.9054 37.9129H73.7012V37.5981C73.8972 37.5981 74.0541 37.5668 74.1737 37.504C74.2924 37.4412 74.4081 37.3138 74.5199 37.1206C74.6317 36.9285 74.7718 36.6323 74.9395 36.2342L77.1644 30.9648H77.5948L80.0825 36.6646C80.2364 37.0078 80.3855 37.2491 80.5286 37.3892C80.6717 37.5295 80.8835 37.599 81.1639 37.599V37.9139H78.3401V37.599C78.445 37.599 78.5539 37.5923 78.6656 37.5786C78.7774 37.5648 78.8715 37.5295 78.949 37.4737C79.0264 37.4178 79.0646 37.3304 79.0646 37.2107C79.0646 37.1344 79.053 37.045 79.0284 36.9431C79.0039 36.8421 78.9567 36.7136 78.8863 36.5597L78.4352 35.5095L78.3616 35.2997L77.1654 32.2561H77.1341L75.9064 35.2997L75.8328 35.5095L75.3181 36.7274C75.2896 36.8118 75.264 36.8941 75.2396 36.9746C75.215 37.0549 75.2024 37.1442 75.2024 37.2422C75.2024 37.3892 75.2583 37.4853 75.3701 37.5305C75.4819 37.5756 75.6602 37.599 75.9054 37.599V37.9129ZM78.592 35.6135H75.674L75.8318 35.1938H78.4352L78.592 35.6135Z" fill="#012768"/>
<path d="M84.6282 37.9127H81.668V37.5979C81.9405 37.5979 82.1435 37.5734 82.2769 37.5244C82.4102 37.4754 82.4975 37.3792 82.5396 37.2361C82.5818 37.093 82.6024 36.8744 82.6024 36.5801V32.0668C82.6024 31.7588 82.5377 31.5598 82.4082 31.4687C82.2789 31.3774 82.0464 31.3323 81.7101 31.3323V31.0176H84.3243C84.6604 31.0176 84.9842 31.044 85.2949 31.0959C85.6057 31.1489 85.8822 31.2372 86.1245 31.3638C86.3658 31.4891 86.5578 31.6667 86.7019 31.8942C86.8452 32.1217 86.9168 32.41 86.9168 32.7599C86.9168 33.1659 86.8393 33.5072 86.6854 33.7837C86.5315 34.0602 86.3235 34.2818 86.0607 34.4505C85.798 34.618 85.5028 34.7376 85.1733 34.8073C84.8439 34.877 84.5085 34.9122 84.1653 34.9122C84.0604 34.9122 83.9486 34.9053 83.8291 34.8917C83.7104 34.878 83.6221 34.8563 83.5662 34.8289V36.6242C83.5662 36.9116 83.5957 37.1243 83.6555 37.2645C83.7153 37.4048 83.8212 37.4959 83.9751 37.537C84.1291 37.5793 84.3457 37.5998 84.6262 37.5998V37.9127H84.6282ZM84.135 34.4798C84.5124 34.4798 84.8311 34.4328 85.0901 34.3377C85.3489 34.2435 85.5449 34.0827 85.6783 33.8552C85.8108 33.6277 85.8773 33.311 85.8773 32.9052C85.8773 32.4295 85.7391 32.0638 85.4626 31.8078C85.1861 31.5529 84.7645 31.4244 84.1977 31.4244C84.0928 31.4244 83.9899 31.4283 83.8879 31.4352C83.7858 31.4421 83.6799 31.4529 83.5672 31.4667V34.4367C83.6231 34.4436 83.7055 34.4523 83.8144 34.4631C83.9232 34.4749 84.0291 34.4798 84.135 34.4798Z" fill="#012768"/>
<path d="M91.87 37.9137H88.8264V37.5988C89.1206 37.5988 89.3412 37.5764 89.4872 37.5303C89.6344 37.4851 89.7324 37.3871 89.7815 37.2361C89.8305 37.0861 89.855 36.8527 89.855 36.538V31.4891H89.1834C88.798 31.4891 88.5097 31.5275 88.3176 31.6049C88.1253 31.6824 87.987 31.8216 87.9027 32.0246C87.8185 32.2276 87.738 32.5218 87.6615 32.9061H87.3359L87.4517 31.0166H93.2565L93.3407 32.9061H93.0152C92.9378 32.5218 92.8574 32.2276 92.7741 32.0246C92.6897 31.8216 92.5535 31.6814 92.3651 31.6049C92.1758 31.5285 91.8857 31.4891 91.4945 31.4891H90.8326V36.538C90.8326 36.8527 90.857 37.0852 90.9062 37.2361C90.9552 37.3871 91.0532 37.4841 91.2002 37.5303C91.3474 37.5754 91.5708 37.5988 91.8719 37.5988V37.9137H91.87Z" fill="#012768"/>
<path d="M96.8998 37.9137H93.8877V37.5988C94.2024 37.5988 94.4319 37.5764 94.575 37.5303C94.7182 37.4851 94.8094 37.3851 94.8476 37.2312C94.8859 37.0773 94.9054 36.8468 94.9054 36.538V32.4021C94.9054 32.1295 94.8879 31.9138 94.8525 31.7568C94.8172 31.599 94.7281 31.4891 94.5848 31.4264C94.4417 31.3636 94.2083 31.3323 93.8867 31.3323V31.0176H96.8989V31.3323C96.5694 31.3323 96.3322 31.3636 96.1851 31.4264C96.038 31.4891 95.9489 31.5999 95.9174 31.7568C95.8861 31.9146 95.8703 32.1295 95.8703 32.4021V34.1651H99.3129V32.4021C99.3129 32.1295 99.2954 31.9138 99.26 31.7568C99.2247 31.599 99.1356 31.4891 98.9923 31.4264C98.8492 31.3636 98.6158 31.3323 98.2942 31.3323V31.0176H101.297V31.3323C100.968 31.3323 100.73 31.3636 100.583 31.4264C100.436 31.4891 100.347 31.598 100.315 31.7519C100.284 31.906 100.268 32.1227 100.268 32.4031V36.539C100.268 36.8399 100.288 37.0674 100.326 37.2214C100.364 37.3753 100.457 37.4774 100.604 37.5254C100.751 37.5744 100.982 37.5988 101.297 37.5988V37.9137H98.2942V37.5988C98.6089 37.5988 98.8384 37.5744 98.9815 37.5254C99.1247 37.4764 99.2159 37.3753 99.2541 37.2214C99.2924 37.0674 99.3119 36.8399 99.3119 36.539V34.5759H95.8694V36.539C95.8694 36.8468 95.889 37.0763 95.9272 37.2263C95.9654 37.3772 96.0587 37.4764 96.2057 37.5254C96.3527 37.5744 96.5832 37.5988 96.8989 37.5988V37.9137H96.8998Z" fill="#012768"/>
<path d="M107.647 37.9127H102.041V37.5978C102.328 37.5978 102.543 37.5783 102.686 37.54C102.829 37.5018 102.927 37.4156 102.98 37.2831C103.033 37.1497 103.059 36.9468 103.059 36.6742V32.2972C103.059 32.0313 103.032 31.8284 102.98 31.6883C102.927 31.548 102.829 31.4539 102.686 31.4049C102.543 31.3559 102.327 31.3313 102.041 31.3313V31.0166H107.552L107.614 32.7384H107.278C107.229 32.3883 107.154 32.1246 107.053 31.9461C106.951 31.7676 106.787 31.647 106.559 31.5842C106.332 31.5216 106.001 31.4901 105.567 31.4901H104.024V34.1562H105.252C105.574 34.1562 105.819 34.1287 105.987 34.0718C106.154 34.0159 106.27 33.911 106.333 33.7571C106.396 33.6032 106.427 33.3865 106.427 33.1061H106.763V35.5418H106.427C106.427 35.2544 106.396 35.0417 106.333 34.9014C106.27 34.7612 106.154 34.6699 105.987 34.6288C105.819 34.5867 105.574 34.566 105.252 34.566H104.024V37.4528H105.378C105.784 37.4528 106.111 37.4331 106.359 37.3949C106.607 37.3567 106.804 37.2851 106.947 37.1792C107.09 37.0743 107.21 36.9243 107.304 36.7281C107.398 36.5321 107.498 36.2771 107.603 35.9624H107.939L107.647 37.9127ZM103.858 30.5017C103.684 30.5017 103.541 30.4439 103.433 30.3282C103.325 30.2124 103.271 30.0782 103.271 29.9243C103.271 29.7702 103.325 29.636 103.433 29.5203C103.542 29.4045 103.684 29.3467 103.858 29.3467C104.04 29.3467 104.185 29.4045 104.293 29.5203C104.402 29.636 104.456 29.7702 104.456 29.9243C104.456 30.0782 104.402 30.2124 104.293 30.3282C104.184 30.4439 104.039 30.5017 103.858 30.5017ZM106.178 30.5017C106.003 30.5017 105.861 30.4439 105.753 30.3282C105.645 30.2124 105.591 30.0782 105.591 29.9243C105.591 29.7702 105.645 29.636 105.753 29.5203C105.862 29.4045 106.003 29.3467 106.178 29.3467C106.36 29.3467 106.505 29.4045 106.613 29.5203C106.722 29.636 106.776 29.7702 106.776 29.9243C106.776 30.0782 106.722 30.2124 106.613 30.3282C106.504 30.4439 106.359 30.5017 106.178 30.5017Z" fill="#012768"/>
<path d="M111.656 37.9127H108.695V37.5979C108.968 37.5979 109.171 37.5734 109.304 37.5244C109.437 37.4754 109.525 37.3792 109.567 37.2361C109.609 37.093 109.63 36.8744 109.63 36.5801V32.0668C109.63 31.7588 109.565 31.5598 109.436 31.4687C109.306 31.3774 109.074 31.3323 108.737 31.3323V31.0176H111.352C111.688 31.0176 112.012 31.044 112.322 31.0959C112.633 31.1489 112.91 31.2372 113.152 31.3638C113.393 31.4891 113.585 31.6667 113.729 31.8942C113.873 32.1217 113.944 32.41 113.944 32.7599C113.944 33.1659 113.867 33.5072 113.713 33.7837C113.559 34.0602 113.351 34.2818 113.088 34.4505C112.825 34.618 112.53 34.7376 112.201 34.8073C111.871 34.877 111.536 34.9122 111.193 34.9122C111.088 34.9122 110.976 34.9053 110.856 34.8917C110.738 34.878 110.649 34.8563 110.594 34.8289V36.6242C110.594 36.9116 110.623 37.1243 110.683 37.2645C110.743 37.4048 110.849 37.4959 111.002 37.537C111.156 37.5793 111.373 37.5998 111.654 37.5998V37.9127H111.656ZM111.161 34.4798C111.539 34.4798 111.857 34.4328 112.116 34.3377C112.375 34.2435 112.571 34.0827 112.705 33.8552C112.837 33.6277 112.904 33.311 112.904 32.9052C112.904 32.4295 112.765 32.0638 112.489 31.8078C112.212 31.5529 111.791 31.4244 111.224 31.4244C111.119 31.4244 111.016 31.4283 110.914 31.4352C110.812 31.4421 110.706 31.4529 110.594 31.4667V34.4367C110.649 34.4436 110.732 34.4523 110.841 34.4631C110.951 34.4749 111.056 34.4798 111.161 34.4798Z" fill="#012768"/>
<path d="M117.419 37.9127H114.659V37.5979C114.96 37.5979 115.176 37.5626 115.31 37.493C115.442 37.4235 115.524 37.292 115.557 37.0997C115.588 36.9076 115.604 36.6331 115.604 36.2761V32.2559C115.604 32.004 115.583 31.8117 115.541 31.6785C115.499 31.546 115.403 31.4549 115.253 31.4059C115.102 31.3569 114.869 31.3323 114.555 31.3323V31.0176H117.598V31.3323C117.311 31.3323 117.092 31.3588 116.942 31.4108C116.791 31.4637 116.692 31.5539 116.643 31.6834C116.594 31.8127 116.57 32 116.57 32.2453V34.0504C116.717 34.0366 116.88 34.0238 117.063 34.013C117.245 34.0024 117.433 33.9974 117.63 33.9974C118.19 33.9974 118.647 34.0778 119.004 34.2385C119.361 34.3993 119.625 34.6219 119.796 34.9053C119.968 35.1887 120.053 35.5093 120.053 35.8653C120.053 36.5164 119.824 37.0204 119.366 37.3772C118.908 37.7342 118.259 37.9127 117.419 37.9127ZM117.282 37.492C117.485 37.492 117.686 37.4725 117.886 37.4341C118.085 37.3959 118.271 37.3223 118.442 37.2135C118.614 37.1047 118.75 36.9478 118.852 36.7409C118.953 36.5351 119.004 36.2674 119.004 35.938C119.004 35.4064 118.837 35.021 118.5 34.7829C118.164 34.5455 117.731 34.4259 117.199 34.4259C117.032 34.4259 116.898 34.4279 116.8 34.4308C116.702 34.4347 116.625 34.4397 116.569 34.4465V37.4587C116.687 37.4656 116.803 37.4725 116.915 37.4793C117.028 37.489 117.15 37.492 117.282 37.492ZM123.15 37.9127H120.116V37.5979C120.438 37.5979 120.671 37.5734 120.814 37.5244C120.957 37.4754 121.051 37.3753 121.093 37.2253C121.135 37.0753 121.156 36.8458 121.156 36.538V32.4021C121.156 32.1295 121.138 31.9138 121.103 31.7568C121.067 31.599 120.978 31.4891 120.835 31.4264C120.692 31.3638 120.451 31.3323 120.116 31.3323V31.0176H123.15V31.3323C122.814 31.3323 122.574 31.3638 122.431 31.4264C122.288 31.4891 122.2 31.5999 122.168 31.7568C122.137 31.9148 122.121 32.1295 122.121 32.4021V36.538C122.121 36.8321 122.142 37.0537 122.184 37.2048C122.226 37.3558 122.321 37.4587 122.468 37.5146C122.615 37.5705 122.842 37.5988 123.15 37.5988V37.9127Z" fill="#012768"/>
</svg>
