<svg width="223" height="43" viewBox="0 0 223 43" fill="none" xmlns="http://www.w3.org/2000/svg">
<path fill-rule="evenodd" clip-rule="evenodd" d="M0.000180077 42.1887H41.595V36.486H8.4064H5.70276V33.7824V0.59375H0L0.000180077 42.1887ZM41.4637 33.7824C40.8288 30.5432 37.9589 28.0794 34.5408 28.0794H14.1093V7.64807C14.1093 4.23009 11.6454 1.35995 8.4064 0.72503V33.7824H41.4637Z" fill="#D71920"/>
<path fill-rule="evenodd" clip-rule="evenodd" d="M25.2781 24.4534H17.7383C17.7383 16.5012 17.7383 8.54889 17.7383 0.59668H41.595V4.36678C41.595 6.4401 39.8987 8.13652 37.8251 8.13652H36.4441V20.6837C36.4441 22.7571 34.7477 24.4534 32.6744 24.4534H28.9042V8.13652H25.2781V24.4534Z" fill="#231F20"/>
<path d="M59.8002 16.0713C57.5421 16.0713 55.6729 15.346 54.1924 13.8955C52.7269 12.43 51.9941 10.5757 51.9941 8.33254C51.9941 6.08941 52.7269 4.24257 54.1924 2.79201C55.6729 1.3265 57.5421 0.59375 59.8002 0.59375C62.0733 0.59375 63.9425 1.31903 65.4081 2.76958C66.8885 4.22014 67.6288 6.07445 67.6288 8.33254C67.6288 10.5906 66.8885 12.4449 65.4081 13.8955C63.9425 15.346 62.0733 16.0713 59.8002 16.0713ZM56.5029 11.8542C57.3402 12.7814 58.4393 13.245 59.8002 13.245C61.1611 13.245 62.2602 12.7814 63.0977 11.8542C63.935 10.9271 64.3538 9.75319 64.3538 8.33254C64.3538 6.9119 63.935 5.738 63.0977 4.81083C62.2602 3.88366 61.1611 3.42009 59.8002 3.42009C58.4393 3.42009 57.3402 3.88366 56.5029 4.81083C55.6804 5.738 55.2691 6.9119 55.2691 8.33254C55.2691 9.75319 55.6804 10.9271 56.5029 11.8542Z" fill="#231F20"/>
<path d="M76.9506 16.0713C74.6925 16.0713 72.8233 15.346 71.3428 13.8955C69.8773 12.43 69.1445 10.5757 69.1445 8.33254C69.1445 6.08941 69.8773 4.24257 71.3428 2.79201C72.8233 1.3265 74.6925 0.59375 76.9506 0.59375C79.2236 0.59375 81.0929 1.31903 82.5585 2.76958C84.0389 4.22014 84.7792 6.07445 84.7792 8.33254C84.7792 10.5906 84.0389 12.4449 82.5585 13.8955C81.0929 15.346 79.2236 16.0713 76.9506 16.0713ZM73.6531 11.8542C74.4906 12.7814 75.5897 13.245 76.9506 13.245C78.3114 13.245 79.4106 12.7814 80.2479 11.8542C81.0854 10.9271 81.5042 9.75319 81.5042 8.33254C81.5042 6.9119 81.0854 5.738 80.2479 4.81083C79.4106 3.88366 78.3114 3.42009 76.9506 3.42009C75.5897 3.42009 74.4906 3.88366 73.6531 4.81083C72.8308 5.738 72.4195 6.9119 72.4195 8.33254C72.4195 9.75319 72.8308 10.9271 73.6531 11.8542Z" fill="#231F20"/>
<path d="M94.103 16.0713C91.8448 16.0713 89.9755 15.346 88.4951 13.8955C87.0297 12.43 86.2969 10.5757 86.2969 8.33254C86.2969 6.08941 87.0297 4.24257 88.4951 2.79201C89.9755 1.3265 91.8448 0.59375 94.103 0.59375C96.3759 0.59375 98.2453 1.31903 99.7107 2.76958C101.191 4.22014 101.932 6.07445 101.932 8.33254C101.932 10.5906 101.191 12.4449 99.7107 13.8955C98.2453 15.346 96.3759 16.0713 94.103 16.0713ZM90.8055 11.8542C91.643 12.7814 92.7421 13.245 94.103 13.245C95.4637 13.245 96.5628 12.7814 97.4003 11.8542C98.2378 10.9271 98.6565 9.75319 98.6565 8.33254C98.6565 6.9119 98.2378 5.738 97.4003 4.81083C96.5628 3.88366 95.4637 3.42009 94.103 3.42009C92.7421 3.42009 91.643 3.88366 90.8055 4.81083C89.983 5.738 89.5717 6.9119 89.5717 8.33254C89.5717 9.75319 89.983 10.9271 90.8055 11.8542Z" fill="#231F20"/>
<path d="M119.575 14.3888H116.951L113.362 10.3512L116.951 6.38086H119.575L115.986 10.3512L119.575 14.3888ZM115.313 14.3888H112.689L109.1 10.3512L112.689 6.38086H115.313L111.724 10.3512L115.313 14.3888Z" fill="#231F20"/>
<path d="M120.838 16.0716V13.2453C121.645 13.2453 122.266 12.9238 122.7 12.2808C123.133 11.6228 123.462 10.3592 123.687 8.48988L124.561 0.84082H135.194V15.8025H131.986V3.64473H127.433L126.85 8.7142C126.67 10.2246 126.401 11.4807 126.042 12.4826C125.698 13.4696 125.249 14.2173 124.696 14.7258C124.158 15.2343 123.589 15.5856 122.991 15.78C122.393 15.9744 121.675 16.0716 120.838 16.0716Z" fill="#231F20"/>
<path d="M141.216 15.8025H138.143V0.84082H141.328V10.5087L148.259 0.84082H151.534V15.8025H148.348V5.7757L141.216 15.8025Z" fill="#231F20"/>
<path d="M161.146 15.8025H157.939V3.64473H153.564V0.84082H165.498V3.64473H161.146V15.8025Z" fill="#231F20"/>
<path d="M172.946 10.3512L169.357 14.3888H166.732L170.321 10.3512L166.732 6.38086H169.357L172.946 10.3512ZM177.208 10.3512L173.619 14.3888H170.995L174.583 10.3512L170.995 6.38086H173.619L177.208 10.3512Z" fill="#231F20"/>
<path d="M70.0212 41.8534H64.3574V28.0863H57.6561V41.8534H51.9922V23.1514H70.0212V41.8534Z" fill="#D71920"/>
<path d="M91.9483 41.8534H85.5274L84.8545 39.6664H78.1251L77.4522 41.8534H71.0312L77.9289 23.1514H85.0507L91.9483 41.8534ZM83.3404 34.7315L81.4898 28.7031L79.6392 34.7315H83.3404Z" fill="#D71920"/>
<path d="M98.6209 41.8534H92.957V23.1514H102.939C105.051 23.1514 106.696 23.7682 107.874 25.002C109.07 26.217 109.668 27.7404 109.668 29.5723C109.668 31.3855 109.07 32.909 107.874 34.1428C106.696 35.3578 105.051 35.9652 102.939 35.9652H98.6209V41.8534ZM102.21 31.0304C102.715 31.0304 103.126 30.9089 103.444 30.6659C103.761 30.4042 103.92 30.0397 103.92 29.5723C103.92 29.0863 103.761 28.7218 103.444 28.4789C103.126 28.2171 102.715 28.0863 102.21 28.0863H98.6209V31.0304H102.21Z" fill="#D71920"/>
<path d="M121.195 41.8534H115.531V28.0863H110.512V23.1514H126.185V28.0863H121.195V41.8534Z" fill="#D71920"/>
<path d="M146.226 41.8534H140.563V34.7035H133.861V41.8534H128.197V23.1514H133.861V29.7686H140.563V23.1514H146.226V41.8534Z" fill="#D71920"/>
<path d="M163.442 41.8534H149.254V23.1514H163.442V28.0863H154.918V29.9368H163.245V34.8718H154.918V36.9186H163.442V41.8534Z" fill="#D71920"/>
<path d="M171.62 41.8534H165.957V23.1514H175.939C178.05 23.1514 179.695 23.7682 180.873 25.002C182.07 26.217 182.668 27.7404 182.668 29.5723C182.668 31.3855 182.07 32.909 180.873 34.1428C179.695 35.3578 178.05 35.9652 175.939 35.9652H171.62V41.8534ZM175.209 31.0304C175.714 31.0304 176.126 30.9089 176.443 30.6659C176.761 30.4042 176.919 30.0397 176.919 29.5723C176.919 29.0863 176.761 28.7218 176.443 28.4789C176.126 28.2171 175.714 28.0863 175.209 28.0863H171.62V31.0304H175.209Z" fill="#D71920"/>
<path d="M202.184 41.8534H196.52V30.3575L193.352 33.4979L190.154 30.1612L197.305 23.1514H202.184V41.8534Z" fill="#D71920"/>
<path d="M214.504 42.1907C211.551 42.1907 209.093 41.2935 207.131 39.4989C205.187 37.6857 204.215 35.3585 204.215 32.5172C204.215 29.6572 205.187 27.33 207.131 25.5354C209.075 23.741 211.533 22.8438 214.504 22.8438C216.748 22.8438 218.552 23.3672 219.916 24.4139C221.3 25.4607 222.327 26.7505 223.001 28.2833L218.122 30.5544C217.879 29.8068 217.42 29.1712 216.748 28.6478C216.075 28.1057 215.328 27.8347 214.504 27.8347C213.159 27.8347 212.065 28.2833 211.224 29.1805C210.384 30.0777 209.962 31.19 209.962 32.5172C209.962 33.8444 210.384 34.9566 211.224 35.8538C212.065 36.7512 213.159 37.1997 214.504 37.1997C215.328 37.1997 216.075 36.9381 216.748 36.4147C217.42 35.8725 217.879 35.2276 218.122 34.4799L223.001 36.723C222.702 37.4148 222.327 38.0596 221.879 38.6578C221.43 39.2372 220.87 39.8074 220.196 40.3681C219.524 40.929 218.692 41.3775 217.702 41.714C216.73 42.0318 215.663 42.1907 214.504 42.1907Z" fill="#D71920"/>
</svg>
