<svg width="205" height="52" viewBox="0 0 205 52" fill="none" xmlns="http://www.w3.org/2000/svg">
<g clip-path="url(#clip0_241_1085)">
<path d="M3.43598 44.5166V46.7544H0.998726V44.5166H0V50.2754H0.998726V47.7314H3.43598V50.2754H4.43471V44.5166H3.43598Z" fill="#3782EF"/>
<path d="M8.11885 46.1781C7.85771 46.0566 7.54618 45.998 7.18884 45.998C6.93687 45.998 6.68031 46.0341 6.41002 46.1106C6.13972 46.1872 5.88775 46.3087 5.64494 46.4798L5.91065 47.2317C6.08016 47.0967 6.26341 46.9976 6.46041 46.9346C6.65741 46.8715 6.8544 46.8355 7.0514 46.8355C7.26672 46.8355 7.44539 46.8715 7.58741 46.9391C7.72485 47.0111 7.82564 47.1102 7.89436 47.2362C7.96308 47.3623 7.99515 47.5154 7.99515 47.6865V47.7766C7.60116 47.7405 7.2484 47.7405 6.95061 47.7811C6.60243 47.8216 6.31839 47.9026 6.09849 48.0197C5.874 48.1413 5.71366 48.2898 5.60371 48.4699C5.49833 48.6501 5.44336 48.8572 5.44336 49.0868C5.44336 49.3569 5.49834 49.5866 5.61745 49.7847C5.73198 49.9828 5.89233 50.1314 6.09391 50.2395C6.29548 50.3475 6.52913 50.4015 6.78568 50.4015C7.06514 50.4015 7.3217 50.352 7.54618 50.2485C7.77067 50.1449 7.94934 50.0008 8.07303 49.8117V50.28H8.9389V47.682C8.9389 47.2993 8.8656 46.9841 8.72358 46.7365C8.58156 46.4798 8.37998 46.2997 8.11885 46.1781ZM7.99515 48.7266C7.99515 48.9067 7.95392 49.0598 7.86687 49.1904C7.78441 49.3209 7.66988 49.42 7.52328 49.492C7.37667 49.5641 7.21633 49.6001 7.03308 49.6001C6.82233 49.6001 6.65283 49.5506 6.52913 49.456C6.40544 49.3569 6.34588 49.2174 6.34588 49.0373C6.34588 48.9157 6.38253 48.8121 6.46041 48.7221C6.53371 48.632 6.64824 48.56 6.79943 48.5105C6.95061 48.4564 7.14303 48.4294 7.37667 48.4249C7.55534 48.4204 7.7615 48.4339 7.99057 48.4654V48.7266H7.99515Z" fill="#3782EF"/>
<path d="M13.6889 46.1602H12.704V49.4155H11.0409V46.1602H10.0605V50.271H13.2262H13.6889H13.7897V51.5047H14.6831V49.4155H13.6889V46.1602Z" fill="#3782EF"/>
<path d="M16.3773 48.7581V46.1602H15.4336V50.271H16.2857L18.2374 47.6415V50.271H19.1811V46.1602H18.3107L16.3773 48.7581Z" fill="#3782EF"/>
<path d="M23.2081 46.3313C22.8919 46.1332 22.53 46.0342 22.1269 46.0342C21.8199 46.0342 21.5405 46.0927 21.2839 46.2098C21.0273 46.3268 20.8074 46.4844 20.6196 46.6871C20.4318 46.8897 20.2852 47.1193 20.1844 47.3849C20.0836 47.6506 20.0332 47.9253 20.0332 48.2134C20.0332 48.6096 20.1202 48.9698 20.2989 49.303C20.4776 49.6317 20.725 49.8974 21.0411 50.0955C21.3572 50.2936 21.7191 50.3927 22.1269 50.3927C22.4338 50.3927 22.7133 50.3341 22.9698 50.2171C23.2264 50.1 23.4463 49.9424 23.6341 49.7398C23.8219 49.5372 23.9686 49.303 24.0693 49.0419C24.1747 48.7807 24.2251 48.5016 24.2251 48.2134C24.2251 47.8172 24.1335 47.457 23.9548 47.1238C23.7716 46.7951 23.5242 46.5295 23.2081 46.3313ZM23.1027 48.8843C23.0065 49.0734 22.8736 49.2175 22.6995 49.321C22.53 49.4246 22.3376 49.4741 22.1223 49.4741C21.907 49.4741 21.71 49.4246 21.545 49.321C21.3755 49.2175 21.2427 49.0734 21.1465 48.8843C21.0503 48.6952 20.9999 48.4746 20.9999 48.2179C20.9999 47.9613 21.0457 47.7361 21.1419 47.547C21.2381 47.3579 21.3709 47.2138 21.5405 47.1103C21.71 47.0067 21.9024 46.9572 22.1223 46.9572C22.3422 46.9572 22.5346 47.0067 22.6995 47.1103C22.869 47.2093 23.0019 47.3579 23.0981 47.547C23.1943 47.7361 23.2447 47.9613 23.2447 48.2179C23.2447 48.4746 23.1989 48.6952 23.1027 48.8843Z" fill="#3782EF"/>
<path d="M27.8237 47.709H26.0553V46.1602H25.0703V50.271H26.0553V48.5645H27.8237V50.271H28.8041V46.1602H27.8237V47.709Z" fill="#3782EF"/>
<path d="M32.3747 46.1781C32.1136 46.0566 31.802 45.998 31.4447 45.998C31.1927 45.998 30.9362 46.0341 30.6659 46.1106C30.3956 46.1872 30.1436 46.3087 29.9008 46.4798L30.1665 47.2317C30.336 47.0967 30.5193 46.9976 30.7163 46.9346C30.9133 46.8715 31.1103 46.8355 31.3073 46.8355C31.5226 46.8355 31.7013 46.8715 31.8387 46.9391C31.9761 47.0111 32.0815 47.1102 32.1502 47.2362C32.2189 47.3623 32.251 47.5154 32.251 47.6865V47.7766C31.8524 47.7405 31.5043 47.7405 31.2065 47.7811C30.8583 47.8216 30.5742 47.9026 30.3543 48.0197C30.1299 48.1413 29.9649 48.2898 29.8596 48.4699C29.7542 48.6501 29.6992 48.8572 29.6992 49.0868C29.6992 49.3569 29.7542 49.5866 29.8733 49.7847C29.9878 49.9828 30.1482 50.1314 30.3498 50.2395C30.5513 50.3475 30.785 50.4015 31.0415 50.4015C31.321 50.4015 31.5776 50.352 31.802 50.2485C32.0265 50.1449 32.2052 50.0008 32.3289 49.8117V50.28H33.1948V47.682C33.1948 47.2993 33.1215 46.9841 32.9794 46.7365C32.8374 46.4798 32.6358 46.2997 32.3747 46.1781ZM32.251 48.7266C32.251 48.9067 32.2098 49.0598 32.1273 49.1904C32.0403 49.3209 31.9257 49.42 31.7837 49.492C31.6371 49.5641 31.4768 49.6001 31.2935 49.6001C31.0828 49.6001 30.9133 49.5506 30.7896 49.456C30.6659 49.3569 30.6063 49.2174 30.6063 49.0373C30.6063 48.9157 30.643 48.8121 30.7208 48.7221C30.7942 48.632 30.9087 48.56 31.0599 48.5105C31.2111 48.4564 31.4035 48.4294 31.6371 48.4249C31.8158 48.4204 32.0219 48.4339 32.251 48.4654V48.7266Z" fill="#3782EF"/>
<path d="M34.7447 47.4704C34.7447 47.8756 34.7264 48.2088 34.6943 48.47C34.6622 48.7311 34.5844 48.9337 34.4652 49.0823C34.3461 49.2309 34.1537 49.339 33.8926 49.411L34.227 50.352C34.5156 50.2755 34.7539 50.1629 34.9371 50.0143C35.1204 49.8658 35.267 49.6767 35.3723 49.4425C35.4731 49.2084 35.5464 48.9292 35.5877 48.605C35.6289 48.2809 35.6472 47.9026 35.6472 47.4704V47.0156H36.9666V50.271H37.947V46.1602H34.7401V47.4704H34.7447Z" fill="#3782EF"/>
<path d="M40.8986 47.4479H40.1015V46.1602H39.1211V50.271H40.862C41.201 50.271 41.4942 50.217 41.7462 50.0999C41.9982 49.9873 42.1906 49.8252 42.328 49.6136C42.4655 49.402 42.5342 49.1499 42.5342 48.8572C42.5342 48.3934 42.3876 48.0422 42.0989 47.8036C41.8057 47.5695 41.4072 47.4479 40.8986 47.4479ZM41.3293 49.339C41.201 49.447 41.0086 49.5011 40.7612 49.5011H40.1061V48.2133H40.8253C41.0498 48.2133 41.2239 48.2719 41.343 48.3844C41.4621 48.497 41.5217 48.6591 41.5217 48.8617C41.5217 49.0688 41.4576 49.2309 41.3293 49.339Z" fill="#3782EF"/>
<path d="M46.1713 47.709H44.403V46.1602H43.418V50.271H44.403V48.5645H46.1713V50.271H47.1517V46.1602H46.1713V47.709Z" fill="#3782EF"/>
<path d="M50.7243 46.1781C50.4632 46.0566 50.1517 45.998 49.7943 45.998C49.5423 45.998 49.2858 46.0341 49.0155 46.1106C48.7452 46.1872 48.4932 46.3087 48.2504 46.4798L48.5161 47.2317C48.6856 47.0967 48.8689 46.9976 49.0659 46.9346C49.2629 46.8715 49.4599 46.8355 49.6569 46.8355C49.8722 46.8355 50.0509 46.8715 50.1883 46.9391C50.3257 47.0111 50.4311 47.1102 50.4998 47.2362C50.5686 47.3623 50.6006 47.5154 50.6006 47.6865V47.7766C50.202 47.7405 49.8539 47.7405 49.5561 47.7811C49.2079 47.8216 48.9239 47.9026 48.704 48.0197C48.4841 48.1368 48.3145 48.2898 48.2092 48.4699C48.0992 48.6501 48.0488 48.8572 48.0488 49.0868C48.0488 49.3569 48.1038 49.5866 48.2229 49.7847C48.3375 49.9828 48.4978 50.1314 48.6994 50.2395C48.901 50.3475 49.1346 50.4015 49.3957 50.4015C49.6752 50.4015 49.9318 50.352 50.1562 50.2485C50.3807 50.1449 50.5594 50.0008 50.6831 49.8117V50.28H51.549V47.682C51.549 47.2993 51.4757 46.9841 51.3336 46.7365C51.187 46.4798 50.9855 46.2997 50.7243 46.1781ZM50.6006 48.7266C50.6006 48.9067 50.5594 49.0598 50.4769 49.1904C50.3899 49.3209 50.2753 49.42 50.1333 49.492C49.9867 49.5641 49.8264 49.6001 49.6431 49.6001C49.4324 49.6001 49.2629 49.5506 49.1392 49.456C49.0155 49.3569 48.9559 49.2174 48.9559 49.0373C48.9559 48.9157 48.9926 48.8121 49.0705 48.7221C49.1483 48.632 49.2583 48.56 49.4141 48.5105C49.5652 48.4564 49.7577 48.4294 49.9913 48.4249C50.17 48.4204 50.3761 48.4339 50.6052 48.4654V48.7266H50.6006Z" fill="#3782EF"/>
<path d="M53.2938 46.3219C53.051 46.43 52.8632 46.5876 52.7303 46.7902C52.5975 46.9928 52.5333 47.2404 52.5333 47.5241C52.5333 47.7852 52.5929 48.0149 52.7166 48.2085C52.8403 48.3976 53.0144 48.5462 53.2388 48.6497C53.2984 48.6767 53.358 48.6993 53.4221 48.7218L52.3867 50.2752H53.4862L54.4483 48.8163H54.9293V50.2752H55.8685V46.1643H54.1459C53.8207 46.1598 53.5366 46.2138 53.2938 46.3219ZM54.9293 46.9343V48.0734H54.1872C53.9673 48.0734 53.7978 48.0239 53.6832 47.9203C53.5687 47.8213 53.5091 47.6772 53.5091 47.4971C53.5091 47.3125 53.5733 47.1684 53.697 47.0738C53.8253 46.9793 54.0085 46.9343 54.2513 46.9343H54.9293Z" fill="#3782EF"/>
<path d="M62.3616 49.2264C62.1142 49.3119 61.8623 49.3524 61.6057 49.3524C61.2209 49.3524 60.891 49.2759 60.6116 49.1183C60.3321 48.9607 60.1168 48.7401 59.9656 48.4474C59.8144 48.1548 59.7411 47.8036 59.7411 47.3893C59.7411 47.0877 59.7824 46.8175 59.8694 46.5744C59.9519 46.3357 60.0756 46.1286 60.2359 45.953C60.3963 45.7819 60.5841 45.6513 60.8132 45.5613C61.0376 45.4712 61.2942 45.4262 61.5782 45.4262C61.844 45.4262 62.0868 45.4667 62.3021 45.5478C62.522 45.6288 62.7144 45.7549 62.8747 45.9215L63.3833 45.0435C63.1496 44.8364 62.8839 44.6743 62.5861 44.5617C62.2883 44.4492 61.9264 44.3906 61.5049 44.3906C61.0972 44.3906 60.7215 44.4627 60.3779 44.6113C60.0343 44.7598 59.7411 44.967 59.4892 45.2371C59.2372 45.5073 59.0448 45.8269 58.9073 46.1916C58.7699 46.5564 58.7012 46.9616 58.7012 47.4028C58.7012 48.0107 58.8157 48.5375 59.0493 48.9832C59.283 49.4335 59.6083 49.7802 60.0252 50.0278C60.4467 50.2755 60.9323 50.397 61.4912 50.397C61.9173 50.397 62.2975 50.3385 62.6365 50.2214C62.971 50.1044 63.2687 49.9378 63.5253 49.7262L63.0672 48.8256C62.8427 49.0057 62.609 49.1453 62.3616 49.2264Z" fill="#3782EF"/>
<path d="M63.7402 47.0156H64.9451V50.271H65.9301V47.0156H67.135V46.1602H63.7402V47.0156Z" fill="#3782EF"/>
<path d="M71.1929 46.3182C70.9043 46.1336 70.5745 46.0391 70.2034 46.0391C69.8735 46.0391 69.5941 46.1021 69.3604 46.2237C69.1268 46.3452 68.9389 46.5073 68.7877 46.7054V46.1606H67.9219V52.0004H68.9023V49.8212C69.058 50.0013 69.2413 50.1409 69.4566 50.2444C69.6719 50.348 69.9148 50.3975 70.1896 50.3975C70.4737 50.3975 70.7348 50.3435 70.9685 50.2264C71.2067 50.1139 71.4083 49.9563 71.5823 49.7582C71.7519 49.5601 71.8847 49.3304 71.9809 49.0648C72.0771 48.8036 72.1229 48.5155 72.1229 48.2138C72.1229 47.7906 72.0405 47.4123 71.8756 47.0837C71.7106 46.7595 71.4816 46.5028 71.1929 46.3182ZM71.0005 48.8847C70.9043 49.0738 70.7715 49.2179 70.6019 49.3214C70.4324 49.425 70.24 49.4745 70.0201 49.4745C69.8002 49.4745 69.6078 49.425 69.4383 49.3214C69.2688 49.2179 69.1359 49.0738 69.0397 48.8847C68.9435 48.6956 68.8977 48.4749 68.8977 48.2183C68.8977 47.9617 68.9435 47.7365 69.0443 47.5474C69.1405 47.3583 69.2734 47.2142 69.4429 47.1107C69.6124 47.0116 69.8048 46.9576 70.0201 46.9576C70.2354 46.9576 70.4279 47.0071 70.5974 47.1107C70.7669 47.2142 70.8997 47.3583 71.0005 47.5474C71.0967 47.7365 71.1471 47.9617 71.1471 48.2183C71.1471 48.4749 71.0967 48.6956 71.0005 48.8847Z" fill="#3782EF"/>
<path d="M75.3708 46.1781C75.1097 46.0566 74.7981 45.998 74.4408 45.998C74.1888 45.998 73.9323 46.0341 73.662 46.1106C73.3917 46.1872 73.1397 46.3087 72.8969 46.4798L73.1626 47.2317C73.3321 47.0967 73.5154 46.9976 73.7124 46.9346C73.9094 46.8715 74.1064 46.8355 74.3034 46.8355C74.5233 46.8355 74.6973 46.8715 74.8394 46.9391C74.9768 47.0111 75.0776 47.1102 75.1463 47.2362C75.215 47.3623 75.2471 47.5154 75.2471 47.6865V47.7766C74.8531 47.7405 74.5004 47.7405 74.2026 47.7811C73.8544 47.8216 73.5703 47.9026 73.3504 48.0197C73.126 48.1413 72.961 48.2898 72.8557 48.4699C72.7503 48.6501 72.6953 48.8572 72.6953 49.0868C72.6953 49.3569 72.7503 49.5866 72.8694 49.7847C72.9839 49.9828 73.1443 50.1314 73.3459 50.2395C73.5474 50.3475 73.7811 50.4015 74.0422 50.4015C74.3217 50.4015 74.5782 50.352 74.8027 50.2485C75.0272 50.1449 75.2059 50.0008 75.3296 49.8117V50.28H76.1954V47.682C76.1954 47.2993 76.1221 46.9841 75.9801 46.7365C75.8335 46.4798 75.6319 46.2997 75.3708 46.1781ZM75.2471 48.7266C75.2471 48.9067 75.2059 49.0598 75.1234 49.1904C75.0409 49.3209 74.9264 49.42 74.7798 49.492C74.6332 49.5641 74.4729 49.6001 74.2896 49.6001C74.0789 49.6001 73.9094 49.5506 73.7857 49.456C73.662 49.3569 73.6024 49.2174 73.6024 49.0373C73.6024 48.9157 73.6391 48.8121 73.717 48.7221C73.7903 48.632 73.9048 48.56 74.056 48.5105C74.2071 48.4564 74.3996 48.4294 74.6332 48.4249C74.8119 48.4204 75.018 48.4339 75.2471 48.4654V48.7266Z" fill="#3782EF"/>
<path d="M80.8504 46.1602H79.6409L78.9171 47.4794L78.1703 46.1602H76.9334L78.239 48.2223L76.8555 50.28L78.0604 50.2665L78.885 48.9247L79.6959 50.271H80.9557L79.5814 48.1953L80.8504 46.1602Z" fill="#3782EF"/>
<path d="M84.4665 46.3313C84.1504 46.1332 83.7885 46.0342 83.3808 46.0342C83.0738 46.0342 82.7944 46.0927 82.5378 46.2098C82.2813 46.3268 82.0614 46.4844 81.8735 46.6871C81.6857 46.8897 81.5391 47.1193 81.4383 47.3849C81.3375 47.6506 81.2871 47.9253 81.2871 48.2134C81.2871 48.6096 81.3742 48.9698 81.5574 49.303C81.7361 49.6317 81.9835 49.8974 82.2996 50.0955C82.6157 50.2936 82.9776 50.3927 83.3854 50.3927C83.6923 50.3927 83.9718 50.3341 84.2283 50.2171C84.4849 50.1 84.7048 49.9424 84.8926 49.7398C85.0804 49.5372 85.227 49.303 85.3278 49.0419C85.4332 48.7807 85.4836 48.5016 85.4836 48.2134C85.4836 47.8172 85.392 47.457 85.2133 47.1238C85.03 46.7951 84.7827 46.5295 84.4665 46.3313ZM84.3612 48.8843C84.265 49.0734 84.1321 49.2175 83.958 49.321C83.7885 49.4246 83.5961 49.4741 83.3808 49.4741C83.1655 49.4741 82.9685 49.4246 82.8035 49.321C82.634 49.2175 82.5012 49.0734 82.405 48.8843C82.3087 48.6952 82.2584 48.4746 82.2584 48.2179C82.2584 47.9613 82.3042 47.7361 82.4004 47.547C82.4966 47.3579 82.6294 47.2138 82.7989 47.1103C82.9685 47.0067 83.1609 46.9572 83.3808 46.9572C83.6007 46.9572 83.7931 47.0067 83.9626 47.1103C84.1321 47.2093 84.265 47.3579 84.3612 47.547C84.4574 47.7361 84.5078 47.9613 84.5078 48.2179C84.5078 48.4746 84.4574 48.6952 84.3612 48.8843Z" fill="#3782EF"/>
<path d="M89.1188 48.0467C89.1463 48.0332 89.1738 48.0197 89.2013 48.0017C89.3433 47.9207 89.4533 47.8126 89.5357 47.682C89.6182 47.5514 89.6594 47.3984 89.6594 47.2228C89.6594 46.8716 89.5311 46.6059 89.27 46.4258C89.0089 46.2502 88.6607 46.1602 88.2163 46.1602H86.3242V50.271H88.2804C88.6057 50.271 88.8852 50.2215 89.1142 50.1224C89.3433 50.0233 89.522 49.8838 89.6411 49.6992C89.7602 49.5146 89.8243 49.2939 89.8243 49.0418C89.8243 48.7401 89.7281 48.4925 89.5266 48.2989C89.4166 48.1908 89.2792 48.1053 89.1188 48.0467ZM87.268 46.9076H88.0605C88.2713 46.9076 88.4362 46.9436 88.5553 47.0201C88.6744 47.0967 88.734 47.2138 88.734 47.3758C88.734 47.5334 88.6744 47.6505 88.5553 47.7225C88.4362 47.7946 88.2713 47.8306 88.056 47.8306H87.2634V46.9076H87.268ZM88.679 49.3975C88.5553 49.483 88.3812 49.5236 88.1522 49.5236H87.2726V48.5465H88.1522C88.3812 48.5465 88.5599 48.587 88.679 48.6681C88.8027 48.7491 88.8623 48.8707 88.8623 49.0283C88.8623 49.1949 88.7981 49.3164 88.679 49.3975Z" fill="#3782EF"/>
<path d="M93.1716 46.1781C92.9104 46.0566 92.5989 45.998 92.2416 45.998C91.9896 45.998 91.733 46.0341 91.4628 46.1106C91.1925 46.1872 90.9405 46.3087 90.6977 46.4798L90.9634 47.2317C91.1329 47.0967 91.3161 46.9976 91.5131 46.9346C91.7101 46.8715 91.9071 46.8355 92.1041 46.8355C92.324 46.8355 92.4981 46.8715 92.6356 46.9391C92.773 47.0111 92.8784 47.1102 92.9471 47.2362C93.0158 47.3623 93.0479 47.5154 93.0479 47.6865V47.7766C92.6539 47.7405 92.3011 47.7405 92.0033 47.7811C91.6552 47.8216 91.3711 47.9026 91.1512 48.0197C90.9313 48.1413 90.7618 48.2898 90.6564 48.4699C90.5511 48.6501 90.4961 48.8572 90.4961 49.0868C90.4961 49.3569 90.5557 49.5866 90.6702 49.7847C90.7847 49.9828 90.9451 50.1314 91.1466 50.2395C91.3482 50.3475 91.5819 50.4015 91.8384 50.4015C92.1179 50.4015 92.3744 50.352 92.5989 50.2485C92.8234 50.1449 93.0021 50.0008 93.1258 49.8117V50.28H93.9916V47.682C93.9916 47.2993 93.9183 46.9841 93.7763 46.7365C93.6389 46.4798 93.4373 46.2997 93.1716 46.1781ZM93.0479 48.7266C93.0479 48.9067 93.0067 49.0598 92.9242 49.1904C92.8417 49.3209 92.7272 49.42 92.5806 49.492C92.434 49.5641 92.2736 49.6001 92.0904 49.6001C91.8796 49.6001 91.7101 49.5506 91.5864 49.456C91.4628 49.3569 91.4032 49.2174 91.4032 49.0373C91.4032 48.9157 91.4398 48.8121 91.5177 48.7221C91.591 48.632 91.7056 48.56 91.8567 48.5105C92.0079 48.4564 92.2003 48.4294 92.434 48.4249C92.6127 48.4204 92.8188 48.4339 93.0479 48.4654V48.7266Z" fill="#3782EF"/>
<path d="M95.745 46.3219C95.5022 46.43 95.3143 46.5876 95.1815 46.7902C95.0486 46.9928 94.9845 47.2404 94.9845 47.5241C94.9845 47.7852 95.0441 48.0149 95.1677 48.2085C95.2914 48.3976 95.4655 48.5462 95.69 48.6497C95.7496 48.6767 95.8091 48.6993 95.8733 48.7218L94.8379 50.2752H95.9328L96.8949 48.8163H97.3759V50.2752H98.3151V46.1643H96.5925C96.2718 46.1598 95.9878 46.2138 95.745 46.3219ZM97.3805 46.9343V48.0734H96.6384C96.4184 48.0734 96.2489 48.0239 96.1344 47.9203C96.0199 47.8213 95.9603 47.6772 95.9603 47.4971C95.9603 47.3125 96.0245 47.1684 96.1481 47.0738C96.2764 46.9793 96.4597 46.9343 96.7025 46.9343H97.3805Z" fill="#3782EF"/>
<path d="M102.47 48.5509V44.5166H101.48V50.2709H102.447L104.971 46.2051V50.2709H105.961V44.5166H104.985L102.47 48.5509Z" fill="#3782EF"/>
<path d="M109.993 47.709H108.225V46.1602H107.244V50.271H108.225V48.5645H109.993V50.271H110.973V46.1602H109.993V47.709Z" fill="#3782EF"/>
<path d="M116.016 46.3002C115.728 46.1831 115.402 46.1111 115.04 46.0751V44.3506H114.06V46.0796C113.707 46.1156 113.391 46.1876 113.112 46.3002C112.699 46.4668 112.383 46.7099 112.159 47.0341C111.934 47.3538 111.824 47.75 111.824 48.2138C111.824 48.6775 111.934 49.0693 112.154 49.3934C112.374 49.7176 112.686 49.9608 113.093 50.1274C113.377 50.2444 113.703 50.321 114.06 50.3525V51.9959H115.04V50.3525C115.265 50.33 115.476 50.2895 115.668 50.2354C116.007 50.1409 116.296 50.0013 116.538 49.8212C116.781 49.6411 116.964 49.416 117.093 49.1458C117.221 48.8757 117.285 48.5695 117.285 48.2183C117.285 47.75 117.175 47.3538 116.955 47.0296C116.735 46.7099 116.424 46.4668 116.016 46.3002ZM114.055 49.488C113.877 49.4655 113.716 49.425 113.579 49.3754C113.318 49.2764 113.121 49.1323 112.988 48.9432C112.855 48.7496 112.786 48.5109 112.786 48.2183C112.786 47.9256 112.85 47.687 112.983 47.4934C113.116 47.2998 113.313 47.1557 113.574 47.0611C113.716 47.0071 113.877 46.9711 114.055 46.9486V49.488ZM116.117 48.9432C115.989 49.1368 115.792 49.2809 115.53 49.3754C115.388 49.4295 115.224 49.4655 115.04 49.4925V46.9441C115.219 46.9666 115.375 47.0071 115.517 47.0566C115.778 47.1512 115.979 47.2953 116.112 47.4889C116.245 47.6825 116.314 47.9256 116.314 48.2138C116.309 48.5064 116.245 48.7496 116.117 48.9432Z" fill="#3782EF"/>
<path d="M121.033 46.3313C120.717 46.1332 120.355 46.0342 119.947 46.0342C119.64 46.0342 119.361 46.0927 119.104 46.2098C118.848 46.3268 118.628 46.4844 118.44 46.6871C118.252 46.8897 118.105 47.1193 118.005 47.3849C117.904 47.6506 117.854 47.9253 117.854 48.2134C117.854 48.6096 117.941 48.9698 118.124 49.303C118.302 49.6317 118.55 49.8974 118.866 50.0955C119.182 50.2936 119.544 50.3927 119.952 50.3927C120.259 50.3927 120.538 50.3341 120.795 50.2171C121.051 50.1 121.271 49.9424 121.459 49.7398C121.647 49.5372 121.793 49.303 121.894 49.0419C122 48.7807 122.05 48.5016 122.05 48.2134C122.05 47.8172 121.958 47.457 121.78 47.1238C121.596 46.7951 121.344 46.5295 121.033 46.3313ZM120.928 48.8843C120.831 49.0734 120.699 49.2175 120.524 49.321C120.355 49.4246 120.163 49.4741 119.947 49.4741C119.732 49.4741 119.535 49.4246 119.37 49.321C119.2 49.2175 119.068 49.0734 118.971 48.8843C118.875 48.6952 118.825 48.4746 118.825 48.2179C118.825 47.9613 118.871 47.7361 118.967 47.547C119.063 47.3579 119.196 47.2138 119.365 47.1103C119.535 47.0067 119.727 46.9572 119.947 46.9572C120.167 46.9572 120.359 47.0067 120.529 47.1103C120.699 47.2093 120.831 47.3579 120.928 47.547C121.024 47.7361 121.074 47.9613 121.074 48.2179C121.074 48.4746 121.024 48.6952 120.928 48.8843Z" fill="#3782EF"/>
<path d="M126.166 46.3182C125.877 46.1336 125.547 46.0391 125.176 46.0391C124.846 46.0391 124.567 46.1021 124.333 46.2237C124.099 46.3452 123.912 46.5073 123.76 46.7054V46.1606H122.895V52.0004H123.87V49.8212C124.026 50.0013 124.209 50.1409 124.425 50.2444C124.64 50.348 124.883 50.3975 125.158 50.3975C125.442 50.3975 125.703 50.3435 125.937 50.2264C126.175 50.1139 126.376 49.9563 126.55 49.7582C126.72 49.5601 126.853 49.3304 126.949 49.0648C127.045 48.8036 127.091 48.5155 127.091 48.2138C127.091 47.7906 127.009 47.4123 126.844 47.0837C126.683 46.7595 126.454 46.5028 126.166 46.3182ZM125.973 48.8847C125.877 49.0738 125.744 49.2179 125.575 49.3214C125.405 49.425 125.213 49.4745 124.993 49.4745C124.777 49.4745 124.58 49.425 124.411 49.3214C124.241 49.2179 124.109 49.0738 124.012 48.8847C123.916 48.6956 123.87 48.4749 123.87 48.2183C123.87 47.9617 123.916 47.7365 124.017 47.5474C124.113 47.3583 124.246 47.2142 124.416 47.1107C124.585 47.0116 124.777 46.9576 124.993 46.9576C125.208 46.9576 125.401 47.0071 125.57 47.1107C125.74 47.2142 125.872 47.3583 125.973 47.5474C126.069 47.7365 126.12 47.9617 126.12 48.2183C126.12 48.4749 126.069 48.6956 125.973 48.8847Z" fill="#3782EF"/>
<path d="M130.255 48.4475L128.807 46.1602H128.784H127.941V50.271H128.757L128.743 47.7225L129.911 49.4966H130.521L131.62 47.7451L131.611 50.271H132.491V46.1602H131.625L130.255 48.4475Z" fill="#3782EF"/>
<path d="M136.06 46.1781C135.799 46.0566 135.488 45.998 135.13 45.998C134.878 45.998 134.622 46.0341 134.351 46.1106C134.081 46.1872 133.829 46.3087 133.586 46.4798L133.852 47.2317C134.022 47.0967 134.205 46.9976 134.402 46.9346C134.599 46.8715 134.796 46.8355 134.993 46.8355C135.213 46.8355 135.387 46.8715 135.524 46.9391C135.662 47.0111 135.767 47.1102 135.836 47.2362C135.904 47.3623 135.937 47.5154 135.937 47.6865V47.7766C135.543 47.7405 135.19 47.7405 134.892 47.7811C134.544 47.8216 134.26 47.9026 134.04 48.0197C133.82 48.1413 133.65 48.2898 133.545 48.4699C133.435 48.6501 133.385 48.8572 133.385 49.0868C133.385 49.3569 133.444 49.5866 133.559 49.7847C133.673 49.9828 133.834 50.1314 134.035 50.2395C134.237 50.3475 134.471 50.4015 134.732 50.4015C135.011 50.4015 135.268 50.352 135.492 50.2485C135.717 50.1449 135.895 50.0008 136.019 49.8117V50.28H136.885V47.682C136.885 47.2993 136.816 46.9841 136.67 46.7365C136.528 46.4798 136.326 46.2997 136.06 46.1781ZM135.937 48.7266C135.937 48.9067 135.895 49.0598 135.813 49.1904C135.73 49.3209 135.616 49.42 135.469 49.492C135.323 49.5641 135.162 49.6001 134.979 49.6001C134.768 49.6001 134.599 49.5506 134.475 49.456C134.351 49.3569 134.292 49.2174 134.292 49.0373C134.292 48.9157 134.329 48.8121 134.406 48.7221C134.48 48.632 134.594 48.56 134.745 48.5105C134.897 48.4564 135.089 48.4294 135.323 48.4249C135.501 48.4204 135.707 48.4339 135.937 48.4654V48.7266Z" fill="#3782EF"/>
<path d="M141.63 46.1602H140.65V49.4155H138.987V46.1602H138.002V50.271H141.172H141.63H141.731V51.5047H142.629V49.4155H141.63V46.1602Z" fill="#3782EF"/>
<path d="M144.321 48.7581V46.1602H143.377V50.271H144.234L146.181 47.6415V50.271H147.124V46.1602H146.259L144.321 48.7581Z" fill="#3782EF"/>
<path d="M151.156 46.3313C150.84 46.1332 150.478 46.0342 150.07 46.0342C149.763 46.0342 149.484 46.0927 149.227 46.2098C148.971 46.3268 148.751 46.4844 148.563 46.6871C148.375 46.8897 148.229 47.1193 148.128 47.3849C148.027 47.6506 147.977 47.9253 147.977 48.2134C147.977 48.6096 148.064 48.9698 148.242 49.303C148.421 49.6317 148.668 49.8974 148.984 50.0955C149.301 50.2936 149.662 50.3927 150.07 50.3927C150.377 50.3927 150.657 50.3341 150.913 50.2171C151.17 50.1 151.39 49.9424 151.577 49.7398C151.765 49.5372 151.907 49.303 152.013 49.0419C152.118 48.7807 152.168 48.5016 152.168 48.2134C152.168 47.8172 152.077 47.457 151.898 47.1238C151.719 46.7951 151.472 46.5295 151.156 46.3313ZM151.051 48.8843C150.954 49.0734 150.822 49.2175 150.647 49.321C150.478 49.4246 150.286 49.4741 150.07 49.4741C149.855 49.4741 149.658 49.4246 149.493 49.321C149.323 49.2175 149.191 49.0734 149.094 48.8843C148.998 48.6952 148.948 48.4746 148.948 48.2179C148.948 47.9613 148.994 47.7361 149.09 47.547C149.186 47.3579 149.319 47.2138 149.488 47.1103C149.658 47.0067 149.85 46.9572 150.07 46.9572C150.29 46.9572 150.483 47.0067 150.652 47.1103C150.822 47.2093 150.954 47.3579 151.051 47.547C151.147 47.7361 151.197 47.9613 151.197 48.2179C151.197 48.4746 151.147 48.6952 151.051 48.8843Z" fill="#3782EF"/>
<path d="M155.764 47.709H153.996V46.1602H153.016V50.271H153.996V48.5645H155.764V50.271H156.749V46.1602H155.764V47.709Z" fill="#3782EF"/>
<path d="M160.667 47.709H158.898V46.1602H157.918V50.271H158.898V48.5645H160.667V50.271H161.647V46.1602H160.667V47.709Z" fill="#3782EF"/>
<path d="M165.22 46.1781C164.959 46.0566 164.648 45.998 164.29 45.998C164.038 45.998 163.782 46.0341 163.512 46.1106C163.241 46.1872 162.989 46.3087 162.747 46.4798L163.012 47.2317C163.182 47.0967 163.365 46.9976 163.562 46.9346C163.759 46.8715 163.956 46.8355 164.153 46.8355C164.373 46.8355 164.547 46.8715 164.684 46.9391C164.822 47.0111 164.927 47.1102 164.996 47.2362C165.065 47.3623 165.097 47.5154 165.097 47.6865V47.7766C164.703 47.7405 164.35 47.7405 164.052 47.7811C163.704 47.8216 163.42 47.9026 163.2 48.0197C162.98 48.1413 162.811 48.2898 162.705 48.4699C162.6 48.6501 162.545 48.8572 162.545 49.0868C162.545 49.3569 162.604 49.5866 162.719 49.7847C162.834 49.9828 162.994 50.1314 163.195 50.2395C163.397 50.3475 163.631 50.4015 163.887 50.4015C164.167 50.4015 164.423 50.352 164.648 50.2485C164.872 50.1449 165.051 50.0008 165.175 49.8117V50.28H166.04V47.682C166.04 47.2993 165.967 46.9841 165.825 46.7365C165.688 46.4798 165.482 46.2997 165.22 46.1781ZM165.097 48.7266C165.097 48.9067 165.055 49.0598 164.973 49.1904C164.891 49.3209 164.776 49.42 164.629 49.492C164.483 49.5641 164.322 49.6001 164.139 49.6001C163.928 49.6001 163.759 49.5506 163.635 49.456C163.512 49.3569 163.452 49.2174 163.452 49.0373C163.452 48.9157 163.489 48.8121 163.567 48.7221C163.64 48.632 163.754 48.56 163.906 48.5105C164.057 48.4564 164.249 48.4294 164.483 48.4249C164.661 48.4204 164.868 48.4339 165.097 48.4654V48.7266Z" fill="#3782EF"/>
<path d="M167.794 46.3219C167.551 46.43 167.363 46.5876 167.23 46.7902C167.097 46.9928 167.033 47.2404 167.033 47.5241C167.033 47.7852 167.093 48.0149 167.217 48.2085C167.34 48.3976 167.514 48.5462 167.739 48.6497C167.798 48.6767 167.858 48.6993 167.922 48.7218L166.887 50.2752H167.982L168.944 48.8163H169.425V50.2752H170.364V46.1643H168.641C168.321 46.1598 168.037 46.2138 167.794 46.3219ZM169.429 46.9343V48.0734H168.687C168.467 48.0734 168.298 48.0239 168.183 47.9203C168.069 47.8213 168.009 47.6772 168.009 47.4971C168.009 47.3125 168.073 47.1684 168.197 47.0738C168.325 46.9793 168.509 46.9343 168.751 46.9343H169.429Z" fill="#3782EF"/>
<path d="M176.862 49.2264C176.615 49.3119 176.363 49.3524 176.106 49.3524C175.722 49.3524 175.392 49.2759 175.112 49.1183C174.833 48.9607 174.617 48.7401 174.471 48.4474C174.32 48.1548 174.242 47.8036 174.242 47.3893C174.242 47.0877 174.283 46.8175 174.37 46.5744C174.452 46.3357 174.576 46.1286 174.737 45.953C174.897 45.7819 175.085 45.6513 175.314 45.5613C175.538 45.4712 175.795 45.4262 176.079 45.4262C176.345 45.4262 176.587 45.4667 176.807 45.5478C177.027 45.6288 177.22 45.7549 177.38 45.9215L177.888 45.0435C177.655 44.8364 177.389 44.6743 177.091 44.5617C176.794 44.4492 176.432 44.3906 176.01 44.3906C175.602 44.3906 175.227 44.4627 174.888 44.6113C174.549 44.7598 174.251 44.967 173.999 45.2371C173.747 45.5073 173.555 45.8269 173.417 46.1916C173.28 46.5564 173.211 46.9616 173.211 47.4028C173.211 48.0107 173.325 48.5375 173.559 48.9832C173.793 49.4335 174.118 49.7802 174.54 50.0278C174.956 50.2755 175.447 50.397 176.006 50.397C176.432 50.397 176.812 50.3385 177.151 50.2214C177.485 50.1044 177.783 49.9378 178.04 49.7262L177.582 48.8256C177.343 49.0057 177.11 49.1453 176.862 49.2264Z" fill="#3782EF"/>
<path d="M179.756 48.7581V46.1602H178.812V50.271H179.669L181.616 47.6415V50.271H182.56V46.1602H181.694L179.756 48.7581Z" fill="#3782EF"/>
<path d="M186.13 49.3664C185.965 49.4385 185.786 49.479 185.603 49.479C185.227 49.479 184.934 49.3665 184.718 49.1458C184.503 48.9207 184.393 48.6145 184.393 48.2183C184.393 47.9526 184.439 47.7275 184.54 47.5384C184.636 47.3538 184.773 47.2097 184.957 47.1107C185.135 47.0116 185.351 46.9621 185.603 46.9621C185.768 46.9621 185.928 46.9891 186.079 47.0476C186.23 47.1062 186.368 47.1917 186.487 47.3043L186.945 46.5118C186.753 46.3542 186.542 46.2372 186.313 46.1561C186.084 46.0796 185.832 46.0391 185.566 46.0391C185.254 46.0391 184.97 46.0931 184.709 46.2012C184.448 46.3092 184.219 46.4623 184.022 46.6559C183.83 46.854 183.679 47.0837 183.569 47.3448C183.463 47.6105 183.408 47.8986 183.408 48.2138C183.408 48.6325 183.5 49.0017 183.678 49.3304C183.862 49.6591 184.109 49.9158 184.425 50.1049C184.741 50.294 185.103 50.393 185.506 50.393C185.777 50.393 186.038 50.3435 186.299 50.249C186.556 50.1544 186.789 50.0193 187 49.8527L186.56 49.0558C186.441 49.1908 186.294 49.2899 186.13 49.3664Z" fill="#3782EF"/>
<path d="M187.389 47.0156H188.598V50.271H189.583V47.0156H190.788V46.1602H187.389V47.0156Z" fill="#3782EF"/>
<path d="M194.798 46.7364C194.633 46.5157 194.418 46.3446 194.166 46.2231C193.914 46.1015 193.625 46.043 193.304 46.043C193.007 46.043 192.736 46.097 192.484 46.2051C192.237 46.3131 192.017 46.4617 191.834 46.6598C191.651 46.8579 191.504 47.0876 191.403 47.3532C191.302 47.6189 191.252 47.9115 191.252 48.2312C191.252 48.6635 191.339 49.0417 191.513 49.3704C191.687 49.699 191.935 49.9512 192.246 50.1313C192.562 50.3159 192.924 50.4059 193.346 50.4059C193.529 50.4059 193.717 50.3834 193.914 50.3429C194.111 50.3024 194.299 50.2439 194.477 50.1673C194.656 50.0908 194.807 50.0007 194.926 49.8972L194.583 49.1587C194.408 49.2938 194.221 49.3929 194.019 49.4649C193.817 49.5324 193.607 49.5685 193.387 49.5685C193.139 49.5685 192.924 49.5234 192.741 49.4334C192.558 49.3433 192.416 49.2173 192.319 49.0507C192.223 48.8886 192.173 48.6995 192.177 48.4834H195.178C195.229 48.1367 195.219 47.8125 195.155 47.5198C195.087 47.2136 194.967 46.957 194.798 46.7364ZM192.237 47.7224C192.264 47.4478 192.374 47.2271 192.562 47.0696C192.75 46.912 192.993 46.8309 193.281 46.8309C193.575 46.8309 193.804 46.912 193.969 47.0696C194.134 47.2271 194.216 47.4433 194.225 47.7224H192.237Z" fill="#3782EF"/>
<path d="M198.377 48.4475L196.929 46.1602H196.906H196.059V50.271H196.879L196.865 47.7225L198.033 49.4966H198.642L199.742 47.7451L199.733 50.271H200.608V46.1602H199.747L198.377 48.4475Z" fill="#3782EF"/>
<path d="M204.18 46.1781C203.919 46.0566 203.607 45.998 203.25 45.998C202.998 45.998 202.742 46.0341 202.471 46.1106C202.201 46.1872 201.944 46.3087 201.706 46.4798L201.972 47.2317C202.146 47.0967 202.329 46.9976 202.522 46.9346C202.719 46.8715 202.916 46.8355 203.113 46.8355C203.328 46.8355 203.507 46.8715 203.644 46.9391C203.782 47.0111 203.887 47.1102 203.951 47.2362C204.02 47.3623 204.052 47.5154 204.052 47.6865V47.7766C203.653 47.7405 203.305 47.7405 203.007 47.7811C202.659 47.8216 202.375 47.9026 202.155 48.0197C201.931 48.1413 201.766 48.2898 201.66 48.4699C201.555 48.6501 201.5 48.8572 201.5 49.0868C201.5 49.3569 201.555 49.5866 201.674 49.7847C201.789 49.9828 201.949 50.1314 202.151 50.2395C202.352 50.3475 202.586 50.4015 202.847 50.4015C203.126 50.4015 203.383 50.352 203.607 50.2485C203.832 50.1449 204.011 50.0008 204.139 49.8117V50.28H205.005V47.682C205.005 47.2993 204.936 46.9841 204.794 46.7365C204.647 46.4798 204.441 46.2952 204.18 46.1781ZM204.056 48.7266C204.056 48.9067 204.015 49.0598 203.928 49.1904C203.846 49.3209 203.731 49.42 203.585 49.492C203.438 49.5641 203.278 49.6001 203.094 49.6001C202.884 49.6001 202.714 49.5506 202.59 49.456C202.467 49.3569 202.407 49.2174 202.407 49.0373C202.407 48.9157 202.444 48.8121 202.522 48.7221C202.595 48.632 202.709 48.56 202.861 48.5105C203.012 48.4564 203.204 48.4294 203.438 48.4249C203.621 48.4204 203.823 48.4339 204.052 48.4654V48.7266H204.056Z" fill="#3782EF"/>
<path d="M35.4917 37.844V0H28.9587V15.1376H6.73022V0H0.197266V37.844H6.73022V21.8644H28.9587V37.844H35.4917Z" fill="#3782EF"/>
<path d="M108.183 7.18157V37.844H114.716V0H105.306L85.9594 30.6624V0H79.4219V37.844H81.4239H85.9594H88.8365L108.183 7.18157Z" fill="#3782EF"/>
<path d="M74.7119 31.1172H57.0646C50.7837 31.1172 45.6892 25.6601 45.6892 18.9242C45.6892 12.1884 50.7837 6.73132 57.0646 6.73132H74.7119V0H56.6707C46.9262 0 39.0234 8.47381 39.0234 18.9242C39.0234 29.3747 46.9262 37.844 56.6707 37.844H74.7119V31.1172Z" fill="#3782EF"/>
<path d="M135.895 37.844H153.936V31.1172H136.289C130.008 31.1172 124.914 25.6601 124.914 18.9242C124.914 12.1884 130.004 6.73132 136.289 6.73132H153.936V0H135.895C126.146 0 118.248 8.47381 118.248 18.9197C118.248 29.3747 126.151 37.844 135.895 37.844Z" fill="#3782EF"/>
<path d="M175.594 6.72682C176.854 6.72682 177.875 5.6327 177.875 4.28193V2.44489C177.875 1.09412 176.854 0 175.594 0C174.334 0 173.312 1.09412 173.312 2.44489V4.27743C173.313 5.6327 174.334 6.72682 175.594 6.72682ZM174.453 2.44489C174.453 1.7695 174.966 1.22019 175.594 1.22019C176.222 1.22019 176.735 1.7695 176.735 2.44489V4.27743C176.735 4.95281 176.222 5.50212 175.594 5.50212C174.962 5.50212 174.453 4.95281 174.453 4.27743V2.44489Z" fill="#3782EF"/>
<path d="M168.33 0C167.07 0 166.049 1.09412 166.049 2.44489V4.27743C166.049 5.62819 167.07 6.72231 168.33 6.72231C169.59 6.72231 170.612 5.62819 170.612 4.27743V2.44489C170.616 1.09412 169.595 0 168.33 0ZM169.476 4.28193C169.476 4.95731 168.963 5.50662 168.335 5.50662C167.707 5.50662 167.194 4.96182 167.194 4.28193V2.44489C167.194 1.7695 167.707 1.22019 168.335 1.22019C168.967 1.22019 169.476 1.7695 169.476 2.44489V4.28193Z" fill="#3782EF"/>
<path d="M181.699 6.72682H182.84V1.22469V0H180.572V1.22469H181.699V6.72682Z" fill="#3782EF"/>
<path d="M197.752 6.72682C199.012 6.72682 200.034 5.6327 200.034 4.28193V2.44489C200.034 1.09412 199.012 0 197.752 0C196.492 0 195.471 1.09412 195.471 2.44489V4.27743C195.471 5.6327 196.492 6.72682 197.752 6.72682ZM196.611 2.44489C196.611 1.7695 197.125 1.22019 197.752 1.22019C198.38 1.22019 198.893 1.7695 198.893 2.44489V4.27743C198.893 4.95281 198.38 5.50212 197.752 5.50212C197.12 5.50212 196.611 4.95281 196.611 4.27743V2.44489Z" fill="#3782EF"/>
<path d="M162.216 6.72682H163.356V1.22469V0H161.084V1.22469H162.216V6.72682Z" fill="#3782EF"/>
<path d="M186.666 6.72682H187.807V1.22469V0H185.539V1.22469H186.666V6.72682Z" fill="#3782EF"/>
<path d="M191.631 6.72682H192.772V1.22469V0H190.504V1.22469H191.631V6.72682Z" fill="#3782EF"/>
<path d="M203.86 6.72682H205.001V1.22469V0H202.729V1.22469H203.86V6.72682Z" fill="#3782EF"/>
<path d="M174.281 27.47C175.541 27.47 176.563 26.3759 176.563 25.0251V23.1881C176.563 21.8373 175.541 20.7432 174.281 20.7432C173.022 20.7432 172 21.8373 172 23.1881V25.0251C172 26.3759 173.022 27.47 174.281 27.47ZM173.141 23.1926C173.141 22.5172 173.654 21.9679 174.281 21.9679C174.909 21.9679 175.422 22.5172 175.422 23.1926V25.0296C175.422 25.705 174.909 26.2498 174.281 26.2498C173.649 26.2498 173.141 25.705 173.141 25.0296V23.1926Z" fill="#3782EF"/>
<path d="M167.676 20.7432C166.416 20.7432 165.395 21.8373 165.395 23.1881V25.0251C165.395 26.3759 166.416 27.47 167.676 27.47C168.936 27.47 169.958 26.3759 169.958 25.0251V23.1881C169.962 21.8418 168.936 20.7432 167.676 20.7432ZM168.817 25.0251C168.817 25.7005 168.304 26.2453 167.676 26.2453C167.048 26.2453 166.535 25.696 166.535 25.0251V23.1881C166.535 22.5127 167.048 21.9634 167.676 21.9634C168.308 21.9634 168.817 22.5127 168.817 23.1881V25.0251Z" fill="#3782EF"/>
<path d="M180.874 27.47V21.9679V20.7432H179.733H178.602V21.9679H179.733V27.47H180.874Z" fill="#3782EF"/>
<path d="M196.114 27.47C197.373 27.47 198.395 26.3759 198.395 25.0251V23.1881C198.395 21.8373 197.373 20.7432 196.114 20.7432C194.854 20.7432 193.832 21.8373 193.832 23.1881V25.0251C193.832 26.3759 194.854 27.47 196.114 27.47ZM194.973 23.1926C194.973 22.5172 195.486 21.9679 196.114 21.9679C196.741 21.9679 197.254 22.5172 197.254 23.1926V25.0296C197.254 25.705 196.741 26.2498 196.114 26.2498C195.481 26.2498 194.973 25.705 194.973 25.0296V23.1926Z" fill="#3782EF"/>
<path d="M189.512 27.47C190.772 27.47 191.793 26.3759 191.793 25.0251V23.1881C191.793 21.8373 190.772 20.7432 189.512 20.7432C188.252 20.7432 187.23 21.8373 187.23 23.1881V25.0251C187.226 26.3759 188.252 27.47 189.512 27.47ZM188.371 23.1926C188.371 22.5172 188.884 21.9679 189.512 21.9679C190.14 21.9679 190.653 22.5172 190.653 23.1926V25.0296C190.653 25.705 190.14 26.2498 189.512 26.2498C188.88 26.2498 188.371 25.705 188.371 25.0296V23.1926Z" fill="#3782EF"/>
<path d="M202.719 20.7432C201.459 20.7432 200.438 21.8373 200.438 23.1881V25.0251C200.438 26.3759 201.459 27.47 202.719 27.47C203.979 27.47 205 26.3759 205 25.0251V23.1881C205 21.8418 203.979 20.7432 202.719 20.7432ZM203.86 25.0251C203.86 25.7005 203.347 26.2453 202.719 26.2453C202.091 26.2453 201.578 25.696 201.578 25.0251V23.1881C201.578 22.5127 202.091 21.9634 202.719 21.9634C203.351 21.9634 203.86 22.5127 203.86 23.1881V25.0251Z" fill="#3782EF"/>
<path d="M162.216 27.47H163.356V21.9679V20.7432H162.216H161.084V21.9679H162.216V27.47Z" fill="#3782EF"/>
<path d="M185.186 27.47V21.9679V20.7432H184.046H182.914V21.9679H184.046V27.47H185.186Z" fill="#3782EF"/>
<path d="M167.676 10.374C166.416 10.374 165.395 11.4681 165.395 12.8189V14.6515C165.395 16.0022 166.416 17.0963 167.676 17.0963C168.936 17.0963 169.958 16.0022 169.958 14.6515V12.8189C169.962 11.4681 168.94 10.374 167.676 10.374ZM168.821 14.6515C168.821 15.3268 168.308 15.8761 167.681 15.8761C167.053 15.8761 166.54 15.3313 166.54 14.6515V12.8189C166.54 12.1435 167.053 11.5942 167.681 11.5942C168.313 11.5942 168.821 12.1435 168.821 12.8189V14.6515Z" fill="#3782EF"/>
<path d="M198.406 17.1002C199.666 17.1002 200.688 16.0061 200.688 14.6554V12.8228C200.688 11.4721 199.666 10.3779 198.406 10.3779C197.147 10.3779 196.125 11.4721 196.125 12.8228V14.6554C196.125 16.0061 197.147 17.1002 198.406 17.1002ZM197.266 12.8183C197.266 12.1429 197.779 11.5936 198.406 11.5936C199.034 11.5936 199.547 12.1429 199.547 12.8183V14.6509C199.547 15.3262 199.034 15.8755 198.406 15.8755C197.774 15.8755 197.266 15.3307 197.266 14.6509V12.8183Z" fill="#3782EF"/>
<path d="M178.594 17.1002C179.854 17.1002 180.875 16.0061 180.875 14.6554V12.8228C180.875 11.4721 179.854 10.3779 178.594 10.3779C177.334 10.3779 176.312 11.4721 176.312 12.8228V14.6554C176.313 16.0061 177.334 17.1002 178.594 17.1002ZM177.453 12.8183C177.453 12.1429 177.966 11.5936 178.594 11.5936C179.222 11.5936 179.735 12.1429 179.735 12.8183V14.6509C179.735 15.3262 179.222 15.8755 178.594 15.8755C177.962 15.8755 177.453 15.3307 177.453 14.6509V12.8183Z" fill="#3782EF"/>
<path d="M185.199 17.1002C186.459 17.1002 187.481 16.0061 187.481 14.6554V12.8228C187.481 11.4721 186.459 10.3779 185.199 10.3779C183.94 10.3779 182.918 11.4721 182.918 12.8228V14.6554C182.918 16.0061 183.94 17.1002 185.199 17.1002ZM184.059 12.8183C184.059 12.1429 184.572 11.5936 185.199 11.5936C185.827 11.5936 186.34 12.1429 186.34 12.8183V14.6509C186.34 15.3262 185.827 15.8755 185.199 15.8755C184.567 15.8755 184.059 15.3307 184.059 14.6509V12.8183Z" fill="#3782EF"/>
<path d="M191.801 17.1002C193.061 17.1002 194.083 16.0061 194.083 14.6554V12.8228C194.083 11.4721 193.061 10.3779 191.801 10.3779C190.541 10.3779 189.52 11.4721 189.52 12.8228V14.6554C189.52 16.0061 190.541 17.1002 191.801 17.1002ZM190.66 12.8183C190.66 12.1429 191.173 11.5936 191.801 11.5936C192.429 11.5936 192.942 12.1429 192.942 12.8183V14.6509C192.942 15.3262 192.429 15.8755 191.801 15.8755C191.169 15.8755 190.66 15.3307 190.66 14.6509V12.8183Z" fill="#3782EF"/>
<path d="M162.216 17.1008H163.356V11.5942V10.374H162.216H161.084V11.5942H162.216V17.1008Z" fill="#3782EF"/>
<path d="M174.272 17.1008V11.5942V10.374H173.127H172V11.5942H173.127V17.1008H174.272Z" fill="#3782EF"/>
<path d="M205.001 17.1008V11.5942V10.374H203.86H202.729V11.5942H203.86V17.1008H205.001Z" fill="#3782EF"/>
<path d="M167.594 31.1172C166.334 31.1172 165.312 32.2113 165.312 33.5621V35.3946C165.312 36.7454 166.334 37.8395 167.594 37.8395C168.854 37.8395 169.875 36.7454 169.875 35.3946V33.5621C169.875 32.2113 168.854 31.1172 167.594 31.1172ZM168.735 35.3991C168.735 36.0745 168.226 36.6238 167.594 36.6238C166.966 36.6238 166.453 36.079 166.453 35.3991V33.5666C166.453 32.8912 166.966 32.3419 167.594 32.3419C168.226 32.3419 168.735 32.8912 168.735 33.5666V35.3991Z" fill="#3782EF"/>
<path d="M200.77 35.3995V33.567C200.77 32.2162 199.748 31.1221 198.489 31.1221C197.229 31.1221 196.207 32.2162 196.207 33.567V35.3995C196.207 36.7503 197.229 37.8444 198.489 37.8444C199.748 37.8444 200.77 36.7503 200.77 35.3995ZM197.348 35.3995V33.567C197.348 32.8916 197.861 32.3423 198.489 32.3423C199.116 32.3423 199.629 32.8916 199.629 33.567V35.3995C199.629 36.0749 199.116 36.6242 198.489 36.6242C197.856 36.6197 197.348 36.0749 197.348 35.3995Z" fill="#3782EF"/>
<path d="M181.209 35.3995V33.567C181.209 32.2162 180.188 31.1221 178.928 31.1221C177.668 31.1221 176.646 32.2162 176.646 33.567V35.3995C176.646 36.7503 177.668 37.8444 178.928 37.8444C180.188 37.8444 181.209 36.7503 181.209 35.3995ZM177.783 35.3995V33.567C177.783 32.8916 178.296 32.3423 178.923 32.3423C179.551 32.3423 180.064 32.8916 180.064 33.567V35.3995C180.064 36.0749 179.551 36.6242 178.923 36.6242C178.296 36.6197 177.783 36.0749 177.783 35.3995Z" fill="#3782EF"/>
<path d="M187.727 33.5621C187.727 32.2113 186.705 31.1172 185.446 31.1172C184.186 31.1172 183.164 32.2113 183.164 33.5621V35.3946C183.164 36.7454 184.186 37.8395 185.446 37.8395C186.705 37.8395 187.727 36.7454 187.727 35.3946V33.5621ZM186.586 35.3991C186.586 36.0745 186.078 36.6238 185.446 36.6238C184.818 36.6238 184.305 36.079 184.305 35.3991V33.5666C184.305 32.8912 184.818 32.3419 185.446 32.3419C186.078 32.3419 186.586 32.8912 186.586 33.5666V35.3991Z" fill="#3782EF"/>
<path d="M191.965 37.8444C193.225 37.8444 194.247 36.7503 194.247 35.3995V33.567C194.247 32.2162 193.225 31.1221 191.965 31.1221C190.705 31.1221 189.684 32.2162 189.684 33.567V35.3995C189.684 36.7503 190.705 37.8444 191.965 37.8444ZM190.824 33.5625C190.824 32.8871 191.337 32.3378 191.965 32.3378C192.593 32.3378 193.106 32.8871 193.106 33.5625V35.395C193.106 36.0704 192.593 36.6197 191.965 36.6197C191.333 36.6197 190.824 36.0749 190.824 35.395V33.5625Z" fill="#3782EF"/>
<path d="M163.356 37.844V32.3419V31.1172H162.216H161.084V32.3419H162.216V37.844H163.356Z" fill="#3782EF"/>
<path d="M173.545 37.844H174.686V32.3419V31.1172H173.545H171.836V32.3419H173.545V37.844Z" fill="#3782EF"/>
<path d="M205.001 37.844V32.3419V31.1172H203.86H202.729V32.3419H203.86V37.844H205.001Z" fill="#3782EF"/>
</g>
<defs>
<clipPath id="clip0_241_1085">
<rect width="205" height="52" fill="white"/>
</clipPath>
</defs>
</svg>
